<?xml version="1.0" encoding="UTF-8"?>
<svg width="16px" height="16px" viewBox="0 0 16 16" version="1.1" xmlns="http://www.w3.org/2000/svg" xmlns:xlink="http://www.w3.org/1999/xlink">
    <title>阿里云物联网平台</title>
    <g id="阿里云物联网平台" stroke="none" stroke-width="1" fill="none" fill-rule="evenodd">
        <path d="M7.26440641,0 L13.3266717,2.36726764 L14.6353935,2.90257389 L14.6353935,3.98192996 L12.4608158,3.98192996 L7.25961664,1.87196392 L1.77709015,3.98192996 L1.77709015,11.6571401 L7.37868383,14.0946541 L12.9564432,11.6579592 L12.9564547,6.5612713 L14.7335769,6.5612713 L14.7335769,12.7876834 L7.38012819,16 L0,12.78858 L0,2.79576344 L7.26440641,0 Z M4.8564244,5.09250381 L4.8564244,11.672158 L3.15848455,10.8699904 L3.15848455,5.09250381 L4.8564244,5.09250381 Z M8.57200116,7.26974275 C9.72668056,7.26974275 10.6627332,8.18658069 10.6627332,9.31755761 C10.6627332,10.4485345 9.72668056,11.3653725 8.57200116,11.3653725 C7.41732177,11.3653725 6.48126917,10.4485345 6.48126917,9.31755761 C6.48126917,8.18658069 7.41732177,7.26974275 8.57200116,7.26974275 Z M16,5.03348131 L16,6.77412394 L11.4514063,6.77412394 L11.4514063,5.03348131 L16,5.03348131 Z" fill="#BDC4DF" fill-rule="nonzero"></path>
    </g>
</svg>