<?xml version="1.0" encoding="utf-8"?>
<!-- Generator: Adobe Illustrator 25.3.1, SVG Export Plug-In . SVG Version: 6.00 Build 0)  -->
<svg version="1.1" id="图层_1" xmlns="http://www.w3.org/2000/svg" xmlns:xlink="http://www.w3.org/1999/xlink" x="0px" y="0px"
	 viewBox="0 0 29.5 29.5" style="enable-background:new 0 0 29.5 29.5;" xml:space="preserve">
<style type="text/css">
	.st0{display:none;fill-rule:evenodd;clip-rule:evenodd;fill:#16D0FF;fill-opacity:0.149;stroke:#3699FF;stroke-dasharray:4,2;}
	.st1{fill-rule:evenodd;clip-rule:evenodd;fill:#FFC9C9;}
	.st2{fill-rule:evenodd;clip-rule:evenodd;fill:#FF5E5E;}
	.st3{fill:#FFFFFF;}
	.st4{font-family:'PingFangSC-Regular-GBpc-EUC-H';}
	.st5{font-size:6px;}
</style>
<path class="st0" d="M1.5,1.5h26v26h-26V1.5z"/>
<path class="st1" d="M20,8.5c2.5,0,4.5,2,4.5,4.5c0,2.5-2,4.5-4.5,4.5c-2.5,0-4.5-2-4.5-4.5C15.5,10.5,17.5,8.5,20,8.5z"/>
<path class="st2" d="M4.5,17c0,3.2,2.4,5.5,5.3,5.5h8.9c2.7-0.1,4.8-2.2,4.8-4.7c0-1.9-1.2-3.5-3-4.3c-0.4-0.2-0.6,0.4-0.7-0.9
	c-0.5-2.4-2.6-4.2-5.2-4.2c-1.9,0-3.4,1-3.9,2.5c-0.8,0.3-1.1,0.5-1.4,0.5C6.6,11.9,4.5,14.2,4.5,17L4.5,17z"/>
<text transform="matrix(1 0 0 1 8.5 18.5)" class="st3 st4 st5">API</text>
</svg>
