<?xml version="1.0" encoding="UTF-8"?>
<svg width="16px" height="16px" viewBox="0 0 16 16" version="1.1" xmlns="http://www.w3.org/2000/svg" xmlns:xlink="http://www.w3.org/1999/xlink">
    <title>at</title>
    <g id="at" stroke="none" stroke-width="1" fill="none" fill-rule="evenodd">
        <rect id="矩形" fill="#000000" fill-rule="nonzero" opacity="0" x="0" y="0" width="16" height="16"></rect>
        <path d="M12.3658206,10.7607076 C11.7368803,11.7827356 10.8458816,12.4116759 9.77144193,12.8047636 C8.95906072,13.1192337 8.06806196,13.2240571 7.20326906,13.1716454 C6.31227031,13.1192337 5.39506571,12.8833811 4.60889034,12.38547 C3.82271498,11.887559 3.24618638,11.1537953 2.93171622,10.2890024 C2.66965776,9.37179779 2.69586361,8.37597566 2.93171622,7.4849769 C3.19377467,6.620184 3.66547989,5.83400863 4.2944202,5.20506833 C5.02818387,4.4975105 5.91918263,4.05201112 6.88879891,3.8685702 C7.72738598,3.71133513 8.61838473,3.73754097 9.43076594,3.94718774 C10.1383238,4.13062866 10.7148524,4.4450988 11.1865576,4.99542156 C11.632057,5.49333262 11.9465271,6.09606708 12.0251447,6.77741907 C12.1037622,7.4849769 11.972733,8.21874057 11.6582628,8.87388672 C11.2389693,9.73867963 10.4527939,10.5510608 9.50938347,10.9965602 C9.37835424,11.0489719 9.22111917,11.0751778 9.11629579,11.0227661 C9.06388409,10.9703544 9.01147241,10.8917368 9.03767825,10.7607076 C9.27353086,9.00491596 9.79764778,7.56359444 10.4265881,5.83400863 C10.4789998,5.70297939 10.3479705,5.44092094 10.0859121,5.3623034 C9.82385362,5.25748003 9.64041269,5.4147151 9.61420685,5.46712678 C9.58800101,5.57195016 9.37835424,6.09606708 9.2997367,6.38433138 C9.14250163,5.9912437 8.82803148,5.62436186 8.46114965,5.4147151 C8.04185613,5.17886249 7.54394505,5.12645079 7.07223983,5.23127417 C6.54812291,5.33609755 6.07641769,5.59815602 5.70953586,5.96503786 C4.84474296,6.85603661 4.26821436,8.03529966 4.32062604,9.26697441 C4.34683188,10.0007381 4.58268449,10.7082959 5.13300725,11.206207 C5.60471247,11.6517064 6.20744692,11.7827356 6.83638722,11.6255005 C7.41291582,11.4682654 7.88462104,11.1275895 8.27770872,10.6820901 L8.27770872,11.1013836 C8.27770872,11.3634421 8.3825321,11.5992947 8.59217887,11.7827356 C8.77561979,11.9399707 9.03767825,11.9923824 9.4045601,11.9137648 C10.6624407,11.5992947 11.9203213,10.3414141 12.5230557,9.13594518 C12.8637317,8.42838734 12.9685551,7.58980028 12.8899376,6.82983076 C12.81132,6.06986124 12.5492616,5.3623034 12.0775563,4.73336311 C11.5010277,3.94718774 10.7672641,3.50168836 9.82385362,3.23962991 C8.85423734,2.97757146 7.8584152,2.92515976 6.83638722,3.10860068 C5.63091832,3.31824745 4.55647865,3.89477605 3.71789158,4.75956895 C3.01033375,5.46712678 2.48621685,6.35812554 2.22415838,7.32774183 C1.90968824,8.4021815 1.90968824,9.58144456 2.32898177,10.6558842 C2.69586362,11.5730888 3.32480391,12.4116759 4.16339096,12.9882045 C5.05438971,13.5909389 6.15503523,13.8529974 7.2294749,13.9316149 C8.33012042,14.0102325 9.45697178,13.8529974 10.4789998,13.4337039 C11.3437927,13.066822 12.129968,12.5164993 12.7851142,11.6779122 C12.8899376,11.5206771 13.0733785,11.1800011 13.0209668,10.9965602 C12.8637317,10.5772667 12.470644,10.6034725 12.3658206,10.7607076 Z M8.7756198,7.90427043 C8.64459057,8.74285749 8.22529704,9.63385624 7.62256259,10.1579732 C7.33429828,10.4462375 7.01982813,10.6296784 6.73156384,10.7345018 C6.39088785,10.8393251 6.05021185,10.8131193 5.7881534,10.6558842 C5.52609495,10.4986491 5.31644818,10.184179 5.18541894,9.68626793 C4.97577218,8.82147503 5.26403648,7.82565289 5.70953586,7.11809506 C6.02400601,6.64638984 6.49571123,6.20089046 7.04603399,6.01744954 C7.62256259,5.83400863 8.1990912,5.9912437 8.56597303,6.46294892 C8.82803148,6.85603661 8.85423734,7.45877106 8.7756198,7.90427043 L8.7756198,7.90427043 Z" id="形状" fill-opacity="0.6" fill="#5F6269" fill-rule="nonzero"></path>
    </g>
</svg>