<?xml version="1.0" encoding="utf-8"?>
<!-- Generator: Adobe Illustrator 25.3.1, SVG Export Plug-In . SVG Version: 6.00 Build 0)  -->
<svg version="1.1" id="图层_1" xmlns="http://www.w3.org/2000/svg" xmlns:xlink="http://www.w3.org/1999/xlink" x="0px" y="0px"
	 viewBox="0 0 29.5 29.5" style="enable-background:new 0 0 29.5 29.5;" xml:space="preserve">
<style type="text/css">
	.st0{display:none;fill-rule:evenodd;clip-rule:evenodd;fill:#16D0FF;fill-opacity:0.149;stroke:#3699FF;stroke-dasharray:4,2;}
	.st1{fill-rule:evenodd;clip-rule:evenodd;fill:#5F6269;}
	.st2{fill-rule:evenodd;clip-rule:evenodd;fill:#C3C7CF;}
	.st3{fill-rule:evenodd;clip-rule:evenodd;fill:#FFFFFF;}
</style>
<path class="st0" d="M1.5,1.5h26v26h-26V1.5z"/>
<path class="st1" d="M15,7.5c2.2,0,3.9,1.8,3.9,4s-1.7,4-3.9,4c-2.2,0-3.9-1.8-3.9-4S12.8,7.5,15,7.5L15,7.5z"/>
<path class="st2" d="M23.1,23.5H6.9c-0.2-0.3-0.4-1-0.4-1.6c0-3.1,3.8-5.6,8.5-5.6c4.7,0,8.5,2.5,8.5,5.6
	C23.5,22.5,23.3,23.2,23.1,23.5L23.1,23.5z"/>
<path class="st3" d="M16.5,19.5h3c1,0,1,0.4,1,1c0,1,0,1-1,1h-3c-0.6,0-1,0-1-1C15.5,19.9,15.9,19.5,16.5,19.5z"/>
</svg>
