<?xml version="1.0" encoding="UTF-8"?>
<svg width="12px" height="7px" viewBox="0 0 12 7" version="1.1" xmlns="http://www.w3.org/2000/svg" xmlns:xlink="http://www.w3.org/1999/xlink">
    <title>形状结合</title>
    <g id="2.0" stroke="none" stroke-width="1" fill="none" fill-rule="evenodd">
        <g id="概览—钩子编辑" transform="translate(-250.000000, -97.000000)" fill="#787D8B" fill-rule="nonzero">
            <g id="返回文件" transform="translate(242.000000, 89.000000)">
                <path d="M12.6533569,8.16002354 C12.7052857,8.22926201 12.7333569,8.31347546 12.7333569,8.40002355 L12.733,10.85 L18.6477693,10.8500235 C18.9239117,10.8500235 19.1477693,11.0738812 19.1477693,11.3500235 C19.1477693,11.5954834 18.9708942,11.7996319 18.737645,11.8419679 L18.6477693,11.8500235 L12.733,11.85 L12.7333569,14.3000235 C12.7333569,14.5209374 12.5542708,14.7000235 12.3333569,14.7000235 C12.2468088,14.7000235 12.1625953,14.6719524 12.0933569,14.6200235 L8.16002354,11.6700235 C7.98329242,11.5374752 7.9474752,11.2867547 8.08002354,11.1100235 C8.10276524,11.0797013 8.12970128,11.0527652 8.16002354,11.0300235 L12.0933569,8.08002354 C12.270088,7.9474752 12.5208085,7.98329242 12.6533569,8.16002354 Z" id="形状结合"></path>
            </g>
        </g>
    </g>
</svg>