<?xml version="1.0" encoding="UTF-8"?>
<svg width="39px" height="54px" viewBox="0 0 39 54" version="1.1" xmlns="http://www.w3.org/2000/svg" xmlns:xlink="http://www.w3.org/1999/xlink">
    <title>实时查询</title>
    <defs>
        <linearGradient x1="0%" y1="87.3963262%" x2="100%" y2="1.94156094%" id="linearGradient-1">
            <stop stop-color="#FBA54A" offset="0%"></stop>
            <stop stop-color="#FEC748" offset="100%"></stop>
        </linearGradient>
        <filter x="-22.2%" y="-100.0%" width="144.4%" height="300.0%" filterUnits="objectBoundingBox" id="filter-2">
            <feGaussianBlur stdDeviation="2" in="SourceGraphic"></feGaussianBlur>
        </filter>
        <linearGradient x1="50%" y1="1.55670124e-13%" x2="50%" y2="100%" id="linearGradient-3">
            <stop stop-color="#FEDF97" offset="0%"></stop>
            <stop stop-color="#FEC748" offset="100%"></stop>
        </linearGradient>
        <linearGradient x1="50%" y1="1.55670124e-13%" x2="50%" y2="100%" id="linearGradient-4">
            <stop stop-color="#FFFFFF" stop-opacity="0.846864073" offset="0%"></stop>
            <stop stop-color="#FEDF97" offset="84.58552%"></stop>
            <stop stop-color="#FEC748" offset="100%"></stop>
        </linearGradient>
        <circle id="path-5" cx="15.142816" cy="15.7437551" r="7"></circle>
        <filter x="-71.4%" y="-57.1%" width="242.9%" height="242.9%" filterUnits="objectBoundingBox" id="filter-6">
            <feOffset dx="0" dy="2" in="SourceAlpha" result="shadowOffsetOuter1"></feOffset>
            <feGaussianBlur stdDeviation="3" in="shadowOffsetOuter1" result="shadowBlurOuter1"></feGaussianBlur>
            <feColorMatrix values="0 0 0 0 0.974411232   0 0 0 0 0.670291515   0 0 0 0 0.248578841  0 0 0 1 0" type="matrix" in="shadowBlurOuter1"></feColorMatrix>
        </filter>
    </defs>
    <g id="1" stroke="none" stroke-width="1" fill="none" fill-rule="evenodd">
        <g id="切图" transform="translate(-226.000000, -18.000000)">
            <g id="实时查询" transform="translate(229.000000, 18.000000)">
                <rect id="矩形" fill="url(#linearGradient-1)" x="0" y="0" width="33.66" height="33" rx="10"></rect>
                <ellipse id="椭圆形" fill="#FBAB49" opacity="0.333031064" filter="url(#filter-2)" cx="16.5" cy="45" rx="13.5" ry="3"></ellipse>
                <path d="M19.403087,19.4292098 C19.9695636,19.0013566 20.7733076,19.0999891 21.2195246,19.6521164 L25.6519946,25.1366397 C26.0797455,25.6659179 25.9974413,26.4417432 25.4681632,26.869494 C25.4576753,26.8779701 25.447049,26.8862734 25.4362886,26.8944006 C24.8698119,27.3222538 24.0660679,27.2236213 23.619851,26.671494 L19.1873809,21.1869707 C18.7596301,20.6576925 18.8419342,19.8818672 19.3712124,19.4541164 C19.3817002,19.4456403 19.3923265,19.437337 19.403087,19.4292098 Z" id="形状结合" fill="url(#linearGradient-3)" transform="translate(22.419688, 23.161805) rotate(-4.000000) translate(-22.419688, -23.161805) "></path>
                <g id="椭圆形">
                    <use fill="black" fill-opacity="1" filter="url(#filter-6)" xlink:href="#path-5"></use>
                    <use fill="url(#linearGradient-4)" fill-rule="evenodd" xlink:href="#path-5"></use>
                </g>
                <polyline id="路径-42" stroke="#FDBE49" stroke-linecap="round" points="11.0138837 16.5 15.6140597 16.5 15.6140597 9.65115749"></polyline>
            </g>
        </g>
    </g>
</svg>