<?xml version="1.0" encoding="UTF-8"?>
<svg width="14px" height="14px" viewBox="0 0 14 14" version="1.1" xmlns="http://www.w3.org/2000/svg" xmlns:xlink="http://www.w3.org/1999/xlink">
    <title>垃圾桶</title>
    <g id="垃圾桶" stroke="none" stroke-width="1" fill="none" fill-rule="evenodd">
        <rect id="矩形" fill="#000000" fill-rule="nonzero" opacity="0" x="0" y="0" width="14" height="14"></rect>
        <path d="M6.41478697,1.16666667 C6.60526316,1.16666667 6.7593985,1.31779884 6.7593985,1.50456381 L6.7593985,1.50456381 L6.7593985,2.95199228 C6.7593985,2.98639635 6.75438596,3.0195717 6.7443609,3.05151834 L6.7443609,3.05151834 L12.4874687,3.05151834 C12.6779449,3.05151834 12.8320802,3.20265052 12.8333333,3.38818676 C12.8333333,3.57495173 12.679198,3.7260839 12.4887218,3.7260839 L12.4887218,3.7260839 L10.7756892,3.7260839 L9.87218045,12.5298403 C9.85463659,12.7018606 9.70676692,12.8333333 9.53007519,12.8333333 L9.53007519,12.8333333 L3.30200501,12.8333333 C3.12531328,12.8333333 2.97744361,12.7018606 2.95989975,12.5298403 L2.95989975,12.5298403 L2.05764411,3.72731262 L0.344611529,3.72731262 C0.154135338,3.72731262 0,3.57618045 0,3.38941548 C0,3.20265052 0.154135338,3.05151834 0.344611529,3.05028963 L0.344611529,3.05028963 L6.08521303,3.05028963 C6.07518797,3.0195717 6.07017544,2.98516763 6.07017544,2.95076356 L6.07017544,2.95076356 L6.07017544,1.50456381 C6.07017544,1.31779884 6.22431078,1.16666667 6.41478697,1.16666667 Z M10.0839599,3.72731262 L2.74937343,3.72731262 L3.61403509,12.1587678 L9.21804511,12.1587678 L10.0839599,3.72731262 Z M5.36666667,6.19936809 C5.47405537,6.19936809 5.56449994,6.2645733 5.59166511,6.3533373 L5.6,6.40908958 L5.6,10.2146704 C5.6,10.3304963 5.49553311,10.4243918 5.36666667,10.4243918 C5.25927797,10.4243918 5.1688334,10.3591866 5.14166823,10.2704226 L5.13333333,10.2146704 L5.13333333,6.40908958 C5.13333333,6.2932636 5.23780023,6.19936809 5.36666667,6.19936809 Z M7.50555556,6.19936809 C7.61294426,6.19936809 7.70338883,6.2645733 7.730554,6.3533373 L7.73888889,6.40908958 L7.73888889,10.2146704 C7.73888889,10.3304963 7.634422,10.4243918 7.50555556,10.4243918 C7.39816685,10.4243918 7.30772228,10.3591866 7.28055711,10.2704226 L7.27222222,10.2146704 L7.27222222,6.40908958 C7.27222222,6.2932636 7.37668911,6.19936809 7.50555556,6.19936809 Z" id="形状结合" fill="#5F6269" fill-rule="nonzero"></path>
    </g>
</svg>