<?xml version="1.0" encoding="UTF-8"?>
<svg width="14px" height="14px" viewBox="0 0 14 14" version="1.1" xmlns="http://www.w3.org/2000/svg" xmlns:xlink="http://www.w3.org/1999/xlink">
    <title>关闭</title>
    <g id="关闭" stroke="none" stroke-width="1" fill="none" fill-rule="evenodd">
        <path d="M7,0.4 C8.82253967,0.4 10.4725397,1.13873016 11.6669048,2.33309524 C12.8612698,3.52746033 13.6,5.17746033 13.6,7 C13.6,8.82253967 12.8612698,10.4725397 11.6669048,11.6669048 C10.4725397,12.8612698 8.82253967,13.6 7,13.6 C5.17746033,13.6 3.52746033,12.8612698 2.33309524,11.6669048 C1.13873016,10.4725397 0.4,8.82253967 0.4,7 C0.4,5.17746033 1.13873016,3.52746033 2.33309524,2.33309524 C3.52746033,1.13873016 5.17746033,0.4 7,0.4 Z" id="椭圆形" stroke="#787D8B" stroke-width="0.8" fill="#FFFFFF"></path>
        <path d="M9.82777387,3.90818453 C9.98303455,3.8056719 10.1940268,3.82275734 10.3307103,3.95944084 C10.48692,4.11565056 10.48692,4.36891655 10.3307103,4.52512627 L10.3307103,4.52512627 L7.71359195,7.14128355 L10.1892889,9.61629509 C10.3454986,9.77250481 10.3454986,10.0257708 10.1892889,10.1819805 C10.0526054,10.318664 9.8416132,10.3357495 9.68635252,10.2332368 L9.62360349,10.1819805 L7.14859195,7.70628355 L4.67385602,10.1819805 L4.61110699,10.2332368 C4.45584631,10.3357495 4.24485409,10.318664 4.10817059,10.1819805 C3.95196088,10.0257708 3.95196088,9.77250481 4.10817059,9.61629509 L4.10817059,9.61629509 L6.58359195,7.14128355 L3.96674924,4.52512627 C3.81053952,4.36891655 3.81053952,4.11565056 3.96674924,3.95944084 C4.10343274,3.82275734 4.31442495,3.8056719 4.46968563,3.90818453 L4.53243466,3.95944084 L7.14859195,6.57628355 L9.76502484,3.95944084 Z" id="形状结合" fill="#5F6269" fill-rule="nonzero"></path>
    </g>
</svg>