<?xml version="1.0" encoding="UTF-8"?>
<svg width="16px" height="16px" viewBox="0 0 16 16" version="1.1" xmlns="http://www.w3.org/2000/svg" xmlns:xlink="http://www.w3.org/1999/xlink">
    <title>关闭</title>
    <g id="关闭" stroke="none" stroke-width="1" fill="none" fill-rule="evenodd">
        <rect id="矩形" fill="#000000" fill-rule="nonzero" opacity="0" x="0" y="0" width="16" height="16"></rect>
        <path d="M8.78564333,7.9812607 L13.3949662,3.39584163 C13.6129304,3.17899664 13.6140337,2.82760289 13.3971887,2.60963867 C13.1797841,2.39113081 12.82895,2.3905712 12.6109858,2.60741617 L8.00054363,7.19339488 L3.43013836,2.60909503 C3.213853,2.39225005 2.86189962,2.39113081 2.64393541,2.6079758 C2.42653081,2.82482078 2.42598717,3.17677416 2.64281617,3.39473838 L7.21213417,7.97793495 L2.6050178,12.5605719 C2.38705358,12.7774169 2.38595033,13.1288107 2.6027953,13.3467749 C2.71121778,13.455757 2.85411291,13.5107917 2.99700802,13.5107917 C3.13878389,13.5107917 3.28057575,13.4568603 3.38899825,13.3489974 L7.99721788,8.76524117 L12.6093229,13.3912567 C12.7177454,13.5002388 12.8600809,13.5547299 13.002976,13.5547299 C13.1453115,13.5547299 13.2871033,13.5002388 13.3955258,13.392376 C13.6129304,13.175531 13.61349,12.8241372 13.3966451,12.606173 L8.78564333,7.9812607 Z" id="路径" fill="#5F6269" fill-rule="nonzero"></path>
    </g>
</svg>