<?xml version="1.0" encoding="UTF-8"?>
<svg width="14px" height="14px" viewBox="0 0 14 14" version="1.1" xmlns="http://www.w3.org/2000/svg" xmlns:xlink="http://www.w3.org/1999/xlink">
    <title>云</title>
    <g id="云" stroke="none" stroke-width="1" fill="none" fill-rule="evenodd">
        <rect id="矩形" fill="#000000" fill-rule="nonzero" opacity="0" x="0" y="0" width="14" height="14"></rect>
        <path d="M8.33333333,11 L10.6666667,11 C12,10.8666667 13,9.73333333 13,8.33333333 C13,6.86666666 11.8,5.66666666 10.3333333,5.66666667 L10.2666667,5.66666667 C9.93333334,4.13333334 8.6,3 7,3 C5.13333333,3 3.66666667,4.46666667 3.66666667,6.33333333 C2.53333334,6.46666666 1.66666667,7.46666666 1.66666667,8.66666667 C1.66666667,9.93333333 2.73333333,11 4,11 L8.33333333,11 Z M10.6666667,11.6666667 L4,11.6666667 C2.33333333,11.6666667 1,10.3333333 1,8.66666667 C1,7.33333333 1.86666667,6.2 3,5.8 C3.26666667,3.86666667 4.93333333,2.33333333 7,2.33333333 C8.73333333,2.33333333 10.2666667,3.46666666 10.8,5 C12.4,5.2 13.6666667,6.6 13.6666667,8.33333333 C13.6666667,10.0666667 12.3333333,11.4666667 10.6666667,11.6666667 L10.6666667,11.6666667 Z" id="形状" fill="#CBCCCE" fill-rule="nonzero"></path>
    </g>
</svg>