<?xml version="1.0" encoding="UTF-8"?>
<svg width="12px" height="12px" viewBox="0 0 12 12" version="1.1" xmlns="http://www.w3.org/2000/svg" xmlns:xlink="http://www.w3.org/1999/xlink">
    <title>叉</title>
    <g id="叉" stroke="none" stroke-width="1" fill="none" fill-rule="evenodd">
        <rect id="矩形" fill="#000000" fill-rule="nonzero" opacity="0" x="0" y="0" width="12" height="12"></rect>
        <path d="M6.56894584,6.11399565 L9.16168996,3.53469741 C9.28429483,3.41272211 9.28491541,3.21506313 9.16294012,3.09245825 C9.04065003,2.96954758 8.84330583,2.9692328 8.72070096,3.0912081 L6.12732726,5.67082112 L3.5564743,3.09215246 C3.43481378,2.97017715 3.23684001,2.96954758 3.11423514,3.09152289 C2.99194505,3.21349819 2.99163926,3.41147196 3.11360557,3.53407684 L5.68384694,6.11212491 L3.09234398,8.68985821 C2.96973911,8.81183352 2.96911853,9.0094925 3.09109383,9.13209738 C3.15208147,9.19339981 3.23245998,9.22435682 3.31283848,9.22435682 C3.39258741,9.22435682 3.47234533,9.19402039 3.53333299,9.13334753 L6.12545653,6.55498466 L8.71976559,9.15711841 C8.78075324,9.21842085 8.86081696,9.24907207 8.94119546,9.24907207 C9.02125918,9.24907207 9.1010171,9.21842085 9.16200475,9.15774799 C9.28429483,9.03577269 9.28460962,8.8381137 9.16263432,8.71550883 L6.56894584,6.11399565 Z" id="路径" fill="#ABACAF" fill-rule="nonzero"></path>
    </g>
</svg>