<?xml version="1.0" encoding="utf-8"?>
<!-- Generator: Adobe Illustrator 25.3.1, SVG Export Plug-In . SVG Version: 6.00 Build 0)  -->
<svg version="1.1" id="图层_1" xmlns="http://www.w3.org/2000/svg" xmlns:xlink="http://www.w3.org/1999/xlink" x="0px" y="0px"
	 viewBox="0 0 29.5 29.5" style="enable-background:new 0 0 29.5 29.5;" xml:space="preserve">
<style type="text/css">
	.st0{display:none;fill-rule:evenodd;clip-rule:evenodd;fill:#16D0FF;fill-opacity:0.149;stroke:#3699FF;stroke-dasharray:4,2;}
	.st1{clip-path:url(#SVGID_2_);fill-rule:evenodd;clip-rule:evenodd;fill:#FF5E5E;}
</style>
<path class="st0" d="M1.5,1.5h26v26h-26V1.5z"/>
<g>
	<defs>
		<path id="SVGID_1_" d="M14.5,18.5h8c1,0,1,0.5,1,1.1v1.7c0,0.6,0,1.1-1,1.1h-8c-1,0-2-0.3-2-1l0,0h-5c-0.4,0-1-0.6-1-1v-10l0,0
			c-0.5,0-1-0.6-1-1.1V7.6c0-0.7,0.5-1.1,1-1.1h1.7c0.5,0,1.3,0.3,1.3,1v2c0,1.2-0.8,1-1.3,1l0.3,0v3h4l0,0c0-0.6,0.5-1,1-1h9
			c0.9,0,0.9,0.1,0.9,0.7v2.7c0,0.6,0,0.6-0.9,0.6h-8c-0.5,0-2-0.3-2-1l0,0h-4v4h4l0,0C12.5,18.9,13.4,18.5,14.5,18.5L14.5,18.5z
			 M22.5,10.5H11.4c-0.6,0-0.9,0.2-0.9-1v-2c0-0.7,0.3-1,0.9-1h11.1c1,0,1,0.5,1,1.1v1.7C23.5,9.9,23.5,10.5,22.5,10.5L22.5,10.5z"
			/>
	</defs>
	<use xlink:href="#SVGID_1_"  style="overflow:visible;fill-rule:evenodd;clip-rule:evenodd;fill:#FFC9C9;"/>
	<clipPath id="SVGID_2_">
		<use xlink:href="#SVGID_1_"  style="overflow:visible;"/>
	</clipPath>
	<path class="st1" d="M5.5,10.5h7v11h-7V10.5z"/>
</g>
</svg>
