<?xml version="1.0" encoding="UTF-8"?>
<svg width="12px" height="12px" viewBox="0 0 12 12" version="1.1" xmlns="http://www.w3.org/2000/svg" xmlns:xlink="http://www.w3.org/1999/xlink">
    <title>切片</title>
    <g id="2.0" stroke="none" stroke-width="1" fill="none" fill-rule="evenodd">
        <g id="数据建模-查看" transform="translate(-1263.000000, -104.000000)" fill-rule="nonzero">
            <g id="垃圾桶" transform="translate(1263.000000, 104.000000)">
                <rect id="矩形" fill="#000000" opacity="0" x="0" y="0" width="11.9988282" height="11.9988282"></rect>
                <path d="M11.6765941,1.79748071 L6.30641539,1.79748071 C6.31578947,1.76701494 6.32047652,1.7353774 6.32047652,1.70256811 L6.32047652,0.322234157 C6.32047652,0.14412655 6.17634997,0 5.99824236,0 C5.82013475,0 5.6760082,0.14412655 5.6760082,0.322234157 L5.6760082,1.70139635 C5.6760082,1.73420564 5.68069524,1.76701494 5.69006933,1.79630895 L0.322234157,1.79630895 C0.14412655,1.79748071 0,1.94160726 0,2.11971487 C0,2.29782248 0.14412655,2.44194903 0.322234157,2.44194903 L1.92403086,2.44194903 L2.76769847,10.8364418 C2.78410311,11.0004882 2.92237086,11.1258666 3.0875891,11.1258666 L8.91123914,11.1258666 C9.07645738,11.1258666 9.21472512,11.0004882 9.23112977,10.8364418 L10.0759691,2.44077727 L11.6777658,2.44077727 C11.8558734,2.44077727 12,2.29665072 12,2.11854311 C11.9988282,1.94160726 11.8547017,1.79748071 11.6765941,1.79748071 Z M8.61947075,10.4825701 L3.37935748,10.4825701 L2.57084269,2.44194903 L9.42915731,2.44194903 L8.61947075,10.4825701 L8.61947075,10.4825701 Z" id="形状" fill="#F21212"></path>
                <path d="M5,4.79941412 C5.09204746,4.79941412 5.16957137,4.86159679 5.19285581,4.9462462 L5.2,4.99941412 L5.2,8.6285899 C5.2,8.73904685 5.11045695,8.8285899 5,8.8285899 C4.90795254,8.8285899 4.83042863,8.76640722 4.80714419,8.68175782 L4.8,8.6285899 L4.8,4.99941412 C4.8,4.88895717 4.88954305,4.79941412 5,4.79941412 Z M7,4.79941412 C7.09204746,4.79941412 7.16957137,4.86159679 7.19285581,4.9462462 L7.2,4.99941412 L7.2,8.6285899 C7.2,8.73904685 7.11045695,8.8285899 7,8.8285899 C6.90795254,8.8285899 6.83042863,8.76640722 6.80714419,8.68175782 L6.8,8.6285899 L6.8,4.99941412 C6.8,4.88895717 6.88954305,4.79941412 7,4.79941412 Z" id="形状结合" fill="#F21212"></path>
            </g>
        </g>
    </g>
</svg>