<?xml version="1.0" encoding="UTF-8"?>
<svg width="11px" height="11px" viewBox="0 0 11 11" version="1.1" xmlns="http://www.w3.org/2000/svg" xmlns:xlink="http://www.w3.org/1999/xlink">
    <title>删除</title>
    <g id="2.0" stroke="none" stroke-width="1" fill="none" fill-rule="evenodd">
        <g id="数据建模-普通视图" transform="translate(-149.000000, -350.000000)">
            <g id="下拉" transform="translate(135.000000, 241.000000)">
                <g id="删除" transform="translate(12.000000, 107.000000)">
                    <rect id="矩形" x="0" y="0" width="14" height="14"></rect>
                    <path d="M8.4328125,2.4609375 C8.98250842,2.4609375 9.428125,2.90655408 9.428125,3.45625 L11.9164062,3.45625 C12.1912542,3.45625 12.4140625,3.67905829 12.4140625,3.95390625 C12.4140625,4.22875421 12.1912542,4.4515625 11.9164062,4.4515625 L11.4179375,4.4509375 L11.41875,11.2765625 C11.41875,11.9047864 10.9094739,12.4140625 10.28125,12.4140625 L4.59374996,12.4140625 C3.96552608,12.4140625 3.45625,11.9047864 3.45625,11.2765625 L3.4559375,4.4509375 L2.95859375,4.4515625 C2.68374579,4.4515625 2.4609375,4.22875421 2.4609375,3.95390625 C2.4609375,3.67905829 2.68374579,3.45625 2.95859375,3.45625 L5.446875,3.45625 C5.446875,2.90655408 5.89249158,2.4609375 6.4421875,2.4609375 L8.4328125,2.4609375 Z M10.5429375,4.4509375 L4.3309375,4.4509375 L4.33125,11.2765625 C4.33125,11.4008266 4.41759507,11.5049237 4.53356113,11.5321297 L4.59374996,11.5390625 L10.28125,11.5390625 C10.4055141,11.5390625 10.5096112,11.4527174 10.5368172,11.3367514 L10.54375,11.2765625 L10.5429375,4.4509375 Z M6.42747825,6.04452433 C6.7023262,6.04452433 6.9251345,6.26733262 6.9251345,6.54218058 L6.9251345,9.52811808 C6.9251345,9.80296603 6.7023262,10.0257743 6.42747825,10.0257743 C6.15263029,10.0257743 5.929822,9.80296603 5.929822,9.52811808 L5.929822,6.54218058 C5.929822,6.26733262 6.15263029,6.04452433 6.42747825,6.04452433 Z M8.41810325,6.04452433 C8.6929512,6.04452433 8.9157595,6.26733262 8.9157595,6.54218058 L8.9157595,9.52811808 C8.9157595,9.80296603 8.6929512,10.0257743 8.41810325,10.0257743 C8.14325529,10.0257743 7.920447,9.80296603 7.920447,9.52811808 L7.920447,6.54218058 C7.920447,6.26733262 8.14325529,6.04452433 8.41810325,6.04452433 Z" id="形状结合" fill="#5F6269" fill-rule="nonzero"></path>
                </g>
            </g>
        </g>
    </g>
</svg>