<?xml version="1.0" encoding="UTF-8"?>
<svg width="12px" height="12px" viewBox="0 0 12 12" version="1.1" xmlns="http://www.w3.org/2000/svg">
    <title>列表视图</title>
    <g id="列表视图" stroke="none" stroke-width="1" fill="none" fill-rule="evenodd">
        <rect id="矩形" fill="#000000" fill-rule="nonzero" opacity="0" x="0" y="0" width="12" height="12"></rect>
        <path d="M1.944,3.18 L1.65,3.18 C1.4362658,3.18 1.263,3.3532658 1.263,3.567 C1.263,3.7807342 1.4362658,3.954 1.65,3.954 L1.956,3.954 C2.1697342,3.954 2.343,3.7807342 2.343,3.567 C2.343,3.3532658 2.1697342,3.18 1.956,3.18 L1.944,3.18 Z M3.798,3.954 L9.516,3.954 C9.7297342,3.954 9.903,3.7807342 9.903,3.567 C9.903,3.3532658 9.7297342,3.18 9.516,3.18 L3.798,3.18 C3.5842658,3.18 3.411,3.3532658 3.411,3.567 C3.411,3.7807342 3.5842658,3.954 3.798,3.954 Z M1.944,5.616 L1.65,5.616 C1.4362658,5.616 1.263,5.7892658 1.263,6.003 C1.263,6.2167342 1.4362658,6.39 1.65,6.39 L1.956,6.39 C2.1697342,6.39 2.343,6.2167342 2.343,6.003 C2.343,5.7892658 2.1697342,5.616 1.956,5.616 L1.944,5.616 Z M9.516,5.616 L3.798,5.616 C3.5842658,5.616 3.411,5.7892658 3.411,6.003 C3.411,6.2167342 3.5842658,6.39 3.798,6.39 L9.516,6.39 C9.7297342,6.39 9.903,6.2167342 9.903,6.003 C9.903,5.7892658 9.7297342,5.616 9.516,5.616 L9.516,5.616 Z M1.944,8.046 L1.65,8.046 C1.4362658,8.046 1.263,8.2192658 1.263,8.433 C1.263,8.6467342 1.4362658,8.82 1.65,8.82 L1.956,8.82 C2.1697342,8.82 2.343,8.6467342 2.343,8.433 C2.343,8.2192658 2.1697342,8.046 1.956,8.046 L1.944,8.046 Z M9.516,8.046 L3.798,8.046 C3.5842658,8.046 3.411,8.2192658 3.411,8.433 C3.411,8.6467342 3.5842658,8.82 3.798,8.82 L9.516,8.82 C9.7297342,8.82 9.903,8.6467342 9.903,8.433 C9.903,8.2192658 9.7297342,8.046 9.516,8.046 L9.516,8.046 Z" id="形状" fill="#5F6269" fill-rule="nonzero"></path>
    </g>
</svg>