<?xml version="1.0" encoding="UTF-8"?>
<svg width="9.2685559px" height="9.52782712px" viewBox="0 0 9.2685559 9.52782712" version="1.1" xmlns="http://www.w3.org/2000/svg" xmlns:xlink="http://www.w3.org/1999/xlink">
    <title>收起</title>
    <g id="收起" stroke="none" stroke-width="1" fill="none" fill-rule="evenodd" fill-opacity="0.6">
        <path d="M4.41918519,0.142312466 C4.61673068,-0.0506393171 4.93329126,-0.0469153812 5.12624305,0.150630109 C5.29775574,0.326226101 5.31387034,0.595858711 5.17659141,0.789125421 L5.1179254,0.857687969 L1.08692825,4.79400022 L5.11511379,8.66741396 C5.29204744,8.83754638 5.31660761,9.10654122 5.18545545,9.30401688 L5.12896785,9.37438501 C4.95883543,9.55131866 4.68984059,9.57587883 4.49236493,9.44472667 L4.4219968,9.38823907 L0.227699945,5.35462305 C-0.0529571934,5.06728415 -0.0735472661,4.62256992 0.162498726,4.31213944 L0.241008175,4.22333047 L4.41918519,0.142312466 Z" id="路径-48" fill="#5F6269" fill-rule="nonzero"></path>
        <path d="M8.41918519,0.142312466 C8.61673068,-0.0506393171 8.93329126,-0.0469153812 9.12624305,0.150630109 C9.29775574,0.326226101 9.31387034,0.595858711 9.17659141,0.789125421 L9.1179254,0.857687969 L5.08692825,4.79400022 L9.11511379,8.66741396 C9.29204744,8.83754638 9.31660761,9.10654122 9.18545545,9.30401688 L9.12896785,9.37438501 C8.95883543,9.55131866 8.68984059,9.57587883 8.49236493,9.44472667 L8.4219968,9.38823907 L4.22769995,5.35462305 C3.94704281,5.06728415 3.92645273,4.62256992 4.16249873,4.31213944 L4.24100817,4.22333047 L8.41918519,0.142312466 Z" id="路径-48" fill="#AFB0B4" fill-rule="nonzero"></path>
    </g>
</svg>