<?xml version="1.0" encoding="UTF-8"?>
<svg width="20px" height="20px" viewBox="0 0 20 20" version="1.1" xmlns="http://www.w3.org/2000/svg" xmlns:xlink="http://www.w3.org/1999/xlink">
    <title>下载</title>
    <g id="下载" stroke="none" stroke-width="1" fill="none" fill-rule="evenodd">
        <rect id="矩形" x="0" y="0" width="20" height="20"></rect>
        <path d="M16.3357143,9.35840709 L16.3017857,9.23451328 C16.3017857,6.3539823 13.7232143,4 10.5678571,4 C7.4125,4 4.83392856,6.3539823 4.83392858,9.23451328 L4.66428571,9.35840709 C2.56071429,9.82300886 1,11.5575221 1,13.6327434 C1,16.0486726 3.1375,18 5.78392857,18 L15.25,18 C17.8964286,18 20,16.0486726 20,13.6327434 C20,11.5575221 18.4392857,9.82300886 16.3357143,9.35840709 Z" id="路径" fill="#5F6269" fill-rule="nonzero"></path>
        <path d="M13.7784762,12.20191 C13.9304762,11.9472487 13.9748095,11.8008186 13.9114762,11.7626194 C13.8481429,11.7244202 13.6898095,11.7053206 13.4364762,11.7053206 C13.2844762,11.7053206 13.0723095,11.7021373 12.7999762,11.6957708 C12.5276429,11.6894043 12.3218095,11.686221 12.1824762,11.686221 C11.9798095,11.686221 11.8499762,11.6034561 11.7929762,11.4379263 C11.7359762,11.2723965 11.7074762,11.0432015 11.7074762,10.7503411 C11.7074762,10.3428831 11.7043095,10.0150068 11.6979762,9.76671214 C11.6916429,9.51841746 11.6884762,9.24783993 11.6884762,8.95497954 C11.6884762,8.62391996 11.6663095,8.38199181 11.6219762,8.22919509 C11.5776429,8.07639836 11.3971429,8 11.0804762,8 C10.8524762,8 10.6814762,8.00318327 10.5674762,8.0095498 C10.4534762,8.01591633 10.2951429,8.01909959 10.0924762,8.01909959 C9.75047619,8.01909959 9.53830952,8.11778081 9.45597619,8.31514325 C9.37364286,8.51250568 9.33247619,8.70668486 9.33247619,8.89768076 L9.33247619,9.50886767 C9.33247619,9.67439745 9.33564286,9.83356071 9.34197619,9.98635744 C9.34830952,10.1391542 9.35147619,10.2983174 9.35147619,10.4638472 L9.35147619,11.0177353 C9.35147619,11.2214643 9.32614286,11.3774443 9.27547619,11.4856753 C9.22480952,11.5939063 9.10447619,11.6480218 8.91447619,11.6480218 C8.83847619,11.6607549 8.73397619,11.6703047 8.60097619,11.6766712 C8.46797619,11.6830377 8.33180952,11.6894043 8.19247619,11.6957708 C8.05314286,11.7021373 7.92014286,11.7053206 7.79347619,11.7053206 L7.48947619,11.7053206 C7.22347619,11.7053206 7.06514286,11.7880855 7.01447619,11.9536153 C6.96380952,12.1191451 7.04614286,12.3292406 7.26147619,12.5839018 C7.47680952,12.851296 7.70797619,13.1409732 7.95497619,13.4529332 C8.20197619,13.7648931 8.44580952,14.0800364 8.68647619,14.3983629 C8.92714286,14.7166894 9.15830952,15.0254661 9.37997619,15.324693 C9.60164286,15.62392 9.80747619,15.8817644 9.99747619,16.0982265 C10.3394762,16.4802183 10.6688095,16.4738518 10.9854762,16.0791269 C11.1754762,15.8626648 11.3971429,15.5825375 11.6504762,15.2387449 C11.9038095,14.8949523 12.1634762,14.5352433 12.4294762,14.159618 C12.6954762,13.7839927 12.9488095,13.4211005 13.1894762,13.0709413 C13.4301429,12.7207822 13.6264762,12.431105 13.7784762,12.20191 L13.7784762,12.20191 Z" id="路径" fill="#FFFFFF" fill-rule="nonzero"></path>
    </g>
</svg>