<?xml version="1.0" encoding="UTF-8"?>
<svg width="14px" height="14px" viewBox="0 0 14 14" version="1.1" xmlns="http://www.w3.org/2000/svg" xmlns:xlink="http://www.w3.org/1999/xlink">
    <title>上传</title>
    <g id="上传" stroke="none" stroke-width="1" fill="none" fill-rule="evenodd">
        <rect id="矩形" fill="#000000" fill-rule="nonzero" opacity="0" x="0" y="0" width="14" height="14"></rect>
        <path d="M6.63157894,1.75 C8.54736841,1.75 10.2421053,2.91874999 10.8315789,4.5 C12.6,4.70625 14,6.15 14,7.93749999 C14,9.72499999 12.5263158,11.16875 10.6842105,11.375 L10.5,11.375 L10.5,10.572 L10.6029412,10.5729167 C12.0441176,10.4392361 13.125,9.30295138 13.125,7.89930555 C13.125,6.42881943 11.8279412,5.22569443 10.2426471,5.22569445 L10.1705882,5.22569445 C9.81029413,3.68836807 8.36911764,2.55208333 6.63970588,2.55208333 C4.62205881,2.55208333 3.03676471,4.02256945 3.03676471,5.89409722 C1.81176471,6.02777777 0.875,7.03038193 0.875,8.23350695 C0.875,9.50347222 2.02794117,10.5729167 3.39705882,10.5729167 L3.5,10.572 L3.5,11.375 L3.31578947,11.375 C1.4736842,11.375 0,9.99999999 0,8.28125 C0,6.90625001 0.957894742,5.7375 2.21052631,5.325 C2.50526316,3.33125001 4.34736841,1.75 6.63157894,1.75 Z" id="形状结合" fill="#5F6269" fill-rule="nonzero"></path>
        <line x1="7" y1="11.5171875" x2="7" y2="7.21793806" id="路径-2" stroke="#5F6269" stroke-width="0.7" transform="translate(7.000000, 9.367563) scale(1, -1) translate(-7.000000, -9.367563) "></line>
        <path d="M7.14142136,10.933088 L8.99191197,12.7835786 C9.07001683,12.8616835 9.07001683,12.9883165 8.99191197,13.0664214 C8.9544047,13.1039286 8.90353391,13.125 8.85049061,13.125 L5.14950939,13.125 C5.03905243,13.125 4.94950938,13.0354569 4.94950938,12.925 C4.94950938,12.8719567 4.97058075,12.8210859 5.00808803,12.7835786 L6.85857864,10.933088 C6.9366835,10.8549832 7.0633165,10.8549832 7.14142136,10.933088 Z" id="三角形" fill="#5F6269" transform="translate(7.000000, 11.958333) scale(1, -1) translate(-7.000000, -11.958333) "></path>
    </g>
</svg>