<?xml version="1.0" encoding="UTF-8"?>
<svg width="14px" height="13.5px" viewBox="0 0 14 13.5" version="1.1" xmlns="http://www.w3.org/2000/svg" xmlns:xlink="http://www.w3.org/1999/xlink">
    <title>枚举</title>
    <g id="枚举" stroke="none" stroke-width="1" fill="none" fill-rule="evenodd">
        <path d="M6.92187077,4.40470054 L9.76097239,5.92783122 C9.87699779,5.99481851 9.97074779,6.09021098 10.0354914,6.20235027 C10.1002351,6.31448956 10.1359724,6.44337567 10.1359724,6.57735027 L10.1359724,6.57735027 L10.1359724,9.42264973 C10.1359724,9.55662433 10.1002351,9.68551044 10.0354914,9.79764973 C9.97074779,9.90978902 9.87699779,10.0051815 9.76097239,10.0721688 L9.76097239,10.0721688 L7.29687077,11.4948185 C7.06481996,11.6287931 6.77892158,11.6287931 6.54687077,11.4948185 L6.54687077,11.4948185 L4.08276916,10.0721688 C3.96674375,10.0051815 3.87299375,9.90978902 3.8082501,9.79764973 C3.74350645,9.68551044 3.70776916,9.55662433 3.70776916,9.42264973 L3.70776916,9.42264973 L3.70776916,6.57735027 C3.70776916,6.30940108 3.85071835,6.06180581 4.08276916,5.92783122 L4.08276916,5.92783122 L6.54687077,4.50518149 C6.66289617,4.43819419 6.79238347,4.40470054 6.92187077,4.40470054 L6.92187077,4.40470054 Z" id="多边形" stroke="#666666" stroke-width="0.5" fill="#EFF0F3"></path>
        <path d="M3.76042256,6.15241035 L6.92187077,8 L10.0556561,6.15241035" id="路径-56" stroke="#666666" stroke-width="0.5"></path>
        <line x1="6.92187077" y1="8" x2="6.90803935" y2="11.6842691" id="路径-60" stroke="#666666" stroke-width="0.5"></line>
        <line x1="3.76042256" y1="9.84213456" x2="2.29686472" y2="11.1902296" id="路径-63" stroke="#666666" stroke-width="0.5"></line>
        <line x1="10.0556561" y1="9.84213456" x2="11.4056104" y2="11.0711229" id="路径-64" stroke="#666666" stroke-width="0.5"></line>
        <line x1="6.90803935" y1="4.30562732" x2="6.92187077" y2="2.82502711" id="路径-65" stroke="#666666" stroke-width="0.5"></line>
        <path d="M6.88631758,0.25 C7.23149555,0.25 7.54399555,0.389911016 7.77020106,0.616116524 C7.99640656,0.842322031 8.13631758,1.15482203 8.13631758,1.5 C8.13631758,1.84517797 7.99640656,2.15767797 7.77020106,2.38388348 C7.54399555,2.61008898 7.23149555,2.75 6.88631758,2.75 C6.54113961,2.75 6.22863961,2.61008898 6.0024341,2.38388348 C5.7762286,2.15767797 5.63631758,1.84517797 5.63631758,1.5 C5.63631758,1.15482203 5.7762286,0.842322031 6.0024341,0.616116524 C6.22863961,0.389911016 6.54113961,0.25 6.88631758,0.25 Z" id="椭圆形" stroke="#666666" stroke-width="0.5" fill="#EFF0F3"></path>
        <path d="M12.5,10.75 C12.845178,10.75 13.157678,10.889911 13.3838835,11.1161165 C13.610089,11.342322 13.75,11.654822 13.75,12 C13.75,12.345178 13.610089,12.657678 13.3838835,12.8838835 C13.157678,13.110089 12.845178,13.25 12.5,13.25 C12.154822,13.25 11.842322,13.110089 11.6161165,12.8838835 C11.389911,12.657678 11.25,12.345178 11.25,12 C11.25,11.654822 11.389911,11.342322 11.6161165,11.1161165 C11.842322,10.889911 12.154822,10.75 12.5,10.75 Z" id="椭圆形" stroke="#666666" stroke-width="0.5" fill="#EFF0F3"></path>
        <path d="M1.5,10.75 C1.84517797,10.75 2.15767797,10.889911 2.38388348,11.1161165 C2.61008898,11.342322 2.75,11.654822 2.75,12 C2.75,12.345178 2.61008898,12.657678 2.38388348,12.8838835 C2.15767797,13.110089 1.84517797,13.25 1.5,13.25 C1.15482203,13.25 0.842322031,13.110089 0.616116524,12.8838835 C0.389911016,12.657678 0.25,12.345178 0.25,12 C0.25,11.654822 0.389911016,11.342322 0.616116524,11.1161165 C0.842322031,10.889911 1.15482203,10.75 1.5,10.75 Z" id="椭圆形" stroke="#666666" stroke-width="0.5" fill="#EFF0F3"></path>
    </g>
</svg>