<?xml version="1.0" encoding="UTF-8"?>
<svg width="10.902353px" height="10.9789287px" viewBox="0 0 10.902353 10.9789287" version="1.1" xmlns="http://www.w3.org/2000/svg" xmlns:xlink="http://www.w3.org/1999/xlink">
    <title>Faas</title>
    <g id="Faas" stroke="none" stroke-width="1" fill="none" fill-rule="evenodd">
        <path d="M5.48946434,-9.59232693e-14 C2.43104849,-9.59232693e-14 -2.57571742e-14,2.43104849 -2.57571742e-14,5.48946434 C0.0784209192,5.7247271 0.156841838,5.88156894 0.392104596,5.88156894 C0.627367353,5.88156894 0.784209192,5.7247271 0.862630111,5.48946434 C0.862630111,2.90157401 2.97999493,0.862630111 5.48946434,0.862630111 C8.07735468,0.862630111 10.1162986,2.97999493 10.1162986,5.48946434 C10.1162986,7.99893376 7.99893376,10.1162986 5.48946434,10.1162986 C5.01893883,10.1162986 4.54841331,10.0378777 4.0778878,9.88103582 C3.76420412,9.8026149 3.52894136,9.64577306 3.21525769,9.48893122 L3.76420412,6.19525262 L6.58735721,6.19525262 C6.82261997,6.19525262 7.05788273,5.95998986 7.05788273,5.7247271 C7.05788273,5.48946434 6.90104089,5.25420159 6.58735721,5.25420159 L3.92104596,5.25420159 L4.23472964,3.60736228 L7.13630365,3.60736228 C7.44998732,3.60736228 7.60682916,3.37209952 7.60682916,3.13683677 C7.60682916,2.82315309 7.3715664,2.66631125 7.13630365,2.66631125 L3.45052044,2.66631125 L2.11736482,9.95945674 C2.58789033,10.3515613 3.21525769,10.5868241 3.76420412,10.7436659 C4.31315055,10.9005078 4.86209699,10.9789287 5.41104342,10.9789287 C8.46945927,10.9789287 10.9005078,8.54788019 10.9005078,5.48946434 C10.9789287,2.43104849 8.54788019,-9.59232693e-14 5.48946434,-9.59232693e-14 Z" fill="#E92E5E" fill-rule="nonzero"></path>
    </g>
</svg>