<?xml version="1.0" encoding="UTF-8"?>
<svg width="12px" height="12px" viewBox="0 0 12 12" version="1.1" xmlns="http://www.w3.org/2000/svg" xmlns:xlink="http://www.w3.org/1999/xlink">
    <title>切片</title>
    <g id="2.0" stroke="none" stroke-width="1" fill="none" fill-rule="evenodd">
        <g id="概览—钩子编辑" transform="translate(-269.000000, -306.000000)">
            <g id="编组-11" transform="translate(243.000000, 117.000000)">
                <g id="文件" transform="translate(26.000000, 189.000000)">
                    <rect id="矩形" fill="#90BAFC" x="0" y="0" width="12" height="12" rx="2"></rect>
                    <g id="编组" transform="translate(3.327008, 2.000000)">
                        <path d="M0.4,1 L3.74470645,1 C3.85118425,1 3.9532678,1.04245324 4.0283462,1.11795658 L5.88363976,2.98375094 C5.95816656,3.05869956 6,3.16009886 6,3.26579436 L6,7.27427454 C6,7.49518844 5.8209139,7.67427454 5.6,7.67427454 L0.4,7.67427454 C0.1790861,7.67427454 -2.84570012e-17,7.49518844 0,7.27427454 L0,1.4 C2.84570012e-17,1.1790861 0.1790861,1 0.4,1 Z" id="矩形" fill="#FFFFFF"></path>
                        <line x1="1.17275598" y1="4.12075631" x2="2.9952116" y2="4.12075631" id="路径-14" stroke="#9DC3FF" stroke-width="0.5" stroke-linecap="round"></line>
                        <line x1="1.17275598" y1="5.92075631" x2="4.14131444" y2="5.92075631" id="路径-14" stroke="#9DC3FF" stroke-width="0.5" stroke-linecap="round"></line>
                    </g>
                </g>
            </g>
        </g>
    </g>
</svg>