<?xml version="1.0" encoding="UTF-8"?>
<svg width="10px" height="10px" viewBox="0 0 10 10" version="1.1" xmlns="http://www.w3.org/2000/svg" xmlns:xlink="http://www.w3.org/1999/xlink">
    <title>切片</title>
    <g id="2.0" stroke="none" stroke-width="1" fill="none" fill-rule="evenodd">
        <g id="身份验证-身份鉴权" transform="translate(-1384.000000, -171.000000)">
            <g id="编组-11" transform="translate(262.000000, 157.000000)">
                <g id="全屏" transform="translate(1122.000000, 14.000000)">
                    <rect id="矩形" transform="translate(5.000000, 5.000000) scale(-1, 1) rotate(180.000000) translate(-5.000000, -5.000000) " x="0" y="0" width="10" height="10"></rect>
                    <path d="M9.7241101,0.243014396 C9.83456705,0.243014396 9.9241101,0.332557447 9.9241101,0.443014399 C9.9241101,0.495882794 9.90317708,0.546600518 9.86588796,0.584078357 L8.45239784,2.0040144 L9.68160482,3.19134202 C9.68158323,3.51694041 9.63281826,3.73022603 9.53530992,3.83119887 C9.43780159,3.9321717 9.22634777,3.98835052 8.90094848,3.99973532 L7.65939784,2.8010144 L6.3461757,4.12160325 C6.26826823,4.199905 6.14163563,4.20022462 6.06333388,4.12231715 C6.02560804,4.08478127 6.00439784,4.03375754 6.00439784,3.98053929 L6.00439784,0.443014399 C6.00439784,0.332557447 6.09394089,0.243014396 6.20439784,0.243014396 L9.7241101,0.243014396 Z" id="形状结合" fill="#333333" transform="translate(7.964254, 2.211777) scale(-1, 1) translate(-7.964254, -2.211777) "></path>
                    <path d="M4.29205845,0.243014396 C4.4025154,0.243014396 4.49205845,0.332557447 4.49205845,0.443014399 C4.49205845,0.495882794 4.47112543,0.546600518 4.43383631,0.584078357 L2.97616664,2.0480144 L4.23644265,3.26516155 C4.23642052,3.59891219 4.18643459,3.817538 4.08648486,3.92103897 C3.98653513,4.02453995 3.76978699,4.08212536 3.43624043,4.0937952 L2.16316664,2.8650144 L0.808944499,4.2273151 C0.731037027,4.30561685 0.604404432,4.30593647 0.526102684,4.228029 C0.488376839,4.19049311 0.467166639,4.13946938 0.467166639,4.08625114 L0.467166639,0.443014399 C0.467166639,0.332557447 0.55670969,0.243014396 0.667166642,0.243014396 L4.29205845,0.243014396 Z" id="形状结合" fill="#333333"></path>
                    <path d="M4.29205845,5.67219176 C4.4025154,5.67219176 4.49205845,5.76173481 4.49205845,5.87219176 C4.49205845,5.92506016 4.47112543,5.97577788 4.43383631,6.01325572 L2.97616664,7.47719176 L4.23644265,8.69433891 C4.23642052,9.02808956 4.18643459,9.24671537 4.08648486,9.35021634 C3.98653513,9.45371731 3.76978699,9.51130272 3.43624043,9.52297257 L2.16316664,8.29419176 L0.808944499,9.65649246 C0.731037027,9.73479421 0.604404432,9.73511383 0.526102684,9.65720636 C0.488376839,9.61967048 0.467166639,9.56864675 0.467166639,9.5154285 L0.467166639,5.87219176 C0.467166639,5.76173481 0.55670969,5.67219176 0.667166642,5.67219176 L4.29205845,5.67219176 Z" id="形状结合" fill="#333333" transform="translate(2.479613, 7.693810) scale(1, -1) translate(-2.479613, -7.693810) "></path>
                    <path d="M9.7241101,5.67219176 C9.83456705,5.67219176 9.9241101,5.76173481 9.9241101,5.87219176 C9.9241101,5.92506016 9.90317708,5.97577788 9.86588796,6.01325572 L8.40821829,7.47719176 L9.6684943,8.69433891 C9.66847217,9.02808956 9.61848624,9.24671537 9.51853651,9.35021634 C9.41858678,9.45371731 9.20183864,9.51130272 8.86829208,9.52297257 L7.59521829,8.29419176 L6.24099615,9.65649246 C6.16308868,9.73479421 6.03645608,9.73511383 5.95815434,9.65720636 C5.92042849,9.61967048 5.89921829,9.56864675 5.89921829,9.5154285 L5.89921829,5.87219176 C5.89921829,5.76173481 5.98876134,5.67219176 6.09921829,5.67219176 L9.7241101,5.67219176 Z" id="形状结合" fill="#333333" transform="translate(7.911664, 7.693810) scale(-1, -1) translate(-7.911664, -7.693810) "></path>
                </g>
            </g>
        </g>
    </g>
</svg>