<?xml version="1.0" encoding="UTF-8"?>
<svg width="10px" height="10px" viewBox="0 0 10 10" version="1.1" xmlns="http://www.w3.org/2000/svg" xmlns:xlink="http://www.w3.org/1999/xlink">
    <title>全屏收起</title>
    <g id="2.0" stroke="none" stroke-width="1" fill="none" fill-rule="evenodd">
        <g id="切图" transform="translate(-95.000000, -93.000000)">
            <g id="编组" transform="translate(95.000000, 93.000000)">
                <rect id="矩形" stroke="#333333" stroke-width="0.5" x="0.25" y="0.25" width="9.5" height="9.5" rx="0.5"></rect>
                <path d="M1.86964381,5.42036385 L4.52551675,5.84798863 C4.63456917,5.86554727 4.70873954,5.96818582 4.6911809,6.07723825 C4.68424949,6.12028754 4.66343921,6.15989218 4.631919,6.19002126 L3.67683245,7.10182074 L4.60989257,8.03546081 C4.68665702,8.29089895 4.67416883,8.46948844 4.57242798,8.57122929 C4.47068714,8.67297014 4.28373667,8.69945312 4.01157658,8.65067825 L3.05583245,7.69482074 L2.28371328,8.43459047 C2.2038663,8.51091345 2.07726553,8.50805669 2.00094255,8.42820971 C1.97081883,8.39669512 1.95181744,8.35620075 1.9468309,8.31289091 L1.63916368,5.64069692 C1.62652952,5.5309649 1.70524288,5.43176751 1.8149749,5.41913334 C1.83316826,5.41703862 1.85156312,5.41745266 1.86964381,5.42036385 Z" id="形状结合" fill="#333333" transform="translate(3.165793, 7.046104) scale(-1, -1) rotate(-93.000000) translate(-3.165793, -7.046104) "></path>
                <path d="M5.64350366,1.4108507 L8.29937659,1.83847548 C8.40842902,1.85603412 8.48259939,1.95867268 8.46504075,2.06772511 C8.45810934,2.11077439 8.43729906,2.15037903 8.40577885,2.18050812 L7.5086923,3.03730759 L8.50049606,4.02891305 C8.57726052,4.28435119 8.56477233,4.46294068 8.46303148,4.56468153 C8.36129064,4.66642237 8.17434017,4.69290536 7.90218008,4.64413049 L6.8886923,3.63030759 L6.05757313,4.42507732 C5.97772615,4.50140031 5.85112538,4.49854355 5.7748024,4.41869657 C5.74467868,4.38718197 5.72567729,4.3466876 5.72069074,4.30337776 L5.41302353,1.63118378 C5.40038936,1.52145176 5.47910272,1.42225437 5.58883474,1.4096202 C5.60702811,1.40752548 5.62542297,1.40793951 5.64350366,1.4108507 Z" id="形状结合" fill="#333333" transform="translate(6.980853, 3.038073) rotate(-93.000000) translate(-6.980853, -3.038073) "></path>
            </g>
        </g>
    </g>
</svg>