<?xml version="1.0" encoding="utf-8"?>
<!-- Generator: Adobe Illustrator 25.3.1, SVG Export Plug-In . SVG Version: 6.00 Build 0)  -->
<svg version="1.1" id="图层_1" xmlns="http://www.w3.org/2000/svg" xmlns:xlink="http://www.w3.org/1999/xlink" x="0px" y="0px"
	 viewBox="0 0 29.5 29.5" style="enable-background:new 0 0 29.5 29.5;" xml:space="preserve">
<style type="text/css">
	.st0{display:none;fill-rule:evenodd;clip-rule:evenodd;fill:#16D0FF;fill-opacity:0.149;stroke:#3699FF;stroke-dasharray:4,2;}
	.st1{display:none;fill-rule:evenodd;clip-rule:evenodd;fill:#5F6269;}
	.st2{fill:#626262;}
	.st3{fill-rule:evenodd;clip-rule:evenodd;fill:#C3C7CF;}
	.st4{fill-rule:evenodd;clip-rule:evenodd;fill:#626262;}
</style>
<path class="st0" d="M1.5,1.5h26v26h-26V1.5z"/>
<path class="st1" d="M22.3,12.3V17c0.6,0.1,1,0.5,1.2,1.3c0.2,0.2,0.2,1.6-0.1,1.3c-0.3,0.9-0.8,0.8-0.9,0.9c-1.1,0.1-1.6-0.2-2-0.6
	l-4.2,2.3c0.2,0.7,0,1.4-0.5,2.6c-0.5-0.3-1.3-0.2-2-0.5c-0.7,0-1.1-0.9-1.1-1.6c0-0.2,0-0.3,0.1-0.5l-4.2-2.3
	c-0.5,0.5-1.4,0.7-2.1,0.4c-0.7-0.3-1.1-1-1.1-1.8c0.1-0.7,0.6-1.4,1.4-1.5l0-4.7c-0.6-0.1-1-0.5-1.2-1c-0.2-0.5-0.2-1.1,0.1-1.6
	C6.3,9.3,6.5,9,7.1,8.9c0.6-0.1,1.1,0.5,1.5,0.5l4.2-2.3c-0.2-0.5-0.1-1,0.3-1.5c0.3-0.4,1.1-0.7,1.5-0.7c0.6,0,1.1,0.3,2,0.7
	c-0.2,0.6-0.1,1-0.3,1.5l4.2,2.3c0.4,0,1-0.6,2.3-0.5c-0.2,0.1,0.3,0.4,0.6,0.9c0.3,0.5,0.3,1.1,0.1,1.6
	C23.3,11.8,22.9,12.2,22.3,12.3z M21.4,12.3c-0.5-0.1-0.9-0.4-1.1-0.8c0.3-0.4-0.3-0.9-0.2-1.3l0-0.1l-4.2-2.3c0,0,0,0-0.1,0
	l0.4,0.6h-1l-0.1-0.2c-0.3,0.1-0.7,0.1-0.2,0l-1,0.2h-1l0.4-0.6l0,0l-0.1,0l-3.5,2.3c-0.6,0.4-0.6,1.7-0.9,1.3
	c-0.2,0.4-0.6,0.7-1.1,0.8l-0.1,0V17l0.1,0.2l0.8-1.4l1.1,0.9l-1.1,0.8c0.2,0.2,0.6,0.5,0.5,0.8h1.2l0.8,0.8h-2l0.7,0.1l3.5,2.3
	c0.3-0.3,0.8-0.5,1.3-0.5c0.5,0,1,0.2,1.3,0.6l4.2-2.3c0,0,0-0.1,0-0.1h-1.2l0.8-0.8H21c-0.8-0.3-0.6-0.6-0.4-0.9l-0.1-0.2v-1.7
	l0.9,1.6c0,0.6,0,0.1,0.1-0.2V12.3z M11.1,11.5l1.4-2.3v0.2L11.1,11.5z"/>
<path class="st2" d="M16.4,7.1l4.1,2.4C20.9,9.1,21.4,8.9,22,9C22.5,9,23,9.4,23.3,9.8c0.3,0.5,0.3,1.1,0.1,1.6
	c-0.2,0.5-0.7,0.9-1.2,1v4.7c0.5,0.1,1,0.5,1.2,1c0.2,0.5,0.2,1.1-0.1,1.6c-0.3,0.5-0.8,0.8-1.4,0.9c-0.6,0.1-1.1-0.2-1.5-0.6
	l-4.1,2.4c0.2,0.7,0,1.4-0.5,1.9c-0.5,0.5-1.3,0.6-1.9,0.3c-0.6-0.3-1.1-0.9-1.1-1.6c0-0.2,0-0.3,0.1-0.5l-4.1-2.4
	c-0.5,0.5-1.3,0.7-2,0.4c-0.7-0.3-1.1-1-1-1.8c0.1-0.8,0.6-1.4,1.3-1.6l0-4.7c-0.5-0.1-1-0.5-1.2-1C5.7,10.9,5.8,10.3,6,9.8
	C6.3,9.4,6.8,9,7.4,9c0.6-0.1,1.1,0.1,1.5,0.5L13,7.1c-0.2-0.5-0.1-1.1,0.3-1.6c0.3-0.4,0.9-0.7,1.4-0.7c0.6,0,1.1,0.3,1.4,0.7
	C16.4,6,16.5,6.6,16.4,7.1L16.4,7.1z M15.9,7.9C15.9,7.9,15.9,7.9,15.9,7.9l5.3,9.3c0,0,0,0,0.1,0v-4.7c-0.5-0.1-0.9-0.4-1.1-0.8
	c-0.2-0.4-0.3-0.9-0.2-1.3l0-0.1L15.9,7.9z M13.4,7.9L13.4,7.9l-4.2,2.3c0.1,0.5,0.1,0.9-0.2,1.4c-0.2,0.4-0.6,0.7-1.1,0.8l-0.1,0
	v4.7l0.1,0L13.4,7.9L13.4,7.9z M15.2,8.3c-0.3,0.1-0.7,0.1-1,0l-5.4,9.3c0.2,0.2,0.4,0.5,0.5,0.9H20c0.1-0.3,0.3-0.6,0.5-0.9
	L15.2,8.3z M16,21.8l4.1-2.4c0,0,0-0.1,0-0.1H9.3l0,0.1l4.1,2.4c0.3-0.3,0.8-0.5,1.3-0.5C15.2,21.2,15.7,21.5,16,21.8L16,21.8z
	 M16,21.8"/>
<path class="st3" d="M15.5,6.9C15,6.9,14.5,7,14,7c-0.3,0-0.8,1.3-1,1.5l-4.9,8.3C8,17.2,8,17.6,8.2,17.8c0.3,0.4,0.8,0.9,1,1.2
	c0.1,0.2-0.5,0.3-0.2,0.3h10.9c0.3,0,0.6-0.2,0.7-0.5c0.1-0.4,0.3-0.8,0.5-1.1c0.1-0.2,0.1-0.5,0-0.8l-4.8-8.4
	C16.1,8.3,15.8,6.9,15.5,6.9z"/>
<circle class="st4" cx="14.6" cy="6.7" r="1.9"/>
<circle class="st4" cx="21.7" cy="18.9" r="1.9"/>
<circle class="st4" cx="7.7" cy="18.9" r="1.9"/>
<circle class="st4" cx="7.7" cy="18.9" r="1.9"/>
<g id="图层_2">
	<circle class="st4" cx="14.6" cy="22.9" r="1.9"/>
</g>
</svg>
