<?xml version="1.0" encoding="UTF-8"?>
<svg width="12px" height="13.6px" viewBox="0 0 12 13.6" version="1.1" xmlns="http://www.w3.org/2000/svg" xmlns:xlink="http://www.w3.org/1999/xlink">
    <title>Graphal API</title>
    <g id="Graphal-API" stroke="none" stroke-width="1" fill="none" fill-rule="evenodd">
        <path d="M6,4.79616347e-14 C6.6627417,4.79616347e-14 7.2,0.5372583 7.2,1.2 C7.2,1.23395193 7.19858999,1.26757454 7.19582532,1.30081245 L10.2467457,3.33486911 C10.4122963,3.24870258 10.6004606,3.2 10.8,3.2 C11.4627417,3.2 12,3.7372583 12,4.4 C12,4.89966843 11.6946075,5.32800863 11.2602932,5.50854983 L11.381241,8.14991121 C11.7502415,8.35459554 12,8.74813066 12,9.2 C12,9.8627417 11.4627417,10.4 10.8,10.4 C10.6263489,10.4 10.4613128,10.363115 10.3122989,10.2967524 L7.17681474,12.1640714 C7.19202326,12.2403546 7.2,12.3192458 7.2,12.4 C7.2,13.0627417 6.6627417,13.6 6,13.6 C5.3372583,13.6 4.8,13.0627417 4.8,12.4 C4.8,12.3296881 4.80604717,12.2607886 4.81764979,12.1937932 L1.54308502,10.3502387 C1.43438218,10.3826138 1.31922147,10.4 1.2,10.4 C0.5372583,10.4 4.70734562e-14,9.8627417 4.70734562e-14,9.2 C4.70734562e-14,8.67756848 0.333851462,8.23311215 0.799850115,8.06833527 L0.799850115,5.53166473 C0.333851462,5.36688785 4.70734562e-14,4.92243152 4.70734562e-14,4.4 C4.70734562e-14,3.7372583 0.5372583,3.2 1.2,3.2 C1.30265293,3.2 1.40229534,3.21288953 1.49739707,3.23713843 L4.802,1.241 L4.8,1.2 C4.8,0.578679656 5.27219968,0.0676474571 5.87730697,0.00619546472 Z M9.549,9.817 L2.229,9.817 L5.21187551,11.4950681 C5.39375437,11.3365328 5.6238738,11.231933 5.87730697,11.2061955 L6,11.2 C6.29092411,11.2 6.55766818,11.3035271 6.76540119,11.4757502 L9.549,9.817 Z M6.27428453,2.36850961 C6.1861931,2.38910694 6.09436866,2.4 6,2.4 C5.91643692,2.4 5.83486876,2.39145871 5.75612093,2.37520154 L2.29675237,8.71229892 C2.36311503,8.86131281 2.4,9.02634893 2.4,9.2 L2.395,9.116 L9.60290436,9.11585458 C9.61895743,8.88410421 9.70081326,8.67046813 9.82991866,8.49349958 Z M5.10043238,1.99423694 L2.20411757,3.74267581 C2.32796745,3.93148296 2.4,4.15732943 2.4,4.4 C2.4,4.92205835 2.0666253,5.36625288 1.60114825,5.53131121 L1.60114825,8.06868879 C1.67044502,8.09326145 1.73681399,8.12402062 1.79959108,8.1603022 L5.14194531,2.03889409 C5.12773658,2.02436288 5.11389397,2.00947219 5.10043238,1.99423694 Z M6.91,2.071 L10.3928701,8.07082788 C10.4506417,8.04999445 10.5104716,8.03346854 10.5719721,8.0216378 L10.4608587,5.55140582 C9.9632665,5.40507651 9.6,4.94496097 9.6,4.4 C9.6,4.23272145 9.63422749,4.07343715 9.69606111,3.92876848 L6.91,2.071 Z" fill="#1342DC" fill-rule="nonzero"></path>
    </g>
</svg>