<?xml version="1.0" encoding="UTF-8"?>
<svg width="34px" height="34px" viewBox="0 0 34 34" version="1.1" xmlns="http://www.w3.org/2000/svg" xmlns:xlink="http://www.w3.org/1999/xlink">
    <title>QL-选中</title>
    <defs>
        <linearGradient x1="50%" y1="0%" x2="50%" y2="100%" id="linearGradient-1">
            <stop stop-color="#B0B4BF" offset="0%"></stop>
            <stop stop-color="#787D8B" offset="100%"></stop>
        </linearGradient>
        <rect id="path-2" x="0" y="0" width="26" height="26" rx="6"></rect>
        <filter x="-26.9%" y="-19.2%" width="153.8%" height="153.8%" filterUnits="objectBoundingBox" id="filter-3">
            <feOffset dx="0" dy="2" in="SourceAlpha" result="shadowOffsetOuter1"></feOffset>
            <feGaussianBlur stdDeviation="2" in="shadowOffsetOuter1" result="shadowBlurOuter1"></feGaussianBlur>
            <feComposite in="shadowBlurOuter1" in2="SourceAlpha" operator="out" result="shadowBlurOuter1"></feComposite>
            <feColorMatrix values="0 0 0 0 0.593658482   0 0 0 0 0.621895856   0 0 0 0 0.687783062  0 0 0 0.340854458 0" type="matrix" in="shadowBlurOuter1"></feColorMatrix>
        </filter>
        <linearGradient x1="50%" y1="100%" x2="50%" y2="4.99600361e-14%" id="linearGradient-4">
            <stop stop-color="#FF9378" offset="0%"></stop>
            <stop stop-color="#E13D5B" offset="100%"></stop>
        </linearGradient>
        <linearGradient x1="27.1139006%" y1="89.9781101%" x2="82.45383%" y2="2.04651442e-13%" id="linearGradient-5">
            <stop stop-color="#E98C75" offset="0%"></stop>
            <stop stop-color="#E13D5B" offset="100%"></stop>
        </linearGradient>
        <linearGradient x1="100%" y1="0%" x2="0%" y2="0%" id="linearGradient-6">
            <stop stop-color="#B0A5A6" stop-opacity="0" offset="0%"></stop>
            <stop stop-color="#94888A" offset="50.3107779%"></stop>
            <stop stop-color="#786C6D" stop-opacity="0" offset="100%"></stop>
        </linearGradient>
    </defs>
    <g id="1" stroke="none" stroke-width="1" fill="none" fill-rule="evenodd">
        <g id="切图" transform="translate(-77.000000, -300.000000)" fill-rule="nonzero">
            <g id="编组" transform="translate(81.000000, 302.000000)">
                <g id="Rectangle">
                    <use fill="black" fill-opacity="1" filter="url(#filter-3)" xlink:href="#path-2"></use>
                    <rect stroke="url(#linearGradient-1)" stroke-width="0.5" stroke-linejoin="square" fill="#FFFFFF" fill-rule="evenodd" x="0.25" y="0.25" width="25.5" height="25.5" rx="6"></rect>
                </g>
                <g transform="translate(6.000000, 5.000000)">
                    <path d="M14.368463,12.3341703 L7.4866728,0.481238303 L1.01339915,12.3341703 L14.368463,12.3341703 Z M7.512,2.518 L12.631,11.334 L2.698,11.334 L7.512,2.518 Z" id="路径-9" fill="url(#linearGradient-4)"></path>
                    <path d="M7.5,0 C8.32842712,0 9,0.671572875 9,1.5 C9,1.58052713 8.99365446,1.65957217 8.98143612,1.73666238 L12.7109428,4.22406529 C12.940164,4.0820101 13.2105048,4 13.5,4 C14.3284271,4 15,4.67157288 15,5.5 C15,6.16140253 14.5719286,6.72282362 13.9777274,6.92232166 L14.1238475,10.1354822 C14.6408488,10.3722365 15,10.8941761 15,11.5 C15,12.3284271 14.3284271,13 13.5,13 C13.2406519,13 12.9966767,12.9341811 12.7838669,12.818336 L8.94705124,15.1035479 C8.98157044,15.2298342 9,15.3627649 9,15.5 C9,16.3284271 8.32842712,17 7.5,17 C6.67157288,17 6,16.3284271 6,15.5 C6,15.3760226 6.01504076,15.2555581 6.04339709,15.1403318 L2.05508876,12.8939425 C1.88339865,12.962372 1.69609357,13 1.5,13 C0.671572875,13 0,12.3284271 0,11.5 C0,10.8098829 0.466047361,10.2286171 1.10058161,10.0537629 L1.10058161,6.94623712 C0.466047361,6.77138293 0,6.19011706 0,5.5 C0,4.67157288 0.671572875,4 1.5,4 C1.67520843,4 1.84340073,4.03003963 1.99970754,4.08524952 L6.00893332,1.66465073 C6.00302976,1.61057877 6,1.55564321 6,1.5 C6,0.671572875 6.67157288,0 7.5,0 Z M6.31121507,2.41488384 L2.69799912,4.59719672 C2.88758244,4.84837341 3,5.16105844 3,5.5 C3,6.19011706 2.53395264,6.77138293 1.89941839,6.94623712 L1.89941839,10.0537629 C2.53395264,10.2286171 3,10.8098829 3,11.5 C3,11.8184919 2.90073837,12.1138001 2.73146351,12.356676 L6.43734576,14.4413376 C6.70894844,14.1687172 7.08477121,14 7.5,14 C7.9015232,14 8.26619881,14.1577632 8.53542129,14.4146841 L12.1923155,12.2353626 C12.0698618,12.0180721 12,11.7671946 12,11.5 C12,10.7341283 12.5739798,10.1023167 13.3152385,10.0112661 L13.1774751,6.96524097 C12.5040567,6.81768607 12,6.21770741 12,5.5 C12,5.25510604 12.0586868,5.02391912 12.1627639,4.81973587 L8.64197317,2.47261762 C8.36684314,2.79534222 7.95732176,3 7.5,3 C7.0159699,3 6.58548646,2.77073948 6.31121507,2.41488384 Z" id="形状结合" fill="url(#linearGradient-5)"></path>
                </g>
                <line x1="3.2" y1="25.65" x2="22.45" y2="25.65" id="Path-2" stroke="url(#linearGradient-6)" stroke-width="0.5"></line>
            </g>
        </g>
    </g>
</svg>