<?xml version="1.0" encoding="utf-8"?>
<!-- Generator: Adobe Illustrator 25.3.1, SVG Export Plug-In . SVG Version: 6.00 Build 0)  -->
<svg version="1.1" id="图层_1" xmlns="http://www.w3.org/2000/svg" xmlns:xlink="http://www.w3.org/1999/xlink" x="0px" y="0px"
	 viewBox="0 0 29.5 29.5" style="enable-background:new 0 0 29.5 29.5;" xml:space="preserve">
<style type="text/css">
	.st0{display:none;fill-rule:evenodd;clip-rule:evenodd;fill:#16D0FF;fill-opacity:0.149;stroke:#3699FF;stroke-dasharray:4,2;}
	.st1{display:none;fill-rule:evenodd;clip-rule:evenodd;fill:#FF5E5E;}
	.st2{display:none;fill-rule:evenodd;clip-rule:evenodd;fill:#FFC9C9;}
	.st3{fill:#FF5E5E;}
	.st4{fill-rule:evenodd;clip-rule:evenodd;fill:#FFC9C9;}
	.st5{fill-rule:evenodd;clip-rule:evenodd;fill:#FF5E5E;}
	.st6{fill-rule:evenodd;clip-rule:evenodd;fill:#626262;}
</style>
<path class="st0" d="M1.5,1.5h26v26h-26V1.5z"/>
<path class="st1" d="M22.3,12.3V17c0.6,0.1,1,0.5,1.2,1.3c0.2,0.2,0.2,1.6-0.1,1.3c-0.3,0.9-0.8,0.8-0.9,0.9c-1.1,0.1-1.6-0.2-2-0.6
	l-4.2,2.3c0.2,0.7,0,1.4-0.5,2.6c-0.5-0.3-1.3-0.2-2-0.5c-0.7,0-1.1-0.9-1.1-1.6c0-0.2,0-0.3,0.1-0.5l-4.2-2.3
	c-0.5,0.5-1.4,0.7-2.1,0.4c-0.7-0.3-1.1-1-1.1-1.8c0.1-0.7,0.6-1.4,1.4-1.5l0-4.7c-0.6-0.1-1-0.5-1.2-1c-0.2-0.5-0.2-1.1,0.1-1.6
	C6.4,9.3,6.5,9,7.1,8.9c0.6-0.1,1.1,0.5,1.5,0.5l4.2-2.3c-0.2-0.5-0.1-1,0.3-1.5c0.3-0.4,1.1-0.7,1.5-0.7c0.6,0,1.1,0.3,2,0.7
	c-0.2,0.6-0.1,1-0.3,1.5l4.2,2.3c0.4,0,1-0.6,2.3-0.5c-0.2,0.1,0.3,0.4,0.6,0.9c0.3,0.5,0.3,1.1,0.1,1.6
	C23.3,11.8,22.9,12.2,22.3,12.3z M21.4,12.3c-0.5-0.1-0.9-0.4-1.1-0.8c0.3-0.4-0.3-0.9-0.2-1.3l0-0.1l-4.2-2.3c0,0,0,0-0.1,0
	l0.4,0.6h-1l-0.1-0.2c-0.3,0.1-0.7,0.1-0.2,0l-1,0.2h-1l0.4-0.6l0,0l-0.1,0l-3.5,2.3c-0.6,0.4-0.6,1.7-0.9,1.3
	c-0.2,0.4-0.6,0.7-1.1,0.8l-0.1,0V17l0.1,0.2l0.8-1.4l1.1,0.9l-1.1,0.8c0.2,0.2,0.6,0.5,0.5,0.8h1.2l0.8,0.8h-2l0.7,0.1l3.5,2.3
	c0.3-0.3,0.8-0.5,1.3-0.5c0.5,0,1,0.2,1.3,0.6l4.2-2.3c0,0,0-0.1,0-0.1h-1.2l0.8-0.8H21c-0.8-0.3-0.6-0.6-0.4-0.9l-0.1-0.2v-1.7
	l0.9,1.6c0,0.6,0,0.1,0.1-0.2V12.3z M11.1,11.5l1.4-2.3v0.2L11.1,11.5z"/>
<path class="st2" d="M15.4,8.4c0.3,0.1-0.7,0.1-1,0l-5.4,9c0.2,0.2,0.4,0.5,0.5,0.8h10.9c0.1-0.3,0.3-0.6,0.5-0.8L15.4,8.4z"/>
<path class="st3" d="M16.3,7l4.1,2.4c0.4-0.4,0.9-0.6,1.5-0.5c0.6,0.1,1.1,0.4,1.3,0.9c0.3,0.5,0.3,1.1,0.1,1.6
	c-0.2,0.5-0.7,0.9-1.2,1v4.7c0.5,0.1,1,0.5,1.2,1c0.2,0.5,0.2,1.1-0.1,1.6c-0.3,0.5-0.8,0.8-1.4,0.9c-0.6,0.1-1.1-0.2-1.5-0.6
	l-4.1,2.4c0.2,0.7,0,1.4-0.5,1.9c-0.5,0.5-1.3,0.6-1.9,0.3c-0.6-0.3-1.1-0.9-1.1-1.6c0-0.2,0-0.3,0.1-0.5L8.8,20
	c-0.5,0.5-1.3,0.7-2,0.4c-0.7-0.3-1.1-1-1-1.8c0.1-0.8,0.6-1.4,1.3-1.6l0-4.7c-0.5-0.1-1-0.5-1.2-1C5.6,10.8,5.7,10.2,6,9.7
	c0.3-0.5,0.8-0.8,1.3-0.9C7.8,8.8,8.4,9,8.8,9.4L12.9,7c-0.2-0.5-0.1-1.1,0.3-1.6C13.5,5,14,4.7,14.6,4.7c0.6,0,1.1,0.3,1.4,0.7
	C16.4,5.9,16.5,6.5,16.3,7L16.3,7z M15.9,7.7C15.9,7.7,15.8,7.8,15.9,7.7l5.3,9.3c0,0,0,0,0.1,0v-4.7c-0.5-0.1-0.9-0.4-1.1-0.8
	c-0.2-0.4-0.3-0.9-0.2-1.3l0-0.1L15.9,7.7z M13.4,7.8L13.4,7.8l-4.2,2.3c0.1,0.5,0.1,0.9-0.2,1.4c-0.2,0.4-0.6,0.7-1.1,0.8l-0.1,0
	v4.7l0.1,0L13.4,7.8L13.4,7.8z M15.1,8.2c-0.3,0.1-0.7,0.1-1,0l-5.4,9.3C9,17.7,9.2,18,9.2,18.4H20c0.1-0.3,0.3-0.6,0.5-0.9
	L15.1,8.2z M15.9,21.7l4.1-2.4c0,0,0-0.1,0-0.1H9.2l0,0.1l4.1,2.4c0.3-0.3,0.8-0.5,1.3-0.5C15.1,21.1,15.6,21.3,15.9,21.7L15.9,21.7
	z M15.9,21.7"/>
<path class="st4" d="M15.4,6.7c-0.5,0-1,0.2-1.4,0.1c-0.3,0-0.8,1.3-1,1.5l-4.9,8.3c-0.2,0.3-0.1,0.7,0.1,0.9c0.3,0.4,0.8,0.9,1,1.2
	c0.1,0.2-0.5,0.3-0.2,0.3h10.9c0.3,0,0.6-0.2,0.7-0.5c0.1-0.4,0.3-0.8,0.5-1.1c0.1-0.2,0.1-0.5,0-0.8l-4.8-8.4
	C16.1,8.2,15.7,6.7,15.4,6.7z"/>
<circle class="st5" cx="14.5" cy="6.6" r="1.9"/>
<circle class="st5" cx="21.6" cy="18.7" r="1.9"/>
<circle class="st6" cx="7.6" cy="18.7" r="1.9"/>
<circle class="st5" cx="7.6" cy="18.7" r="1.9"/>
<circle class="st5" cx="14.5" cy="22.8" r="1.9"/>
</svg>
