<?xml version="1.0" encoding="UTF-8"?>
<svg width="12px" height="12px" viewBox="0 0 12 12" version="1.1" xmlns="http://www.w3.org/2000/svg" xmlns:xlink="http://www.w3.org/1999/xlink">
    <title>帮助</title>
    <g id="2.0" stroke="none" stroke-width="1" fill="none" fill-rule="evenodd">
        <g id="身份验证-身份鉴权" transform="translate(-334.000000, -171.000000)" fill-rule="nonzero">
            <g id="编组-11" transform="translate(262.000000, 157.000000)">
                <g id="帮助" transform="translate(72.000000, 14.000000)">
                    <rect id="矩形" fill="#000000" opacity="0" x="0" y="0" width="12" height="12"></rect>
                    <path d="M6,0.75 C8.8993125,0.75 11.25,3.1006875 11.25,6 C11.25,8.8993125 8.8993125,11.25 6,11.25 C3.1006875,11.25 0.75,8.8993125 0.75,6 C0.75,3.1006875 3.1006875,0.75 6,0.75 Z M6,1.625 C3.5836875,1.625 1.625,3.5836875 1.625,6 C1.625,8.4163125 3.5836875,10.375 6,10.375 C8.4163125,10.375 10.375,8.4163125 10.375,6 C10.375,3.5836875 8.4163125,1.625 6,1.625 Z M5.943125,8.24875 C6.126875,8.24875 6.284375,8.30124999 6.406875,8.42375 C6.529375,8.53749999 6.590625,8.68625 6.590625,8.87 C6.590625,9.05375001 6.529375,9.2025 6.406875,9.325 C6.275625,9.43875 6.118125,9.5 5.943125,9.5 C5.759375,9.5 5.61062499,9.43875 5.496875,9.31625 C5.365625,9.19374999 5.304375,9.045 5.304375,8.87 C5.304375,8.68625 5.365625,8.53749999 5.496875,8.42375 C5.61062499,8.30125 5.759375,8.24875 5.943125,8.24875 Z M6.091875,3.13 C6.66062499,3.13 7.115625,3.27875 7.465625,3.59375 C7.806875,3.9 7.981875,4.32 7.981875,4.845 C7.981875,5.27375001 7.868125,5.6325 7.658125,5.9125 C7.57937499,6.00875001 7.334375,6.23625 6.914375,6.595 C6.75687501,6.735 6.634375,6.88375 6.555625,7.04125 C6.459375,7.21625 6.415625,7.40875 6.415625,7.6275 L6.415625,7.6275 L6.415625,7.77625 L5.479375,7.77625 L5.479375,7.6275 C5.479375,7.30374999 5.531875,7.02375 5.645625,6.79625 C5.768125,6.55125 6.100625,6.1925 6.643125,5.71125 L6.643125,5.71125 L6.791875,5.545 C6.949375,5.34375 7.028125,5.13375 7.028125,4.90625 C7.028125,4.6 6.940625,4.36375 6.774375,4.18875 C6.599375,4.01375 6.354375,3.92625 6.039375,3.92625 C5.645625,3.92625 5.356875,4.04875 5.181875,4.29375 C5.024375,4.50375 4.945625,4.80999999 4.945625,5.195 L4.945625,5.195 L4.018125,5.195 C4.018125,4.55625 4.201875,4.0575 4.578125,3.69 C4.945625,3.31375 5.453125,3.13 6.091875,3.13 Z" id="形状结合" fill="#787D8B"></path>
                </g>
            </g>
        </g>
    </g>
</svg>