<?xml version="1.0" encoding="utf-8"?>
<!-- Generator: Adobe Illustrator 25.3.1, SVG Export Plug-In . SVG Version: 6.00 Build 0)  -->
<svg version="1.1" id="图层_1" xmlns="http://www.w3.org/2000/svg" xmlns:xlink="http://www.w3.org/1999/xlink" x="0px" y="0px"
	 viewBox="0 0 29.5 29.5" style="enable-background:new 0 0 29.5 29.5;" xml:space="preserve">
<style type="text/css">
	.st0{display:none;fill-rule:evenodd;clip-rule:evenodd;fill:#16D0FF;fill-opacity:0.149;stroke:#3699FF;stroke-dasharray:4,2;}
	.st1{fill-rule:evenodd;clip-rule:evenodd;fill:#FF5E5E;}
	.st2{fill:#FFFFFF;}
</style>
<path class="st0" d="M1.5,1.5h26v26h-26V1.5z"/>
<path class="st1" d="M19.4,6.5H9.6c-2.3,0-4.1,1.8-4.1,4v6.4c0,3,1.7,3.7,4,3.7h2l3,3l3-3h2c2.3,0,4-0.7,4-3.7v-6.4
	C23.5,8.3,21.7,6.5,19.4,6.5L19.4,6.5z"/>
<g>
	<path class="st2" d="M15,16h-1.3c0-0.1,0-0.3,0-0.5c0-0.9,0.4-1.6,1.2-2.2c0.9-0.6,1.3-1.2,1.3-1.9c-0.1-0.9-0.6-1.3-1.5-1.4
		c-1.1,0-1.8,0.6-2.1,1.9l-1.4-0.3c0.4-1.9,1.6-2.8,3.6-2.7c1.7,0.1,2.7,0.9,2.9,2.4c0.1,1-0.5,1.9-1.7,2.6c-0.7,0.5-1.1,1-1,1.7
		C15,15.8,15,15.9,15,16z M15.2,18.6h-1.5v-1.5h1.5V18.6z"/>
</g>
</svg>
