<?xml version="1.0" encoding="utf-8"?>
<!-- Generator: Adobe Illustrator 25.3.1, SVG Export Plug-In . SVG Version: 6.00 Build 0)  -->
<svg version="1.1" id="图层_1" xmlns="http://www.w3.org/2000/svg" xmlns:xlink="http://www.w3.org/1999/xlink" x="0px" y="0px"
	 viewBox="0 0 29.5 29.5" style="enable-background:new 0 0 29.5 29.5;" xml:space="preserve">
<style type="text/css">
	.st0{display:none;fill-rule:evenodd;clip-rule:evenodd;fill:#16D0FF;fill-opacity:0.149;stroke:#3699FF;stroke-dasharray:4,2;}
	.st1{fill-rule:evenodd;clip-rule:evenodd;fill:#FF5E5E;}
	.st2{fill-rule:evenodd;clip-rule:evenodd;fill:#FFC9C9;}
</style>
<path class="st0" d="M1.5,1.5h26v26h-26V1.5z"/>
<path class="st1" d="M20,23.5h-2.2c0,0-1.2,0-1.2-1.4v-2.2c0,0,0-1.4-1.4-1.4h-0.6h-0.3h-0.6c-1.4,0-1.4,1.4-1.4,1.4v2.2
	c0,1.4-1.2,1.4-1.2,1.4H9.5c-2.7-0.1-3-2.9-3-2.9v-7.2c0-1.2,1.1-1.8,1.1-1.8l6.2-4.7c1.1-0.3,0.7-0.4,0.7-0.4s0.4,0,0.7,0.4
	l6.2,4.7c0,0,1.1,0.7,1.1,1.8v7.2C22.5,20.6,22.2,23.4,20,23.5z"/>
<path class="st2" d="M13.5,16.5h2c1.1,0,2,0.9,2,2v5h-6v-5C11.5,17.4,12.4,16.5,13.5,16.5z"/>
</svg>
