<?xml version="1.0" encoding="UTF-8"?>
<svg width="130px" height="114px" viewBox="0 0 130 114" version="1.1" xmlns="http://www.w3.org/2000/svg" xmlns:xlink="http://www.w3.org/1999/xlink">
    <title>二进制预览</title>
    <defs>
        <path d="M7.35,3.13761468 L122.65,3.13761468 C126.709293,3.13761468 130,6.42832177 130,10.4876147 L130,106.65 C130,110.709293 126.709293,114 122.65,114 L7.35,114 C3.29070709,114 -3.91058413e-16,110.709293 0,106.65 L0,10.4876147 C-4.97120007e-16,6.42832177 3.29070709,3.13761468 7.35,3.13761468 Z" id="path-1"></path>
    </defs>
    <g id="二进制预览" stroke="none" stroke-width="1" fill="none" fill-rule="evenodd">
        <rect id="矩形" x="14.6774194" y="0" width="102.741935" height="102.495413"></rect>
        <mask id="mask-2" fill="white">
            <use xlink:href="#path-1"></use>
        </mask>
        <path stroke="#171717" stroke-width="8.4" d="M122.65,7.33761468 C123.519848,7.33761468 124.307348,7.69019044 124.877386,8.26022832 C125.447424,8.8302662 125.8,9.6177662 125.8,10.4876147 L125.8,10.4876147 L125.8,106.65 C125.8,107.519848 125.447424,108.307348 124.877386,108.877386 C124.307348,109.447424 123.519848,109.8 122.65,109.8 L122.65,109.8 L7.35,109.8 C6.48015152,109.8 5.69265152,109.447424 5.12261364,108.877386 C4.55257576,108.307348 4.2,107.519848 4.2,106.65 L4.2,106.65 L4.2,10.4876147 C4.2,9.6177662 4.55257576,8.8302662 5.12261364,8.26022832 C5.69265152,7.69019044 6.48015152,7.33761468 7.35,7.33761468 L7.35,7.33761468 Z"></path>
        <text id="exec" mask="url(#mask-2)" font-family="PingFangSC-Regular, PingFang SC" font-size="25.2" font-weight="normal" fill="#50F569">
            <tspan x="14.3655914" y="42.2503277">exec</tspan>
        </text>
    </g>
</svg>