<?xml version="1.0" encoding="UTF-8"?>
<svg width="131px" height="131px" viewBox="0 0 131 131" version="1.1" xmlns="http://www.w3.org/2000/svg" xmlns:xlink="http://www.w3.org/1999/xlink">
    <title>压缩包预览</title>
    <defs>
        <linearGradient x1="49.9999379%" y1="0.590034965%" x2="7.65809487%" y2="100%" id="linearGradient-1">
            <stop stop-color="#FFDC24" offset="0%"></stop>
            <stop stop-color="#FACD16" offset="63.0272873%"></stop>
            <stop stop-color="#F1B400" offset="100%"></stop>
        </linearGradient>
        <path d="M4,0 L81.747334,0 C82.9470703,1.6655002e-14 84.0834542,0.538510517 84.8431701,1.46705727 L105.38155,26.5696616 C105.966258,27.2843088 106.285714,28.1792386 106.285714,29.1026043 L106.285714,117.642857 C106.285714,119.851996 104.494853,121.642857 102.285714,121.642857 L4,121.642857 C1.790861,121.642857 2.93507676e-15,119.851996 0,117.642857 L0,4 C-2.705415e-16,1.790861 1.790861,4.05812251e-16 4,0 Z" id="path-2"></path>
        <linearGradient x1="57.6192616%" y1="15.9745598%" x2="57.6192616%" y2="78.1597889%" id="linearGradient-4">
            <stop stop-color="#FFF8C2" offset="0%"></stop>
            <stop stop-color="#FFEE8E" offset="100%"></stop>
        </linearGradient>
        <path d="M96.8435312,11.0957938 L113.406769,30.8350924 C113.47777,30.9197073 113.466733,31.0458584 113.382118,31.1168588 C113.340195,31.1520363 113.285689,31.1684981 113.231302,31.1624075 L68.5305747,26.1564962 C68.4208039,26.1442033 68.3417825,26.0452511 68.3540755,25.9354803 C68.3597919,25.8844352 68.3849282,25.8375461 68.4242755,25.8045298 L86.9817068,10.232996 C89.9432294,7.74798345 94.3585186,8.13427119 96.8435312,11.0957938 Z" id="path-5"></path>
        <filter x="-50.8%" y="-61.4%" width="201.7%" height="273.0%" filterUnits="objectBoundingBox" id="filter-6">
            <feOffset dx="0" dy="5" in="SourceAlpha" result="shadowOffsetOuter1"></feOffset>
            <feGaussianBlur stdDeviation="7" in="shadowOffsetOuter1" result="shadowBlurOuter1"></feGaussianBlur>
            <feColorMatrix values="0 0 0 0 0.948369565   0 0 0 0 0.601383607   0 0 0 0 0  0 0 0 1 0" type="matrix" in="shadowBlurOuter1"></feColorMatrix>
        </filter>
    </defs>
    <g id="压缩包预览" stroke="none" stroke-width="1" fill="none" fill-rule="evenodd">
        <rect id="矩形" x="0" y="0" width="131" height="131"></rect>
        <g id="三角形" transform="translate(9.357143, 9.357143)">
            <mask id="mask-3" fill="white">
                <use xlink:href="#path-2"></use>
            </mask>
            <use id="蒙版" fill="url(#linearGradient-1)" xlink:href="#path-2"></use>
            <g mask="url(#mask-3)" transform="translate(90.897414, 18.475763) rotate(-140.000000) translate(-90.897414, -18.475763) ">
                <use fill="black" fill-opacity="1" filter="url(#filter-6)" xlink:href="#path-5"></use>
                <use fill="url(#linearGradient-4)" fill-rule="evenodd" xlink:href="#path-5"></use>
            </g>
            <g id="编组-9" mask="url(#mask-3)" fill="#FFFFFF">
                <g transform="translate(23.107143, 1.707773)" id="形状结合">
                    <path d="M7.79761905,20.0221216 L14.0357143,20.0221216 L14.0357143,23.819303 L7.79761905,23.819303 L7.79761905,20.0221216 Z M14.1035428,23.9871708 L20.3416381,23.9871708 L20.3416381,27.7843522 L14.1035428,27.7843522 L14.1035428,23.9871708 Z M7.79761905,27.7981548 L14.0357143,27.7981548 L14.0357143,31.5953362 L7.79761905,31.5953362 L7.79761905,27.7981548 Z M14.1796142,31.6287383 L20.4177095,31.6287383 L20.4177095,35.4259196 L14.1796142,35.4259196 L14.1796142,31.6287383 Z M7.79761905,35.5901878 L14.0357143,35.5901878 L14.0357143,39.3873692 L7.79761905,39.3873692 L7.79761905,35.5901878 Z M14.0804743,39.3873692 L20.3185695,39.3873692 L20.3185695,43.1845505 L14.0804743,43.1845505 L14.0804743,39.3873692 Z M7.79761905,43.2028186 L14.0357143,43.2028186 L14.0357143,47 L7.79761905,47 L7.79761905,43.2028186 Z M14.0563072,47 L20.2944024,47 L20.2944024,50.7971814 L14.0563072,50.7971814 L14.0563072,47 Z M7.79761905,50.8568466 L14.0357143,50.8568466 L14.0357143,54.654028 L7.79761905,54.654028 L7.79761905,50.8568466 Z M14.0563072,7 L20.2944024,7 L20.2944024,10.7971814 L14.0563072,10.7971814 L14.0563072,7 Z M7.79761905,10.8568466 L14.0357143,10.8568466 L14.0357143,14.654028 L7.79761905,14.654028 L7.79761905,10.8568466 Z M14.0563072,1.7985613e-13 L20.2944024,1.7985613e-13 L20.2944024,3.79718136 L14.0563072,3.79718136 L14.0563072,1.7985613e-13 Z M14.0563072,15 L20.2944024,15 L20.2944024,18.7971814 L14.0563072,18.7971814 L14.0563072,15 Z M7.79761905,3.85684659 L14.0357143,3.85684659 L14.0357143,7.65402795 L7.79761905,7.65402795 L7.79761905,3.85684659 Z M21.3589154,57.0407614 C21.3589154,60.2614343 23.7969766,63.3868023 24.6372067,64.1682712 C26.7765122,66.1579651 28.0714286,68.7558282 28.0714286,71.5979728 C28.0714286,77.8589701 21.7874252,82.9345113 14.0357143,82.9345113 C6.28400333,82.9345113 0,77.8589701 0,71.5979728 C0,68.6414985 1.40119185,65.9493543 3.69646233,63.9311316 C4.99178007,62.7921637 6.87947621,59.0173259 5.88879291,57.0407614 L5.88879291,57.0407614 Z M14.347619,72.4291981 C12.7972769,72.4291981 11.5404762,73.6859988 11.5404762,75.236341 C11.5404762,76.7866832 12.7972769,78.0434838 14.347619,78.0434838 C15.8979612,78.0434838 17.1547619,76.7866832 17.1547619,75.236341 C17.1547619,73.6859988 15.8979612,72.4291981 14.347619,72.4291981 Z"></path>
                </g>
            </g>
        </g>
    </g>
</svg>