<?xml version="1.0" encoding="UTF-8"?>
<svg width="14px" height="14px" viewBox="0 0 14 14" version="1.1" xmlns="http://www.w3.org/2000/svg" xmlns:xlink="http://www.w3.org/1999/xlink">
    <title>文档</title>
    <g id="文档" stroke="none" stroke-width="1" fill="none" fill-rule="evenodd">
        <rect id="矩形" x="0" y="0" width="14" height="14"></rect>
        <path d="M2,1 L8.26892145,1 C8.50912508,1 8.74130325,1.08646116 8.92299973,1.24357314 L12.6540783,4.46981691 C12.8737524,4.65976792 13,4.93583356 13,5.22624377 L13,13 C13,13.5522847 12.5522847,14 12,14 L2,14 C1.44771525,14 1,13.5522847 1,13 L1,2 C1,1.44771525 1.44771525,1 2,1 Z" id="矩形" fill="#039D4F"></path>
        <path d="M9.8797589,3.14243237 L11.6116475,5.20641681 C11.6826478,5.29103175 11.671611,5.41718287 11.5869961,5.48818323 C11.5506747,5.51866053 11.5047068,5.53524258 11.4572933,5.53497106 L7.29405656,5.51112995 C7.18360142,5.51049742 7.0945726,5.42044307 7.09520513,5.30998793 C7.09554138,5.25127072 7.1216636,5.19566765 7.16664433,5.15792434 L9.59799248,3.117781 C9.68260742,3.04678064 9.80875854,3.05781743 9.8797589,3.14243237 Z" id="三角形" fill="#FFFFFF" transform="translate(9.319420, 4.263335) rotate(-140.000000) translate(-9.319420, -4.263335) "></path>
        <line x1="3.19574303" y1="10.974293" x2="9.08193022" y2="10.974293" id="路径-46" stroke="#FFFFFF" stroke-linecap="round"></line>
        <line x1="3.19574303" y1="8.97429302" x2="9.08193022" y2="8.97429302" id="路径-46" stroke="#FFFFFF" stroke-linecap="round"></line>
    </g>
</svg>