<?xml version="1.0" encoding="utf-8"?>
<!-- Generator: Adobe Illustrator 25.3.1, SVG Export Plug-In . SVG Version: 6.00 Build 0)  -->
<svg version="1.1" id="图层_1" xmlns="http://www.w3.org/2000/svg" xmlns:xlink="http://www.w3.org/1999/xlink" x="0px" y="0px"
	 viewBox="0 0 29.5 29.5" style="enable-background:new 0 0 29.5 29.5;" xml:space="preserve">
<style type="text/css">
	.st0{display:none;fill-rule:evenodd;clip-rule:evenodd;fill:#16D0FF;fill-opacity:0.149;stroke:#3699FF;stroke-dasharray:4,2;}
	.st1{fill-rule:evenodd;clip-rule:evenodd;fill:#FF5E5E;}
	.st2{fill-rule:evenodd;clip-rule:evenodd;fill:#FFFFFF;}
	.st3{fill-rule:evenodd;clip-rule:evenodd;fill:#FFC9C9;}
</style>
<path class="st0" d="M1.5,1.5h26v26h-26V1.5z"/>
<path class="st1" d="M8.5,6.5h11c1.7,0,3,1.3,3,3v9c0,1.7-1.3,3-3,3h-11c-1.7,0-3-1.3-3-3v-9C5.5,7.8,6.8,6.5,8.5,6.5z"/>
<path class="st2" d="M5.5,13.5h17v2h-17V13.5z"/>
<path class="st3" d="M10.5,9.5c1,0,1,0.4,1,1c0,1,0,1-1,1c-0.6,0-1,0-1-1C9.5,9.9,9.9,9.5,10.5,9.5z"/>
<path class="st3" d="M10.5,17.5c1,0,1,0.4,1,1c0,1,0,1-1,1c-0.6,0-1,0-1-1C9.5,17.9,9.9,17.5,10.5,17.5z"/>
</svg>
