<?xml version="1.0" encoding="UTF-8"?>
<svg width="9px" height="18px" viewBox="0 0 9 18" version="1.1" xmlns="http://www.w3.org/2000/svg" xmlns:xlink="http://www.w3.org/1999/xlink">
    <title>MongoDB</title>
    <g id="MongoDB" stroke="none" stroke-width="1" fill="none" fill-rule="evenodd">
        <g transform="translate(0.000000, 0.000000)">
            <path d="M4.54380715,12.6577808 C4.19481886,13.968563 4.00247991,14.9591729 3.96679028,15.6296105 C4.17432143,16.2861502 4.24153469,16.9258234 4.26949482,17.8107985 C4.47096473,17.8802054 4.64769534,17.9432726 4.79968666,18 C4.74717871,16.8178256 4.83618701,16.0276957 5.06671157,15.6296105 C5.01214233,15.0871667 4.83784086,14.0965568 4.54380715,12.6577808 Z" id="路径-4" fill="#B2B292"></path>
            <path d="M4.33160934,0 C4.23455764,0.459234719 4.02100096,0.792731315 3.69093933,1.00048979 C3.36370986,1.14508117 2.07850177,2.41006919 1.1255773,4.31151664 C-0.40294656,7.36150421 -1.1221888,11.9831838 3.99518249,15.7498886 C4.16310984,14.7044263 4.35217115,13.6737237 4.56236641,12.6577808 C4.66807196,10.0030818 4.72092473,7.90915245 4.72092473,6.37599265 C4.72092473,4.84283285 4.59115293,2.71750197 4.33160934,0 Z" id="路径-80" fill="#44AB4B"></path>
            <path d="M8.90992535,0 C8.61337982,0.459234719 8.30007623,0.792731315 7.9700146,1.00048979 C7.64278513,1.14508117 6.35757704,2.41006919 5.40465257,4.31151664 C3.87612871,7.36150421 3.05745183,11.8629057 8.17482312,15.6296105 C8.61923549,15.2103413 8.84144168,14.2197314 8.84144168,12.6577808 C8.94714723,10.0030818 9,7.90915245 9,6.37599265 C9,4.84283285 8.96997512,2.71750197 8.90992535,0 Z" id="路径-80" fill="#1F8736" transform="translate(6.620767, 7.814805) scale(-1, 1) translate(-6.620767, -7.814805) "></path>
        </g>
    </g>
</svg>