<?xml version="1.0" encoding="UTF-8"?>
<svg width="12px" height="12px" viewBox="0 0 12 12" version="1.1" xmlns="http://www.w3.org/2000/svg" xmlns:xlink="http://www.w3.org/1999/xlink">
    <title>更多</title>
    <g id="更多" stroke="none" stroke-width="1" fill="none" fill-rule="evenodd">
        <path d="M6,12 C9.3137085,12 12,9.3137085 12,6 C12,2.6862915 9.3137085,0 6,0 C2.6862915,0 0,2.6862915 0,6 C0,9.3137085 2.6862915,12 6,12 Z" id="椭圆形" fill="#F4F5F7"></path>
        <path d="M6.1260467,3.90475197 C6.62310297,3.90475197 7.0260467,3.50180824 7.0260467,3.00475197 C7.0260467,2.50769569 6.62310297,2.10475197 6.1260467,2.10475197 C5.62899042,2.10475197 5.2260467,2.50769569 5.2260467,3.00475197 C5.2260467,3.50180824 5.62899042,3.90475197 6.1260467,3.90475197 Z" id="椭圆形" fill="#333333"></path>
        <path d="M6.1260467,6.9 C6.62310297,6.9 7.0260467,6.49705627 7.0260467,6 C7.0260467,5.50294373 6.62310297,5.1 6.1260467,5.1 C5.62899042,5.1 5.2260467,5.50294373 5.2260467,6 C5.2260467,6.49705627 5.62899042,6.9 6.1260467,6.9 Z" id="椭圆形" fill="#333333"></path>
        <path d="M6.1260467,9.85791161 C6.62310297,9.85791161 7.0260467,9.45496788 7.0260467,8.95791161 C7.0260467,8.46085533 6.62310297,8.05791161 6.1260467,8.05791161 C5.62899042,8.05791161 5.2260467,8.46085533 5.2260467,8.95791161 C5.2260467,9.45496788 5.62899042,9.85791161 6.1260467,9.85791161 Z" id="椭圆形" fill="#333333"></path>
    </g>
</svg>