<?xml version="1.0" encoding="UTF-8"?>
<svg width="12px" height="13px" viewBox="0 0 12 13" version="1.1" xmlns="http://www.w3.org/2000/svg" xmlns:xlink="http://www.w3.org/1999/xlink">
    <title>MySQL</title>
    <g id="MySQL" stroke="none" stroke-width="1" fill="none" fill-rule="evenodd">
        <path d="M2.82281562,0.961413248 C3.44858593,0.637907676 6.14916359,0.469509358 8.6450056,6.67647771 C9.17159814,6.95354419 11.2444607,8.05246765 11.2444607,8.63277537 C11.2444607,9.71540371 9.58414089,8.93764971 9.58414089,9.04988641 C10.0707264,9.52718547 11.8377782,11.6273577 11.971434,12.1713849 C12.1050898,12.715412 11.7541169,13 11.2444607,13 C10.7348046,13 7.0457352,12.5510419 4.92436452,10.7261566 C4.29224951,10.0942732 3.88059242,9.35593722 3.68939326,8.51114855 C3.51897216,9.29594783 3.25795847,9.65898805 2.90635219,9.6002692 C2.37894276,9.51219093 1.42267352,8.72572243 1.51872717,6.65662176 C1.54124804,6.17149752 1.74905828,5.63836296 1.96147409,4.9910243 C1.60640732,4.58598538 1.37037943,4.04716184 1.37037943,3.87263112 C1.37037943,3.6981004 1.25136874,2.82079987 1.10761273,2.56059455 C0.963856728,2.30038923 -0.300454912,0.890006058 0.0665296159,0.318294407 C0.433514144,-0.253417245 1.91731359,-0.064308023 2.82281562,0.961413248 Z M3.40246656,2.65604366 C3.35110496,2.65538041 3.30891621,2.69646489 3.30823512,2.74782627 C3.30798226,2.7668943 3.31359687,2.78557922 3.32431829,2.80134961 L3.8538044,3.58018361 C3.88278118,3.62248874 3.94052826,3.63349454 3.98293376,3.6046654 C3.99645081,3.5954759 4.00730239,3.5828809 4.0143917,3.5681534 C4.15042831,3.28554771 4.15646237,3.06301442 4.03249388,2.90055352 C3.91113105,2.74150733 3.70112194,2.66000405 3.40246656,2.65604366 Z" fill="#10596A"></path>
    </g>
</svg>