<?xml version="1.0" encoding="UTF-8"?>
<svg width="12.0178804px" height="10.5814064px" viewBox="0 0 12.0178804 10.5814064" version="1.1" xmlns="http://www.w3.org/2000/svg" xmlns:xlink="http://www.w3.org/1999/xlink">
    <title>node.js</title>
    <g id="node.js" stroke="none" stroke-width="1" fill="none" fill-rule="evenodd">
        <path d="M11.6083847,9.78140645 C11.8292986,9.78140645 12.0083847,9.96049255 12.0083847,10.1814064 C12.0083847,10.3747061 11.8712719,10.5359814 11.6889987,10.5732799 L11.6083847,10.5814064 L0.608384715,10.5814064 C0.387470815,10.5814064 0.208384715,10.4023203 0.208384715,10.1814064 C0.208384715,9.98810679 0.34549751,9.82683153 0.527770763,9.78953303 L0.608384715,9.78140645 L11.6083847,9.78140645 Z M10.6178804,2.06057393e-13 C11.3910791,2.06057393e-13 12.0178804,0.62680135 12.0178804,1.4 L12.0178804,1.4 L12.0178804,7.65930101 C12.0178804,8.43249966 11.3910791,9.05930101 10.6178804,9.05930101 L10.6178804,9.05930101 L1.4,9.05930101 C0.62680135,9.05930101 1.15463195e-13,8.43249966 1.15463195e-13,7.65930101 L1.15463195e-13,7.65930101 L1.15463195e-13,1.4 C1.15463195e-13,0.62680135 0.62680135,2.06057393e-13 1.4,2.06057393e-13 L1.4,2.06057393e-13 Z M10.6178804,0.8 L1.4,0.8 C1.06862915,0.8 0.8,1.06862915 0.8,1.4 L0.8,1.4 L0.8,7.65930101 C0.8,7.99067186 1.06862915,8.25930101 1.4,8.25930101 L1.4,8.25930101 L10.6178804,8.25930101 C10.9492513,8.25930101 11.2178804,7.99067186 11.2178804,7.65930101 L11.2178804,7.65930101 L11.2178804,1.4 C11.2178804,1.06862915 10.9492513,0.8 10.6178804,0.8 L10.6178804,0.8 Z M4.3573671,3.27340631 C4.4733469,3.42804604 4.46042182,3.63933392 4.33698232,3.77853667 L4.2773671,3.83340631 L2.7043671,5.01382537 L4.2773671,6.19340631 C4.43200683,6.3093861 4.47875936,6.51584149 4.39923421,6.6840392 L4.3573671,6.75340631 C4.24138731,6.90804604 4.03493192,6.95479856 3.86673421,6.87527342 L3.7973671,6.83340631 L2.1173671,5.57340631 C1.80808764,5.34144671 1.74540751,4.90268577 1.9773671,4.59340631 L2.04239236,4.51843156 L2.1173671,4.45340631 L3.7973671,3.19340631 C3.97409822,3.06085797 4.22481876,3.09667519 4.3573671,3.27340631 Z M7.81874223,3.27340631 C7.95129057,3.09667519 8.20201111,3.06085797 8.37874223,3.19340631 L8.37874223,3.19340631 L10.0587422,4.45340631 L10.133717,4.51843156 L10.1987422,4.59340631 C10.4307018,4.90268577 10.3680217,5.34144671 10.0587422,5.57340631 L10.0587422,5.57340631 L8.37874223,6.83340631 L8.30937512,6.87527342 C8.14117741,6.95479856 7.93472203,6.90804604 7.81874223,6.75340631 L7.81874223,6.75340631 L7.77687512,6.6840392 C7.69734997,6.51584149 7.7441025,6.3093861 7.89874223,6.19340631 L7.89874223,6.19340631 L9.47174223,5.01421815 L7.89874223,3.83340631 L7.83912701,3.77853667 C7.71568752,3.63933392 7.70276243,3.42804604 7.81874223,3.27340631 Z M6.81010037,3.04573894 C6.98777958,3.12186291 7.08202542,3.31140801 7.04452824,3.49364049 L7.02025127,3.57094043 L5.73494675,6.57094043 C5.64794793,6.77400238 5.41280722,6.86809014 5.20974527,6.78109133 C5.03206606,6.70496736 4.93782021,6.51542226 4.9753174,6.33318978 L4.99959436,6.25588984 L6.28489888,3.25588984 C6.3718977,3.05282789 6.60703841,2.95874013 6.81010037,3.04573894 Z" fill="#FC8C5A" fill-rule="nonzero"></path>
    </g>
</svg>