<?xml version="1.0" encoding="UTF-8"?>
<svg width="14.5078212px" height="15px" viewBox="0 0 14.5078212 15" version="1.1" xmlns="http://www.w3.org/2000/svg" xmlns:xlink="http://www.w3.org/1999/xlink">
    <title>PostgreSQL</title>
    <g id="PostgreSQL" stroke="none" stroke-width="1" fill="none" fill-rule="evenodd">
        <path d="M10.4226903,-4.4408921e-15 C9.84165973,0.00433531797 9.2640062,0.0890942094 8.70608221,0.251877275 L8.66682766,0.264377383 C8.31491762,0.201994062 7.95865556,0.167512114 7.6013468,0.161251453 C6.86734888,0.148751345 6.23678359,0.327502947 5.72834361,0.625005637 C5.22738068,0.450629066 4.18806952,0.150001352 3.09268043,0.210001893 C2.33002045,0.251877275 1.49757458,0.48437937 0.88071724,1.13751025 C0.265729166,1.79064114 -0.0595228859,2.80127525 0.00901682813,4.17628764 C0.0277094748,4.55566607 0.135503732,5.17442164 0.314330047,5.97567885 C0.493156361,6.77693606 0.744260919,7.71506952 1.0576743,8.57070224 C1.37108767,9.42695995 1.71440929,10.1957169 2.25088824,10.7182216 C2.51881618,10.980099 2.8876844,11.2001009 3.32259998,11.1819758 C3.62791322,11.1694757 3.90394129,11.0350994 4.141961,10.8369727 C4.25785541,10.990099 4.38184997,11.0569746 4.49462893,11.1188502 C4.63669304,11.1969759 4.77501863,11.2501014 4.91832891,11.2851017 C5.17566434,11.3494773 5.61618773,11.4357281 6.13210477,11.3476023 C6.30781565,11.318227 6.49287285,11.2607265 6.67730696,11.1788507 C6.68416093,11.3851026 6.69226108,11.5869794 6.70036123,11.7913563 C6.72590784,12.4388621 6.74210815,13.0369925 6.93588858,13.5613722 C6.96704298,13.646998 7.05240608,14.088252 7.38887372,14.4776305 C7.72534136,14.867634 8.38456869,15.1107612 9.13538999,14.9495097 C9.66501499,14.8357587 10.3385733,14.6307569 10.7859507,13.9920011 C11.2283433,13.3607454 11.4277316,12.4551123 11.4669861,10.986349 C11.4758933,10.9159585 11.4873239,10.8459125 11.501256,10.7763471 L11.6065579,10.7857222 L11.6190197,10.7857222 C12.1841607,10.8113474 12.7972795,10.7307217 13.309458,10.4919695 C13.7630662,10.2813426 14.1063878,10.0682157 14.3562462,9.69008733 C14.418555,9.59633648 14.4870947,9.48321046 14.5057874,9.2882087 C14.52448,9.09320694 14.4129472,8.7882042 14.22789,8.64757793 C13.8571525,8.36507539 13.6241175,8.47257635 13.3742592,8.52445183 C13.128128,8.57903405 12.877308,8.60959345 12.6253071,8.61570265 C13.3455971,7.39881668 13.8621372,6.10630503 14.156858,4.96254472 C14.3313227,4.28753863 14.4291475,3.66503302 14.4372477,3.12065313 C14.4453478,2.57627322 14.4011086,2.09439387 14.0758565,1.67751511 C13.0595996,0.37500338 11.6308583,0.0150001352 10.5254998,0.00250002741 C10.49123,0.0018750169 10.4569601,0.00125002103 10.4226903,0.0018750169 L10.4226903,-4.4408921e-15 Z M10.3934051,0.40000361 C11.4389472,0.390003515 12.7748483,0.684381168 13.7337811,1.91376724 C13.9493696,2.19001974 14.0135477,2.59377337 14.0060706,3.09127785 C13.9979705,3.58815733 13.9063765,4.1831627 13.7387658,4.83504357 C13.4135137,6.09755495 12.7991487,7.56944322 11.9336792,8.89008012 C11.9642456,8.91186332 11.9972954,8.92990786 12.0321271,8.9438306 C12.2128227,9.01883128 12.624684,9.08320686 13.4465374,8.91383033 C13.6534027,8.87007993 13.8048131,8.84070467 13.9618314,8.96070575 C14.0391836,9.02647254 14.08138,9.12477123 14.0758565,9.22633314 C14.0674718,9.3021962 14.0395572,9.37456661 13.994855,9.43633504 C13.8359675,9.67571219 13.5225542,9.90258923 13.1206623,10.0894659 C12.7648789,10.2557174 12.2545696,10.3425932 11.8022076,10.3475932 C11.5754035,10.3500933 11.3660458,10.3325931 11.1884657,10.2769676 L11.1772501,10.2725926 C11.1087104,10.9350985 10.9510691,12.2432353 10.8482595,12.8401157 C10.7660119,13.32137 10.6220785,13.7038735 10.3472966,13.9901261 C10.0731378,14.2763787 9.68495381,14.4488802 9.16280589,14.5613812 C8.51604031,14.7007575 8.04436252,14.5507561 7.74029548,14.2938788 C7.43685151,14.0376265 7.29790284,13.6976234 7.21440901,13.4894966 C7.1570849,13.3457453 7.12717667,13.1594936 7.0985146,12.9107413 C7.06985254,12.6619891 7.04866755,12.3576114 7.03433651,12.0144833 C7.01524938,11.489086 7.00901662,10.963298 7.01564387,10.4375941 C6.7454717,10.6858069 6.40974664,10.8507142 6.04861096,10.9125983 C5.61930318,10.985724 5.23610392,10.9138484 5.00743054,10.8563478 C4.89470447,10.8279488 4.78588639,10.785757 4.68342466,10.7307217 C4.57749967,10.6738462 4.47655937,10.6094706 4.40926585,10.4825945 C4.36972452,10.4099298 4.35714074,10.3255583 4.37374982,10.2444673 C4.39480893,10.1622648 4.44261104,10.0894612 4.50958304,10.0375905 C4.63295451,9.93696456 4.79620363,9.88071406 5.04232347,9.82946359 C5.4903239,9.73696275 5.64671905,9.67383719 5.74205155,9.5982115 C5.82305302,9.53321092 5.91464699,9.40195974 6.07664993,9.20945799 C6.07587598,9.200928 6.0752528,9.19238491 6.07478066,9.18383277 C5.78484773,9.17564961 5.50092616,9.09899043 5.24607332,8.96008074 C5.15261009,9.05883163 4.67532451,9.56508619 4.09336012,10.2675925 C3.84848645,10.5613452 3.57806616,10.7300967 3.29269175,10.7419718 C3.00731735,10.7544719 2.74935882,10.6100956 2.53003177,10.3969687 C2.09200074,9.97008986 1.74244825,9.23570823 1.43775811,8.40570075 C1.13369106,7.57569328 0.886325034,6.65130995 0.710614155,5.86380285 C0.534280184,5.07629575 0.430224456,4.44129004 0.415270339,4.13503727 C0.349846075,2.83377554 0.653290044,1.95689265 1.17356871,1.40376265 C1.69447046,0.850632661 2.40852956,0.641255779 3.10451911,0.601255414 C4.353811,0.529379761 5.54017097,0.966258698 5.78005992,1.06000956 C6.24239139,0.745006719 6.83806372,0.548754955 7.58203106,0.561255063 C7.93522245,0.566224081 8.2866709,0.611941825 8.62944236,0.697506286 L8.64190412,0.691881235 C8.79277391,0.63868486 8.94650343,0.594030792 9.10236632,0.558130025 C9.52556906,0.459100815 9.95824791,0.406499856 10.392782,0.401253616 L10.3934051,0.40000361 Z M10.4881145,0.818757374 L10.3971436,0.818757374 C10.0401637,0.823751132 9.68453838,0.863944897 9.33540131,0.938758455 C10.1117692,1.28376156 10.6980953,1.81501636 11.1112027,2.34502113 C11.3981675,2.71198884 11.6353471,3.11551021 11.8165386,3.54503194 C11.8850783,3.71003343 11.9311869,3.84940969 11.9573566,3.95753566 C11.9704414,4.01191115 11.9791646,4.05753657 11.9822801,4.105037 C11.9847494,4.13524559 11.9822229,4.16565585 11.974803,4.19503781 C11.974803,4.19691283 11.9716876,4.20128787 11.9710645,4.20316287 C11.9897571,4.75066781 11.854547,5.12192115 11.8383467,5.64442587 C11.8258849,6.02317929 11.9224636,6.4681833 11.946141,6.95381266 C11.9685721,7.41006678 11.9137404,7.91132129 11.6183966,8.40320073 C11.6433201,8.433201 11.6657513,8.46320127 11.6894286,8.49320154 C12.4707812,7.25881541 13.034053,5.89317811 13.3343815,4.72879262 C13.4951383,4.10191196 13.5805014,3.53378184 13.5879784,3.08377779 C13.5942093,2.63377373 13.5107155,2.30752079 13.4041674,2.17126957 C12.567983,1.0987599 11.4364548,0.825632446 10.4881145,0.818132378 L10.4881145,0.818757374 Z M7.50352194,0.978758821 C6.76703167,0.980633838 6.23865286,1.20376085 5.83800713,1.53813887 C5.42489964,1.88376699 5.14762537,2.35689624 4.96568362,2.84127561 C4.74947201,3.41628079 4.67532451,3.97253581 4.64603937,4.3500392 L4.65413952,4.34503916 C4.87658201,4.22003804 5.16881039,4.0950369 5.48160067,4.02253626 C5.79439096,3.9506606 6.13148168,3.9281604 6.43679491,4.04691148 C6.74210815,4.16566255 6.99445888,4.44504007 7.08605284,4.86879387 C7.52470695,6.90443721 6.94959652,7.66131904 6.73774652,8.23257419 C6.65737706,8.43962873 6.58852382,8.65099723 6.53150432,8.8657049 C6.55829712,8.85945484 6.5850899,8.85195477 6.6118827,8.84945475 C6.76142387,8.83695464 6.87856445,8.88695509 6.94835034,8.91695536 C7.16144651,9.00570616 7.30787225,9.19195783 7.38700446,9.40445975 C7.40756637,9.46008525 7.42252048,9.52008579 7.43124371,9.58196136 C7.4404524,9.60736869 7.44468377,9.63432055 7.44370547,9.66133706 C7.42008162,10.4399621 7.42278322,11.2191667 7.45180563,11.9976081 C7.46613665,12.3338612 7.48732165,12.6301138 7.51411445,12.8638659 C7.54090725,13.096993 7.57891562,13.2744946 7.60321606,13.3344952 C7.68297135,13.534497 7.79948885,13.7963743 8.01009267,13.9745009 C8.22069648,14.1520025 8.52289428,14.2707536 9.07495045,14.1520025 C9.5534822,14.0488766 9.84882602,13.9057503 10.046345,13.7001235 C10.2432409,13.4944966 10.3610045,13.208244 10.4363982,12.7701151 C10.5491772,12.1138592 10.7759813,10.210717 10.8033972,9.85258879 C10.7909354,9.58258635 10.830813,9.37508449 10.9167992,9.21695806 C11.0052778,9.0544566 11.1423571,8.9550807 11.2607439,8.90133022 C11.3199373,8.87445498 11.3753922,8.85632982 11.4208776,8.8432047 C11.3727223,8.77379028 11.3222229,8.70604202 11.2694672,8.64007787 C11.098782,8.43243222 10.9590032,8.20106651 10.8544904,7.95319667 C10.8044359,7.85083211 10.7510289,7.75015147 10.6943567,7.65131895 C10.611486,7.5013176 10.5068072,7.31381591 10.3971436,7.10318902 C10.1778166,6.68131022 9.9391738,6.17005561 9.81517925,5.67192612 C9.69180779,5.17442163 9.67373823,4.65941699 9.99026704,4.29628872 C10.2706567,3.97378582 10.7628964,3.84003461 11.5018791,3.91503528 C11.480071,3.84940969 11.4669861,3.7950342 11.4302239,3.70753342 C11.263156,3.31308404 11.0450727,2.94239936 10.7815891,2.60502348 C10.1553854,1.80189124 9.14162088,1.00563407 7.57517709,0.980008827 L7.50352194,0.980008827 L7.50352194,0.978758821 Z M3.36496998,1.01125912 C3.28583777,1.01125912 3.20670557,1.01375915 3.12819646,1.01813418 C2.49887736,1.05438451 1.9038281,1.23751115 1.47825885,1.69001524 C1.05206651,2.14251932 0.771676811,2.884401 0.832739452,4.11253707 C0.844578133,4.34503916 0.945518425,4.99629504 1.11873695,5.77005201 C1.29133239,6.54380897 1.53620606,7.45444219 1.83030369,8.25882442 C2.12502441,9.06320667 2.48205396,9.76321299 2.82101396,10.094466 C2.99174014,10.2600925 3.14003513,10.3269681 3.2746222,10.321343 C3.40983234,10.315093 3.57245837,10.2369673 3.7712235,9.9975901 C4.13361381,9.55910645 4.50973152,9.13222278 4.89901319,8.71757857 C4.33769431,8.22870806 4.06357501,7.48652044 4.17186923,6.74881083 C4.23604733,6.28693166 4.24477056,5.85505278 4.2372935,5.51379969 C4.22981644,5.18129668 4.20613909,4.96004469 4.20613908,4.82191845 C4.20602748,4.81796088 4.20602748,4.81400093 4.20613908,4.81004335 L4.20613908,4.80691832 L4.205516,4.80316828 L4.205516,4.80254329 C4.2051452,4.08303296 4.32997434,3.36897888 4.57438422,2.69252427 C4.74884892,2.22752007 5.00867671,1.75501582 5.39810685,1.37251237 C5.01553069,1.24626123 4.33636452,1.0537595 3.60112042,1.01750917 C3.52226018,1.01344674 3.443311,1.01136274 3.3643469,1.01125912 L3.36496998,1.01125912 Z M11.0900178,4.31253887 C10.6669408,4.31816392 10.4295442,4.42753991 10.3049266,4.57066619 C10.1285926,4.77379302 10.1117692,5.13004623 10.2214328,5.56880019 C10.3304732,6.00817915 10.5560311,6.49943358 10.7678811,6.90756225 C10.8738061,7.11193909 10.9766157,7.29569075 11.0594864,7.44506709 C11.1429802,7.59506844 11.2040429,7.7013194 11.2414282,7.79194522 C11.275698,7.87569597 11.3137064,7.94944664 11.3523379,8.01819727 C11.5162101,7.67131914 11.5454952,7.33069107 11.5286719,6.97568787 C11.5068638,6.53630891 11.4053004,6.08692986 11.4202545,5.63192575 C11.4370779,5.10004596 11.5417567,4.75379283 11.551103,4.34253914 C11.3982044,4.32267175 11.2441939,4.31265113 11.0900178,4.31253887 L11.0900178,4.31253887 Z M5.95950933,4.38441452 C5.8302621,4.38562398 5.70154249,4.40113463 5.575687,4.43066493 C5.32485338,4.49179456 5.08325516,4.58616699 4.85726627,4.71129245 C4.78082421,4.75242224 4.70806773,4.80009996 4.63980848,4.85379374 L4.62610055,4.86629386 C4.62983908,4.95754468 4.64790863,5.17879667 4.65538569,5.5044246 C4.66286275,5.86067781 4.65413952,6.31505691 4.5855998,6.80693635 C4.43668172,7.87569598 5.2099342,8.76070396 6.11839683,8.76195396 C6.17135933,8.54257699 6.25859168,8.32007499 6.34582404,8.08569787 C6.59879786,7.40194172 7.09664534,6.90318722 6.67730696,4.95691967 C6.60876726,4.63816679 6.47293402,4.50941564 6.28600757,4.43691499 C6.18123764,4.39974508 6.07061231,4.38195667 5.95950933,4.38441452 L5.95950933,4.38441452 Z M10.8924988,4.51191567 L10.9236532,4.51191567 C10.9614114,4.51260377 10.9989971,4.51721171 11.0358091,4.52566578 C11.0694558,4.53316585 11.0981179,4.54441595 11.1217953,4.5600411 C11.1463624,4.57529973 11.1633408,4.60027807 11.1685269,4.62879171 L11.1679038,4.63379177 L11.1685269,4.63379177 L11.1679038,4.63379177 C11.1691209,4.66346229 11.1615311,4.69282761 11.1460957,4.71816753 C11.1277198,4.7524712 11.1046496,4.78402734 11.077556,4.81191837 C11.0143471,4.88173772 10.9296956,4.92837331 10.8370439,4.94441956 C10.7468846,4.95534924 10.6558829,4.93241749 10.5815778,4.88004397 C10.5511623,4.85952085 10.5238774,4.83467836 10.5005763,4.80629332 C10.480414,4.78399294 10.4668239,4.75651274 10.4613217,4.7269176 C10.4586898,4.69777364 10.4681574,4.66883109 10.4874914,4.64691688 C10.5079366,4.62361411 10.5326944,4.60451106 10.5603928,4.59066638 C10.6202092,4.55691607 10.7012107,4.53191584 10.7928047,4.51816571 C10.8270745,4.51316567 10.8607213,4.51066565 10.8924988,4.51004065 L10.8924988,4.51191567 Z M6.01994889,4.61691661 C6.05297256,4.61691661 6.08786551,4.62004164 6.12338154,4.62504168 C6.21871404,4.63816679 6.30345404,4.66379202 6.36825521,4.70129237 C6.39985957,4.71783949 6.42799459,4.74033189 6.45112594,4.76754296 C6.47658903,4.7967225 6.48878139,4.83522396 6.4847727,4.87379393 C6.47878296,4.90972923 6.46255281,4.94315769 6.43804108,4.97004479 C6.41254963,5.00143715 6.38251619,5.0288243 6.34893947,5.05129552 C6.26790487,5.10888152 6.16836494,5.13406595 6.06979595,5.12192115 C5.96906299,5.10531213 5.87686025,5.05510519 5.80809889,4.97941987 C5.77884488,4.94894325 5.75408613,4.9144269 5.73457449,4.87691895 C5.71403697,4.84391703 5.70504799,4.80499152 5.70902787,4.76629295 C5.71837419,4.69879235 5.77382904,4.66379204 5.82803773,4.64441686 C5.8897857,4.62462564 5.95458366,4.61615692 6.0193258,4.61941663 L6.01994889,4.61691661 Z M11.6651282,9.20633297 L11.6632589,9.20695798 C11.5716649,9.24008327 11.4962713,9.2538334 11.4327163,9.28195865 C11.368443,9.30677835 11.3154641,9.35436147 11.2837982,9.41570985 C11.2445436,9.4875855 11.2108969,9.61508665 11.2208663,9.8319636 C11.2490559,9.85143328 11.2801961,9.86620706 11.3130833,9.875714 C11.4196314,9.9082143 11.5984577,9.92946448 11.797846,9.92633946 C12.1953762,9.92196441 12.6845005,9.82883858 12.9443283,9.70758749 C13.1574775,9.6082595 13.3553442,9.47881892 13.5319005,9.32320903 L13.5312774,9.32320903 C12.6633155,9.50321065 12.1729451,9.45508522 11.8719935,9.33070909 C11.7972616,9.29952003 11.7275494,9.25739553 11.6651282,9.20570796 L11.6651282,9.20633297 Z M6.66110667,9.2650835 L6.64802182,9.2650835 C6.61499815,9.26820853 6.56702035,9.27945863 6.47418021,9.38258456 C6.25734551,9.62633675 6.18132875,9.77946313 6.00250242,9.92258942 C5.8236761,10.0650907 5.59126419,10.1413414 5.12706348,10.2369673 C5.02791746,10.2547073 4.93140461,10.2849472 4.8398198,10.3269681 C4.85788935,10.3419682 4.85602009,10.3457182 4.88343598,10.3600934 C4.9513526,10.3975937 5.03858494,10.430719 5.10899391,10.4488442 C5.30838213,10.4988446 5.63612654,10.5569701 5.97820198,10.4988446 C6.32027741,10.4400941 6.67606079,10.2757176 6.97950476,9.84883875 C7.03184417,9.77508808 7.03745196,9.6663371 6.99445888,9.54946106 C6.9508427,9.432585 6.8555102,9.3319591 6.78821667,9.30383385 C6.74817389,9.28445138 6.70523471,9.27178335 6.66110667,9.26633351 L6.66110667,9.2650835 Z" fill="#45B991"></path>
    </g>
</svg>