<?xml version="1.0" encoding="UTF-8"?>
<svg width="12px" height="13px" viewBox="0 0 12 13" version="1.1" xmlns="http://www.w3.org/2000/svg" xmlns:xlink="http://www.w3.org/1999/xlink">
    <title>RabbitMQ</title>
    <g id="RabbitMQ" stroke="none" stroke-width="1" fill="none" fill-rule="evenodd">
        <path d="M11.3925724,5.27529167 L7.64438962,5.27529167 C7.34464073,5.23845834 7.11626063,4.96816667 7.11626063,4.64966667 L7.11626063,0.619666671 C7.11640092,0.455370681 7.05280038,0.297754622 6.93946525,0.181528982 C6.82613012,0.0653033415 6.67235514,0 6.51200493,0 L5.2004053,0 C4.8647077,0 4.5950923,0.278958329 4.5950923,0.620208329 L4.5950923,4.69245833 C4.57870391,4.99958333 4.33129213,5.247125 4.03418653,5.27529167 L3.05246928,5.27529167 C2.76223236,5.23574898 2.53985756,4.9913355 2.52169699,4.69191667 L2.52169699,0.620208329 C2.52169699,0.27625 2.2494383,0 1.91691265,0 L0.604784356,0 C0.269615401,0 0,0.278958329 0,0.620208329 L0,12.3797917 C0,12.72375 0.272258698,13 0.604784356,13 L11.3952156,13 C11.7309132,13 12,12.7210417 12,12.3797917 L12,5.8955 C11.9991253,5.55249418 11.7273413,5.27499171 11.3925724,5.27529167 Z M9.66597648,9.722375 C9.66597648,10.0663333 9.39371779,10.3425833 9.06119212,10.3425833 L7.74959249,10.3425833 C7.58910207,10.3425833 7.43519264,10.2772229 7.32175836,10.1608957 C7.20832408,10.0445685 7.14466785,9.88681465 7.14480791,9.722375 L7.14480791,8.45433333 C7.14480791,8.110375 7.41706682,7.834125 7.74959249,7.834125 L9.06119212,7.834125 C9.39688973,7.834125 9.66597648,8.11308333 9.66597648,8.45433333 L9.66597648,9.722375 L9.66597648,9.722375 Z" fill="#BDC4DF" fill-rule="nonzero"></path>
    </g>
</svg>