<?xml version="1.0" encoding="UTF-8"?>
<svg width="12px" height="12px" viewBox="0 0 12 12" version="1.1" xmlns="http://www.w3.org/2000/svg" xmlns:xlink="http://www.w3.org/1999/xlink">
    <title>刷新</title>
    <g id="刷新" stroke="none" stroke-width="1" fill="none" fill-rule="evenodd">
        <rect id="矩形" fill="#000000" fill-rule="nonzero" opacity="0" x="0" y="0" width="12" height="12"></rect>
        <path d="M10.2143063,3.36662151 C10.0466674,3.36662151 9.91061266,3.50267627 9.91061266,3.67031517 L9.91061266,4.09761216 C9.17202966,2.84366101 7.81239311,2 6.25171135,2 C3.90355191,2 2,3.90355191 2,6.25171135 C2,8.59987079 3.90355191,10.5034227 6.25171135,10.5034227 C7.67269402,10.5034227 8.92421563,9.80158664 9.69559755,8.73045907 C9.6980271,8.72802952 9.69954556,8.72529628 9.70167142,8.72286673 C9.71108592,8.70950421 9.72262628,8.69766015 9.73204079,8.68429763 C9.73082601,8.68369025 9.73021863,8.68277916 9.72900385,8.68217178 C9.76241015,8.6329734 9.78670565,8.57709377 9.78670565,8.5133181 C9.78700934,8.34385703 9.6497398,8.20689119 9.48088612,8.20689119 C9.36123082,8.20689119 9.26010083,8.27734812 9.20968768,8.37756703 L9.20756182,8.37756703 C8.54581332,9.29593668 7.47013035,9.89603537 6.25171135,9.89603537 C4.23913341,9.89603537 2.60738734,8.26428929 2.60738734,6.25171135 C2.60738734,4.23913341 4.23913341,2.60738734 6.25171135,2.60738734 C7.66145736,2.60738734 8.87896527,3.41035339 9.48483414,4.58139618 L8.99953166,4.58139618 C8.83189276,4.58139618 8.69583799,4.71745094 8.69583799,4.88508985 C8.69583799,5.05272875 8.83189276,5.18878351 8.99953166,5.18878351 L10.2143063,5.18878351 C10.3819452,5.18878351 10.518,5.05272875 10.518,4.88508985 L10.518,3.67031517 C10.518,3.50267627 10.3819452,3.36662151 10.2143063,3.36662151 Z" id="路径" fill="#989A9E" fill-rule="nonzero"></path>
    </g>
</svg>