<?xml version="1.0" encoding="UTF-8"?>
<svg width="18px" height="18px" viewBox="0 0 18 18" version="1.1" xmlns="http://www.w3.org/2000/svg" xmlns:xlink="http://www.w3.org/1999/xlink">
    <title>切片</title>
    <g id="2.0" stroke="none" stroke-width="1" fill="none" fill-rule="evenodd">
        <g id="概览—钩子编辑" transform="translate(-440.000000, -472.000000)">
            <g id="编组-11" transform="translate(243.000000, 117.000000)">
                <g id="刷新" transform="translate(197.000000, 355.000000)">
                    <rect id="矩形" fill="#FFFFFF" x="0" y="0" width="18" height="18" rx="4"></rect>
                    <g id="编组" transform="translate(4.000000, 4.000000)" fill-rule="nonzero">
                        <g id="刷新">
                            <rect id="矩形" fill="#000000" opacity="0" x="0" y="0" width="10" height="10"></rect>
                            <path d="M8.45669812,1.65638283 C8.29978883,1.65638283 8.17258872,1.78308298 8.17258872,1.93937553 L8.17258872,2.62032673 C7.27167924,1.09213467 5.47634675,0.326830445 3.74446385,0.732730606 C2.01258095,1.13863077 0.748208197,2.62103593 0.625932642,4.38903113 C0.619810222,4.4641376 0.644013067,4.53857475 0.693177421,4.59584605 C0.742341775,4.65311735 0.812407192,4.68849281 0.887845998,4.69413399 C1.03648066,4.69458509 1.16034396,4.58084743 1.1719554,4.43324874 C1.28926331,2.88132046 2.42805521,1.59626531 3.95949647,1.28768368 C5.49093774,0.97910204 7.04163552,1.72223166 7.75530302,3.10672044 L7.00063742,3.10672044 C6.84250227,3.10672044 6.71430841,3.23441043 6.71430841,3.39192402 C6.71430841,3.54943761 6.84250227,3.67712761 7.00063742,3.67712761 L8.45669812,3.67712761 C8.61360741,3.67712761 8.74080752,3.55042746 8.74080752,3.3941349 L8.74080752,1.93937553 C8.74080752,1.78308298 8.61360741,1.65638283 8.45669812,1.65638283 L8.45669812,1.65638283 Z M8.45669812,4.68971088 C8.38129528,4.68361253 8.3065644,4.70772024 8.2490671,4.75669135 C8.19156981,4.80566247 8.15605475,4.87545249 8.15039267,4.95059478 C8.03308476,6.50252307 6.89429287,7.78757822 5.36285159,8.09615986 C3.83141032,8.4047415 2.28071254,7.66161188 1.56704504,6.27712308 L2.37054196,6.27712308 C2.5286771,6.27712308 2.65687097,6.14943309 2.65687097,5.9919195 C2.65687097,5.8344059 2.5286771,5.70671591 2.37054196,5.70671591 L0.914481253,5.70671591 C0.839130752,5.70671591 0.766866413,5.73653113 0.713585564,5.78960256 C0.660304715,5.84267398 0.630371849,5.91465429 0.630371849,5.98970862 L0.630371849,7.44004623 C0.630371849,7.59755982 0.758565714,7.72524981 0.91670086,7.72524981 C1.07483601,7.72524981 1.20302987,7.59755982 1.20302987,7.44004623 L1.20302987,6.75467327 C2.10393934,8.28286533 3.89927184,9.04816955 5.63115474,8.64226939 C7.36303764,8.23636923 8.62741039,6.75396407 8.74968595,4.98596887 C8.75330111,4.9094055 8.72558241,4.83465608 8.67286939,4.77881654 C8.62015637,4.72297701 8.54695809,4.69082387 8.47001575,4.68971088 L8.45669812,4.68971088 Z" id="形状" fill="#5F6269"></path>
                        </g>
                    </g>
                </g>
            </g>
        </g>
    </g>
</svg>