<?xml version="1.0" encoding="UTF-8"?>
<svg width="16px" height="16px" viewBox="0 0 16 16" version="1.1" xmlns="http://www.w3.org/2000/svg" xmlns:xlink="http://www.w3.org/1999/xlink">
    <title>重命名</title>
    <g id="重命名" stroke="none" stroke-width="1" fill="none" fill-rule="evenodd">
        <rect id="矩形" x="0" y="0" width="16" height="16"></rect>
        <path d="M8.10534876,3.78898998 C8.35863181,3.78898998 8.56363326,3.99414769 8.56363326,4.24727448 C8.56363326,4.50040128 8.35863181,4.70555899 8.10534876,4.70555899 L3.91672526,4.70555899 L3.91672526,13.0831185 L12.2942848,13.0831185 L12.2942848,8.89449499 C12.2942848,8.64136819 12.4992862,8.43621048 12.7525693,8.43621048 C13.0058523,8.43621048 13.2108538,8.64136819 13.2108538,8.89449499 L13.2108538,13.0832747 C13.21101,13.5889033 12.7996008,14 12.2942848,14 L3.91672526,14 C3.41140917,14 3,13.5889033 3,13.0832747 L3,4.70571524 C3,4.20008665 3.41140917,3.78898998 3.91672526,3.78898998 L8.10534876,3.78898998 Z M13.8658584,3.13429783 C14.0449222,3.3133616 14.0449222,3.60336366 13.8658584,3.78242743 L7.22487376,10.4230996 C7.13534187,10.5126315 7.01799729,10.5573193 6.90080895,10.5573193 C6.78346437,10.5573193 6.66627604,10.5126315 6.57674415,10.4230996 C6.39768038,10.2440358 6.39768038,9.95403376 6.57674415,9.77496999 L13.2177288,3.13429783 C13.3967926,2.95523406 13.6867947,2.95523406 13.8658584,3.13429783 Z" id="形状结合" stroke="#5F6269" stroke-width="0.2" fill="#5F6269" fill-rule="nonzero"></path>
    </g>
</svg>