<?xml version="1.0" encoding="UTF-8"?>
<svg width="18px" height="12.7058824px" viewBox="0 0 18 12.7058824" version="1.1" xmlns="http://www.w3.org/2000/svg" xmlns:xlink="http://www.w3.org/1999/xlink">
    <title>REST API</title>
    <g id="REST-API" stroke="none" stroke-width="1" fill="none" fill-rule="evenodd">
        <g transform="translate(0.000000, 0.000000)" fill="#0EB2CA" fill-rule="nonzero" id="形状">
            <path d="M0,8.36084631 L0,4.3654964 L1.76568779,4.3654964 C2.11993818,4.3654964 2.39072643,4.40083701 2.57619784,4.47337828 C2.76166924,4.54591955 2.90819165,4.67240177 3.0194745,4.85282492 C3.13075734,5.03510811 3.18454405,5.23599163 3.18454405,5.45547547 C3.18454405,5.73820042 3.09366306,5.97814462 2.91004637,6.171588 C2.72642968,6.36689142 2.44451314,6.48965357 2.06244204,6.54173448 C2.2015456,6.60869565 2.3072643,6.67565682 2.37959815,6.74075796 C2.53353941,6.88212044 2.68006182,7.05882353 2.81731066,7.27272727 L3.51097372,8.35898628 L2.8488408,8.35898628 L2.32210201,7.52755173 C2.16816074,7.28760753 2.04204019,7.10346431 1.94188563,6.9769821 C1.84173107,6.85049988 1.75270479,6.76121832 1.6748068,6.70913741 C1.59690881,6.65891653 1.51530139,6.62357591 1.43369397,6.60311555 C1.37434312,6.59009533 1.27604328,6.58451523 1.14064915,6.58451523 L0.528593509,6.58451523 L0.528593509,8.35898628 L0,8.35898628 L0,8.36084631 Z M0.526738794,6.12880725 L1.65996909,6.12880725 C1.90108192,6.12880725 2.08840804,6.10462683 2.22565688,6.05440595 C2.361051,6.00418507 2.46491499,5.92420367 2.53539413,5.81446175 C2.60587326,5.70471983 2.64111283,5.58567775 2.64111283,5.45547547 C2.64111283,5.26575215 2.57248841,5.11136945 2.43523957,4.99046733 C2.29799073,4.86956522 2.08284389,4.80818414 1.78794436,4.80818414 L0.526738794,4.80818414 L0.526738794,6.12880725 L0.526738794,6.12880725 Z M4.02102009,8.36084631 L4.02102009,4.3654964 L6.90139104,4.3654964 L6.90139104,4.83794466 L4.54775889,4.83794466 L4.54775889,6.06184608 L6.7511592,6.06184608 L6.7511592,6.53057429 L4.54775889,6.53057429 L4.54775889,7.88839805 L6.99227202,7.88839805 L6.99227202,8.35898628 L4.02102009,8.35898628 L4.02102009,8.36084631 Z M7.54126739,7.07742385 L8.03833076,7.03464311 C8.06244204,7.23366659 8.11622875,7.39920949 8.20340031,7.5256917 C8.28871716,7.65403395 8.42225657,7.75819577 8.60401855,7.83631714 C8.78578053,7.9144385 8.98979907,7.95535922 9.21607419,7.95535922 C9.41638331,7.95535922 9.59443586,7.9255987 9.74837713,7.86607766 C9.90231839,7.80655661 10.0173107,7.72471518 10.0914992,7.61869333 C10.1675425,7.5145315 10.2046368,7.40106952 10.2046368,7.27644734 C10.2046368,7.15182516 10.1675425,7.04208324 10.0952087,6.94722158 C10.0228748,6.85421995 9.90231839,6.77423855 9.73724884,6.71099744 C9.62967543,6.67007673 9.39412674,6.60497559 9.02874807,6.51569402 C8.6633694,6.42827249 8.40741886,6.34457103 8.25904173,6.26644966 C8.06800618,6.16600791 7.92704791,6.04324576 7.83431221,5.89444315 C7.74157651,5.74564055 7.69520866,5.58009765 7.69520866,5.39781446 C7.69520866,5.19693095 7.75270479,5.00720763 7.86584235,4.83236457 C7.98083462,4.65752151 8.14590417,4.52359916 8.36661515,4.43245757 C8.58547141,4.34131597 8.83029366,4.29667519 9.09737249,4.29667519 C9.39227202,4.29667519 9.65378671,4.34503604 9.87820711,4.4398977 C10.1026275,4.53475936 10.2769706,4.67612183 10.3993818,4.86026505 C10.5199382,5.04626831 10.5867079,5.25459196 10.5941267,5.48895606 L10.0896445,5.52801674 C10.0618238,5.27505231 9.97094281,5.08532899 9.81329212,4.95512671 C9.65749614,4.82678447 9.42565688,4.76168333 9.11962906,4.76168333 C8.80061824,4.76168333 8.56877898,4.81934434 8.42225657,4.93652639 C8.27573416,5.05370844 8.20340031,5.19507091 8.20340031,5.36061381 C8.20340031,5.50383632 8.2553323,5.6228784 8.35734158,5.71402 C8.45935085,5.80702162 8.72457496,5.90188328 9.1511592,5.99860498 C9.57959815,6.09532667 9.87264297,6.18088817 10.0321484,6.25342944 C10.2639876,6.36131132 10.4346213,6.4970937 10.5459042,6.66077656 C10.657187,6.82445943 10.7109737,7.01418275 10.7109737,7.22808649 C10.7109737,7.4401302 10.6497682,7.64101372 10.5292117,7.82887701 C10.4086553,8.01674029 10.2343122,8.16368286 10.0061824,8.26784469 C9.77805255,8.37200651 9.52210201,8.42408742 9.23833076,8.42408742 C8.87851623,8.42408742 8.57619784,8.37200651 8.33137558,8.26598465 C8.08840804,8.1599628 7.89737249,8.00186003 7.75826893,7.78981632 C7.62287481,7.58335271 7.54868624,7.34340851 7.54126739,7.07742385 L7.54126739,7.07742385 Z M11.4435858,8.36084631 L11.4435858,4.3654964 L14.3239567,4.3654964 L14.3239567,4.83794466 L11.9703246,4.83794466 L11.9703246,6.06184608 L14.1737249,6.06184608 L14.1737249,6.53057429 L11.9703246,6.53057429 L11.9703246,7.88839805 L14.4148377,7.88839805 L14.4148377,8.35898628 L11.4435858,8.35898628 L11.4435858,8.36084631 Z M16.1564142,8.36084631 L16.1564142,4.83794466 L14.8432767,4.83794466 L14.8432767,4.36735643 L18,4.36735643 L18,4.83794466 L16.683153,4.83794466 L16.683153,8.36084631 L16.1564142,8.36084631 L16.1564142,8.36084631 Z M9.71684699,4.04185073 L8.93415765,3.24761683 C9.43678516,2.74912811 9.94497682,2.23761916 10.4383308,1.7428505 C11.0095827,1.16996047 11.5993818,0.576610091 12.1836167,0 L12.9644513,0.796093932 C12.3839258,1.36898396 11.7959815,1.96047431 11.2265842,2.5315043 C10.7313756,3.02813299 10.2213292,3.54150198 9.71684699,4.04185073 L9.71684699,4.04185073 Z M3.4683153,10.3194606 L2.66522411,9.54754708 C2.87295209,9.32992327 3.08809892,9.1197396 3.29582689,8.91513601 C3.45904173,8.75517322 3.62967543,8.58777029 3.78918083,8.42408742 L4.58299845,9.20530109 C4.41421947,9.37828412 4.23987635,9.54754708 4.07295209,9.71308998 C3.87264297,9.9083934 3.66306028,10.112997 3.4683153,10.3194606 L3.4683153,10.3194606 Z M14.2794436,4.24087422 L13.4893354,3.45408045 C13.6173107,3.32387817 13.7489954,3.19739595 13.8769706,3.07463381 C14.114374,2.8458498 14.3406491,2.63008603 14.5409583,2.39572193 L15.3829985,3.12485468 C15.1474498,3.39827947 14.8914992,3.64380377 14.646677,3.8800279 C14.5187017,4.00465008 14.3981453,4.1199721 14.2794436,4.24087422 L14.2794436,4.24087422 Z M5.83307573,12.7058824 L5.04667697,11.9153685 C5.47326121,11.4894211 5.90355487,11.0523134 6.32086553,10.630086 C7.02936631,9.91211346 7.76383308,9.16996047 8.50386399,8.44640781 L9.27913447,9.24622181 C8.54652241,9.96047431 7.81761978,10.6989072 7.11097372,11.4150198 C6.69551777,11.8391072 6.26151468,12.2780749 5.83307573,12.7058824 L5.83307573,12.7058824 Z"></path>
        </g>
    </g>
</svg>