<?xml version="1.0" encoding="UTF-8"?>
<svg width="11.52px" height="16px" viewBox="0 0 11.52 16" version="1.1" xmlns="http://www.w3.org/2000/svg" xmlns:xlink="http://www.w3.org/1999/xlink">
    <title>RocketMQ</title>
    <g id="RocketMQ" stroke="none" stroke-width="1" fill="none" fill-rule="evenodd">
        <path d="M5.76,16 C4.5,14.83 4.55133333,13.5046667 4.55133333,13.5046667 L6.96866667,13.5046667 C6.96866667,13.5046667 7.02,14.83 5.76,16 Z M5.76,1.32533333 C4.69666667,2.72933333 2.63133333,5.92066666 2.63133333,9.51933333 C2.63133333,10.5606667 2.82666666,11.4326667 3.024,12.048 L8.496,12.048 C8.69333333,11.4326667 8.88866667,10.5606667 8.88866667,9.51933333 C8.88866667,5.92066666 6.82333334,2.72933333 5.76,1.32533333 Z M9.72666667,9.51933333 C9.72666667,11.89 8.818,13.4546667 8.818,13.4546667 L7.846,12.886 L3.674,12.886 L2.702,13.4546667 C2.702,13.4546667 1.79333333,11.89 1.79333333,9.51933333 C1.79333333,4.29733333 5.75866667,0.00133332813 5.76,0 C5.76133333,0.00133332813 9.72666667,4.29733333 9.72666667,9.51933333 Z M10.2753333,11.076 C10.2753333,11.9846667 9.872,12.9726667 9.594,13.3893333 L11.52,13.3893333 L11.3066667,12.0793333 L10.2753333,11.076 Z M0.213333328,12.08 L-7.99360578e-15,13.39 L1.926,13.39 C1.64733333,12.9733333 1.24466667,11.9853333 1.24466667,11.0766667 L0.213333328,12.08 Z M5.00466667,8.29866667 C4.93445559,8.29271678 4.8668772,8.32680983 4.82994041,8.38681542 C4.79300362,8.44682102 4.79300362,8.52251233 4.82994041,8.58251792 C4.8668772,8.64252352 4.93445559,8.67661656 5.00466667,8.67066667 C5.10130319,8.66247741 5.17557116,8.58164956 5.17557116,8.48466667 C5.17557116,8.38768379 5.10130319,8.30685593 5.00466667,8.29866667 L5.00466667,8.29866667 Z M5.60133333,8.29866667 C5.53112224,8.29271678 5.46354385,8.32680983 5.42660706,8.38681542 C5.38967028,8.44682102 5.38967028,8.52251233 5.42660706,8.58251792 C5.46354385,8.64252352 5.53112224,8.67661656 5.60133333,8.67066667 C5.69796984,8.66247741 5.77223782,8.58164956 5.77223782,8.48466667 C5.77223782,8.38768379 5.69796984,8.30685593 5.60133333,8.29866667 Z M6.198,8.29866667 C6.12778891,8.29271678 6.06021052,8.32680983 6.02327374,8.38681542 C5.98633695,8.44682102 5.98633695,8.52251233 6.02327374,8.58251792 C6.06021052,8.64252352 6.12778891,8.67661656 6.198,8.67066667 C6.29463651,8.66247741 6.36890449,8.58164956 6.36890449,8.48466667 C6.36890449,8.38768379 6.29463651,8.30685593 6.198,8.29866667 Z M8.23666667,10.6533333 C8.23589344,11.0575031 7.9829103,11.4182158 7.60316828,11.5565987 C7.22342625,11.6949816 6.79767952,11.5816068 6.53705031,11.2726955 C6.27642109,10.9637841 6.23633359,10.5250278 6.43666667,10.174 L6.196,9.84533333 C5.6759867,10.0738824 5.07103322,9.98449959 4.63933333,9.61533333 L4.37066667,9.84866667 C4.42180681,10.0876559 4.31674165,10.3329267 4.10845627,10.4607874 C3.90017089,10.5886481 3.63390708,10.5713259 3.44394352,10.4175566 C3.25397996,10.2637873 3.18157875,10.0069712 3.26325232,9.77662233 C3.34492588,9.5462735 3.56293386,9.39242619 3.80733333,9.39266667 C3.87666666,9.39266667 3.942,9.40666667 4.00333333,9.42933333 L4.28933333,9.18066667 C4.01672655,8.67005065 4.06727631,8.04729853 4.41866667,7.58733333 L4.118,7.26066667 C4.096,7.26333334 4.07466667,7.26733334 4.05266667,7.26733333 C3.84452072,7.26765903 3.65888387,7.13644843 3.58973214,6.94012502 C3.52058041,6.74380161 3.58300679,6.52521477 3.74540881,6.39502097 C3.90781084,6.26482717 4.13474278,6.25144239 4.31132359,6.3616425 C4.4879044,6.47184261 4.57559368,6.68157541 4.53,6.88466667 L4.83333333,7.21466667 C5.29131719,6.93543188 5.86463937,6.92624647 6.33133333,7.19066667 L6.588,6.934 C6.4725905,6.59824392 6.60413009,6.22726002 6.90526906,6.03919933 C7.20640802,5.85113865 7.59748553,5.89574921 7.84853482,6.14679851 C8.09958412,6.3978478 8.14419468,6.78892531 7.95613399,7.09006427 C7.76807331,7.39120323 7.39708941,7.52274282 7.06133333,7.40733333 L6.826,7.64266667 C7.20818351,8.19474693 7.17040279,8.93503004 6.734,9.44533333 L6.95333333,9.74466667 C7.054,9.70933334 7.16133333,9.68866667 7.274,9.68866667 C7.80598947,9.68976962 8.23666667,10.1213427 8.23666667,10.6533333 L8.23666667,10.6533333 Z M5.60133333,9.654 C6.02563217,9.6641332 6.42210985,9.44356585 6.63723849,9.07770815 C6.85236713,8.71185045 6.85236713,8.25814955 6.63723849,7.89229185 C6.42210985,7.52643415 6.02563217,7.3058668 5.60133333,7.316 C4.96658641,7.33115917 4.45991831,7.85007209 4.45991831,8.485 C4.45991831,9.11992791 4.96658641,9.63884083 5.60133333,9.654 L5.60133333,9.654 Z" fill="#BDC4DF" fill-rule="nonzero"></path>
    </g>
</svg>