<svg height="28" viewBox="0 0 28 28" width="28" xmlns="http://www.w3.org/2000/svg" xmlns:xlink="http://www.w3.org/1999/xlink"><defs><linearGradient id="a" x1="24.850605%" x2="77.793401%" y1="9.602625%" y2="89.131846%"><stop offset="0" stop-color="#5770ff"/><stop offset="1" stop-color="#0b6bf8" stop-opacity=".988254"/></linearGradient><circle id="b" cx="14" cy="14" r="14"/><filter id="c" height="150%" width="150%" x="-25%" y="-17.9%"><feOffset dx="0" dy="2" in="SourceAlpha" result="shadowOffsetOuter1"/><feGaussianBlur in="shadowOffsetOuter1" result="shadowBlurOuter1" stdDeviation="2"/><feColorMatrix in="shadowBlurOuter1" type="matrix" values="0 0 0 0 0.219607843   0 0 0 0 0.431372549   0 0 0 0 0.988235294  0 0 0 0.230741914 0"/></filter><linearGradient id="d" x1="24.541508%" x2="100%" y1="50%" y2="72.797286%"><stop offset="0" stop-color="#fff"/><stop offset=".482766403" stop-color="#fcfcfc"/><stop offset="1" stop-color="#ebebeb"/></linearGradient><path id="e" d="m16.4160251 9.29070439 5.7324082 8.59861221c.1531762.2297643.0910893.540199-.1386751.6933752-.0821337.0547559-.1786376.0839749-.2773501.0839749h-11.4648162c-.2761424 0-.50000002-.2238577-.50000002-.5 0-.0987125.02921901-.1952164.08397485-.2773501l5.73240817-8.59861221c.1531762-.22976435.4636109-.29185128.6933752-.13867505.0549261.03661743.1020576.0837489.138675.13867505z"/><filter id="f" height="196%" width="168.5%" x="-34.2%" y="-56%"><feOffset dx="0" dy="-1" in="SourceAlpha" result="shadowOffsetOuter1"/><feGaussianBlur in="shadowOffsetOuter1" result="shadowBlurOuter1" stdDeviation="1.5"/><feColorMatrix in="shadowBlurOuter1" type="matrix" values="0 0 0 0 0.161833913   0 0 0 0 0.354389388   0 0 0 0 0.863026495  0 0 0 1 0"/></filter></defs><g fill="none" fill-rule="evenodd"><use fill="#000" filter="url(#c)" xlink:href="#b"/><use fill="url(#a)" fill-rule="evenodd" xlink:href="#b"/><g transform="matrix(0 1 -1 0 29.666667 -2.333333)"><use fill="#000" filter="url(#f)" xlink:href="#e"/><use fill="url(#d)" fill-rule="evenodd" xlink:href="#e"/></g></g></svg>