<?xml version="1.0" encoding="UTF-8"?>
<svg width="14px" height="14px" viewBox="0 0 14 14" version="1.1" xmlns="http://www.w3.org/2000/svg" xmlns:xlink="http://www.w3.org/1999/xlink">
    <title>切片</title>
    <g id="2.0" stroke="none" stroke-width="1" fill="none" fill-rule="evenodd">
        <g id="身份验证-身份鉴权" transform="translate(-280.000000, -247.000000)" fill="#5F6269" fill-rule="nonzero">
            <g id="编组-11" transform="translate(262.000000, 157.000000)">
                <g id="搜索" transform="translate(18.000000, 90.000000)">
                    <rect id="矩形" opacity="0" x="0" y="0" width="14" height="14"></rect>
                    <path d="M13.2125,12.64375 L10.0625,9.5375 C10.89375,8.61875 11.375,7.39375 11.375,6.0375 C11.375,3.0625 8.96875,0.7 6.0375,0.7 C3.0625,0.7 0.7,3.10625 0.7,6.0375 C0.7,9.0125 3.10625,11.375 6.0375,11.375 C7.39375,11.375 8.61875,10.89375 9.5375,10.0625 L12.6875,13.16875 C12.81875,13.3 13.08125,13.3 13.2125,13.16875 C13.3875,12.99375 13.3875,12.775 13.2125,12.64375 Z M1.4,6.0375 C1.4,3.5 3.45625,1.4 6.0375,1.4 C8.61875,1.4 10.675,3.45625 10.675,6.0375 C10.675,7.2625 10.19375,8.4 9.40625,9.23125 C9.3625,9.23125 9.3625,9.275 9.31875,9.275 C9.275,9.31875 9.275,9.31875 9.275,9.3625 C8.44375,10.15 7.30625,10.63125 6.08125,10.63125 C3.5,10.675 1.4,8.575 1.4,6.0375 Z" id="形状"></path>
                </g>
            </g>
        </g>
    </g>
</svg>