<?xml version="1.0" encoding="UTF-8"?>
<svg width="16px" height="16px" viewBox="0 0 16 16" version="1.1" xmlns="http://www.w3.org/2000/svg" xmlns:xlink="http://www.w3.org/1999/xlink">
    <title>搜索</title>
    <g id="搜索" stroke="none" stroke-width="1" fill="none" fill-rule="evenodd">
        <g fill="#5F6269" fill-rule="nonzero">
            <rect id="矩形" opacity="0" x="0" y="0" width="16" height="16"></rect>
            <path d="M15.1,14.45 L11.5,10.9 C12.45,9.85 13,8.45 13,6.9 C13,3.5 10.25,0.8 6.9,0.8 C3.5,0.8 0.8,3.55 0.8,6.9 C0.8,10.3 3.55,13 6.9,13 C8.45,13 9.85,12.45 10.9,11.5 L14.5,15.05 C14.65,15.2 14.95,15.2 15.1,15.05 C15.3,14.85 15.3,14.6 15.1,14.45 Z M1.6,6.9 C1.6,4 3.95,1.6 6.9,1.6 C9.85,1.6 12.2,3.95 12.2,6.9 C12.2,8.3 11.65,9.6 10.75,10.55 C10.7,10.55 10.7,10.6 10.65,10.6 C10.6,10.65 10.6,10.65 10.6,10.7 C9.65,11.6 8.35,12.15 6.95,12.15 C4,12.2 1.6,9.8 1.6,6.9 Z" id="形状"></path>
        </g>
    </g>
</svg>