<?xml version="1.0" encoding="utf-8"?>
<!-- Generator: Adobe Illustrator 25.3.1, SVG Export Plug-In . SVG Version: 6.00 Build 0)  -->
<svg version="1.1" id="图层_1" xmlns="http://www.w3.org/2000/svg" xmlns:xlink="http://www.w3.org/1999/xlink" x="0px" y="0px"
	 viewBox="0 0 29.5 29.5" style="enable-background:new 0 0 29.5 29.5;" xml:space="preserve">
<style type="text/css">
	.st0{display:none;fill-rule:evenodd;clip-rule:evenodd;fill:#16D0FF;fill-opacity:0.149;stroke:#3699FF;stroke-dasharray:4,2;}
	.st1{display:none;fill-rule:evenodd;clip-rule:evenodd;fill:#C3C7CF;}
	.st2{fill:#C3C7CF;}
	.st3{fill-rule:evenodd;clip-rule:evenodd;fill:#5F6269;}
</style>
<path class="st0" d="M1.5,1.5h26v26h-26V1.5z"/>
<path class="st1" d="M22.9,12.7c0,0-0.1-0.1-0.1-0.1v0l-0.1,0c-0.7-0.6-1.2-1-1.7-1h-0.1c-0.9,0-1.6-0.7-1.6-1.6
	c0-0.2,0.1-0.5,0.1-0.6c0.3-0.6,0-0.6-0.7-1.6l-2-1.1l0,0c-0.1,0-0.3-0.1-0.5-0.1c-0.4,0-0.8,0.2-1,0.4c-0.3,0.3-1,0.8-1.3,0.8
	c-0.4,0-1-0.5-1.3-0.8c-0.3-0.3-0.6-0.4-1-0.4c-0.2,0,0.4,0.1-0.5,0.1l0,0L8.8,7.7l0,0c-0.5,0.8-0.1,1-0.5,1.6l0,0
	c0,0.1,0.2,0.4,0.2,0.9c0,0.6-0.7,1.4-1.6,1.4H6.8c-0.6,0-1,0.9-1.1,1.1l0,0v0c0,0,0,0,0,0.1c0,0.3-0.2,0.9-0.2,1.5s0.1,1.2,0.2,1.5
	c0,0,0,0.1,0,0.1v0l0,0c0.1,0.6,0.6,1,1.1,1h0c0.9,0,1.6,0.7,1.6,1.6c0,0.2-0.1,1.1-0.1,0.6c0.4,0.6,0,1.3,0.5,1.6l0,0l2,1.1l0,0
	c0.5,0,0.3,1,0.5,1c0.4,0,0.8-1,1-1.3c0,0,0,0,0.1-0.1c0.2-0.2,0.9-0.8,1.3-0.8c0.3,0,0.8,0.3,1.4,0.8c0.3,0.3,0.6,0.8,1,0.8
	c0.3,0,0.4-0.5,0.7-0.6l0,0l2-1.1l0,0c0.5-0.3,0.7-1,0.5-1.6l0,0l0,0c0,0-0.2-0.3-0.1-0.6l0,0v0c0-0.9,0.7-1.6,1.6-1.6H21
	c0.6,0,1-0.4,1.7-1.1l0.1,0v0c0,0,0.1,0,0.1-0.1c-0.7-0.3-0.6-0.9-0.6-1.5C22.2,13.7,22.1,13.2,22.9,12.7L22.9,12.7z M13.9,16.8
	c-1.4,0-2.6-1.1-2.6-2.6s1.2-2.6,2.6-2.6c1.4,0,2.6,1.1,2.6,2.6S15.3,16.8,13.9,16.8L13.9,16.8z"/>
<path class="st2" d="M22,12.7C22,12.7,22,12.7,22,12.7L22,12.7l0-0.1c-0.1-0.6-0.6-1-1.1-1h-0.1c-0.9,0-1.6-0.7-1.6-1.6
	c0-0.2,0.1-0.5,0.1-0.6c0.3-0.6,0-1.3-0.6-1.6l-2-1.1l0,0c-0.1,0-0.3-0.1-0.5-0.1c-0.4,0-0.8,0.2-1,0.4c-0.3,0.3-0.9,0.8-1.3,0.8
	c-0.4,0-1-0.5-1.3-0.8c-0.3-0.3-0.6-0.4-1-0.4c-0.2,0-0.4,0.1-0.5,0.1l0,0L8.9,7.7l0,0c-0.5,0.3-0.7,1-0.5,1.6l0,0
	c0,0.1,0.2,0.4,0.2,0.7c0,0.9-0.7,1.6-1.6,1.6H6.9c-0.5,0-1,0.4-1.1,1.1l0,0v0c0,0,0,0,0,0.1c0,0.3-0.2,0.9-0.2,1.5
	c0,0.5,0.1,1.2,0.2,1.5c0,0,0,0.1,0,0.1v0l0,0c0.1,0.6,0.6,1,1.1,1h0c0.9,0,1.6,0.7,1.6,1.6c0,0.2-0.1,0.5-0.1,0.6
	c-0.2,0.6,0,1.3,0.5,1.6l0,0l1.9,1.1l0,0c0.1,0,0.3,0.1,0.5,0.1c0.4,0,0.8-0.2,1-0.4c0,0,0,0,0.1-0.1c0.2-0.2,0.9-0.8,1.3-0.8
	c0.3,0,0.8,0.3,1.4,0.8c0.3,0.3,0.6,0.4,1,0.4c0.3,0,0.4-0.1,0.7-0.2l0,0l2-1.1l0,0c0.5-0.3,0.7-1,0.5-1.6l0,0l0,0
	c0,0-0.2-0.3-0.1-0.6l0,0v0c0-0.9,0.7-1.6,1.6-1.6h0.1c0.5,0,1-0.4,1.1-1.1l0,0v0c0,0,0,0,0-0.1c0-0.3,0.2-0.9,0.2-1.5
	C22.1,13.7,22,13,22,12.7L22,12.7z M13.9,16.8c-1.4,0-2.6-1.1-2.6-2.6c0-1.4,1.1-2.6,2.6-2.6c1.4,0,2.6,1.1,2.6,2.6
	C16.4,15.7,15.3,16.8,13.9,16.8L13.9,16.8z M13.9,16.8"/>
<path class="st3" d="M13.9,16.8c-1.4,0-2.6-1.1-2.6-2.6s1.2-2.6,2.6-2.6c1.4,0,2.6,1.1,2.6,2.6S15.3,16.8,13.9,16.8L13.9,16.8z"/>
</svg>
