<?xml version="1.0" encoding="UTF-8"?>
<svg width="12px" height="12px" viewBox="0 0 12 12" version="1.1" xmlns="http://www.w3.org/2000/svg" xmlns:xlink="http://www.w3.org/1999/xlink">
    <title>下拉-实心-小</title>
    <g id="下拉-实心-小" stroke="none" stroke-width="1" fill="none" fill-rule="evenodd">
        <rect id="矩形" transform="translate(6.000000, 6.000000) rotate(90.000000) translate(-6.000000, -6.000000) " x="0" y="0" width="12" height="12"></rect>
        <path d="M3.27336407,7.67196312 L5.34635574,5.18437311 C5.41706856,5.09951773 5.5431815,5.08805292 5.62803688,5.15876573 C5.63732949,5.16650958 5.64590041,5.1750805 5.65364426,5.18437311 L7.72663593,7.67196312 C7.79734875,7.7568185 7.78588393,7.88293144 7.70102855,7.95364426 C7.66508555,7.98359676 7.61977897,8 7.57299167,8 L3.42700833,8 C3.31655138,8 3.22700833,7.91045695 3.22700833,7.8 C3.22700833,7.7532127 3.24341157,7.70790612 3.27336407,7.67196312 Z" id="路径" fill-opacity="0.6" fill="#5F6269" transform="translate(5.500000, 6.500000) rotate(180.000000) translate(-5.500000, -6.500000) "></path>
    </g>
</svg>