<?xml version="1.0" encoding="UTF-8"?>
<svg width="12px" height="12px" viewBox="0 0 12 12" version="1.1" xmlns="http://www.w3.org/2000/svg" xmlns:xlink="http://www.w3.org/1999/xlink">
    <title>排序-升序</title>
    <defs>
        <path d="M2,0 L10,0 C11.1045695,-2.02906125e-16 12,0.8954305 12,2 L12,10 C12,11.1045695 11.1045695,12 10,12 L2,12 C0.8954305,12 -7.52907669e-16,11.1045695 0,10 L0,2 C-1.3527075e-16,0.8954305 0.8954305,-6.85272294e-16 2,0 Z" id="path-1"></path>
        <filter x="-41.7%" y="-33.3%" width="183.3%" height="183.3%" filterUnits="objectBoundingBox" id="filter-2">
            <feOffset dx="0" dy="1" in="SourceAlpha" result="shadowOffsetOuter1"></feOffset>
            <feGaussianBlur stdDeviation="1.5" in="shadowOffsetOuter1" result="shadowBlurOuter1"></feGaussianBlur>
            <feComposite in="shadowBlurOuter1" in2="SourceAlpha" operator="out" result="shadowBlurOuter1"></feComposite>
            <feColorMatrix values="0 0 0 0 0.879195954   0 0 0 0 0.885394054   0 0 0 0 0.922582654  0 0 0 1 0" type="matrix" in="shadowBlurOuter1"></feColorMatrix>
        </filter>
    </defs>
    <g id="排序-升序" stroke="none" stroke-width="1" fill="none" fill-rule="evenodd">
        <g id="矩形">
            <use fill="black" fill-opacity="1" filter="url(#filter-2)" xlink:href="#path-1"></use>
            <path stroke="#787D8B" stroke-width="0.2" d="M10,0.1 C10.5246705,0.1 10.9996705,0.312664744 11.3435029,0.656497116 C11.6873353,1.00032949 11.9,1.47532949 11.9,2 L11.9,2 L11.9,10 C11.9,10.5246705 11.6873353,10.9996705 11.3435029,11.3435029 C10.9996705,11.6873353 10.5246705,11.9 10,11.9 L10,11.9 L2,11.9 C1.47532949,11.9 1.00032949,11.6873353 0.656497116,11.3435029 C0.312664744,10.9996705 0.1,10.5246705 0.1,10 L0.1,10 L0.1,2 C0.1,1.47532949 0.312664744,1.00032949 0.656497116,0.656497116 C1.00032949,0.312664744 1.47532949,0.1 2,0.1 L2,0.1 Z" stroke-linejoin="square" fill="#FFFFFF" fill-rule="evenodd"></path>
        </g>
        <path d="M5.37387262,9.43618232 C5.37387262,9.65709622 5.19478652,9.83618232 4.97387262,9.83618232 C4.78057296,9.83618232 4.61929771,9.69906953 4.5819992,9.51679627 L4.57387262,9.43618232 L4.57295569,5.0109124 L2.6119557,5.01167884 C2.59859295,5.01167884 2.5855082,5.00900439 2.57341585,5.00395386 L2.54083039,4.98197244 C2.50200831,4.94269102 2.50238067,4.87937562 2.54166209,4.84055353 L2.54166209,4.84055353 L5.20355521,2.20978709 C5.22227391,2.19128728 5.24753089,2.1809124 5.27384881,2.1809124 C5.32907729,2.1809124 5.37384881,2.22568392 5.37384881,2.2809124 L5.37384881,2.2809124 L5.37387262,9.43618232 Z" id="形状结合" fill="#E92E5E" fill-rule="nonzero"></path>
        <path d="M7.26461534,2.23782641 C7.45791501,2.23782641 7.61919026,2.37493921 7.65648876,2.55721246 L7.66461534,2.63782641 L7.66448186,6.94782641 L9.60637498,6.94813834 C9.61973773,6.94813834 9.63282247,6.95081279 9.64491482,6.95586331 L9.67750028,6.97784473 C9.71632237,7.01712615 9.71595001,7.08044156 9.67666858,7.11926364 L9.67666858,7.11926364 L7.01477547,9.75003008 C6.99605677,9.7685299 6.97079978,9.77890478 6.94448186,9.77890478 C6.88925339,9.77890478 6.84448186,9.73413325 6.84448186,9.67890478 L6.84448186,9.67890478 L6.84448186,7.04813834 C6.84448186,7.02613324 6.85158945,7.00578821 6.86363413,6.98927375 L6.86461534,2.63782641 C6.86461534,2.41691251 7.04370144,2.23782641 7.26461534,2.23782641 Z" id="形状结合" fill="#5F6269" fill-rule="nonzero"></path>
    </g>
</svg>