<?xml version="1.0" encoding="UTF-8"?>
<svg width="13px" height="16px" viewBox="0 0 13 16" version="1.1" xmlns="http://www.w3.org/2000/svg" xmlns:xlink="http://www.w3.org/1999/xlink">
    <title>SQLite</title>
    <g id="SQLite" stroke="none" stroke-width="1" fill="none" fill-rule="evenodd">
        <path d="M12.3015795,0.345788531 C11.6154992,-0.263075374 10.7858207,-0.022734359 9.97209754,0.714311422 C9.8444547,0.826470562 9.7327672,0.938629703 9.60512435,1.06681158 C9.41366008,1.27510712 9.22219581,1.49942541 9.04668689,1.73976642 C8.85522262,1.65965275 8.64780299,1.61158455 8.42442801,1.61158455 L1.62744632,1.61158455 C0.733946379,1.61158455 0,2.34863033 0,3.24590345 L0,10.0715883 C0,10.9688614 0.733946379,11.7059072 1.62744632,11.7059072 L6.41405314,11.7059072 C6.47787456,12.0263619 6.50978528,12.2506802 6.50978528,12.2506802 C6.50978528,12.2506802 6.50978528,12.3147711 6.52574063,12.3948848 C6.49382992,13.0037487 6.50978528,13.644658 6.55765135,14.2214765 C6.62147277,14.9905677 6.73316026,15.6474998 6.89271382,16 L6.98844596,15.9519318 C6.76507097,15.2629542 6.66933884,14.3496584 6.71720491,13.3081806 C6.78102633,11.7059072 7.14799952,9.78317907 7.81812447,7.76431454 C8.96691011,4.71999501 10.5464904,2.28453939 12.0143831,1.13090251 C10.6741332,2.33260759 8.88713333,6.22613204 8.34465123,7.66817813 C7.73834769,9.2864743 7.32350844,10.7926113 7.05226738,12.2506802 C7.49901735,10.8887477 8.9349994,10.3119293 8.9349994,10.3119293 C8.9349994,10.3119293 9.63703507,9.44670165 10.4667136,8.19692837 C9.97209754,8.30908751 9.17432974,8.50136032 8.90308869,8.61351946 C8.50420479,8.78976954 8.39251729,8.83783774 8.39251729,8.83783774 C8.39251729,8.83783774 9.68490114,8.05272376 10.8017761,7.68420087 C12.3015795,5.26476798 13.9768919,1.83590283 12.3015795,0.345788531 Z M6.49382992,7.42783712 C6.65338348,7.74829181 6.78102633,8.1648829 6.86080311,8.46931485 C6.87675847,8.54942852 6.89271382,8.62954219 6.90866918,8.69363313 C6.94057989,8.83783774 6.95653525,8.94999688 6.95653525,8.94999688 L6.89271382,8.75772407 C6.87675847,8.7256786 6.87675847,8.69363313 6.86080311,8.66158766 C6.86080311,8.64556493 6.84484775,8.62954219 6.84484775,8.61351946 C6.74911562,8.40522391 6.49382992,7.95658735 6.38214243,7.74829181 C6.28641029,8.03670102 6.20663351,8.29306477 6.12685673,8.53340579 C6.44596385,9.12624696 6.63742813,10.1356792 6.63742813,10.1356792 C6.63742813,10.1356792 6.62147277,10.0715883 6.54169599,9.84727001 C6.47787456,9.63897446 6.11090138,9.01408782 6.03112459,8.86988321 C5.88752639,9.39863344 5.82370497,9.76715633 5.88752639,9.86329274 C5.96730317,9.99147462 6.03112459,10.1997702 6.11090138,10.4240884 L1.62744632,10.4240884 C1.4519374,10.4240884 1.29238384,10.2798838 1.29238384,10.087611 L1.29238384,3.24590345 C1.29238384,3.06965337 1.43598205,2.90942603 1.62744632,2.90942603 L8.24891909,2.90942603 C7.41924057,4.33544939 6.76507097,6.03385923 6.49382992,7.42783712 Z" fill="#00CCFF" fill-rule="nonzero"></path>
    </g>
</svg>