<?xml version="1.0" encoding="UTF-8"?>
<svg width="12.1750143px" height="10px" viewBox="0 0 12.1750143 10" version="1.1" xmlns="http://www.w3.org/2000/svg" xmlns:xlink="http://www.w3.org/1999/xlink">
    <g stroke="none" stroke-width="1" fill="none" fill-rule="evenodd">
        <rect stroke="#C7D4DC" stroke-width="0.3" fill="#F3F9FD" x="0.15" y="0.15" width="9.7" height="9.7" rx="1"></rect>
        <path d="M11.3686676,0.45648552 C11.49201,0.33502731 11.8199522,0.232145003 12.0238566,0.360027712 C12.227761,0.48791042 12.2041272,0.737332622 12.0784055,0.938309182 L12.0238566,1.01019062 L6.44089549,7.7258918 C6.12107602,8.02446535 5.76352212,8.20988382 5.3682338,8.28214721 C4.77530133,8.3905423 4.28634946,7.78430309 3.93029891,7.41678639 C3.35298931,6.82088528 2.57521635,5.94219508 1.59698003,4.7807158 C1.39266964,4.59494208 1.4202684,4.32879932 1.50862421,4.20320507 C1.59698003,4.07761081 1.80013319,4.07761081 2.00118943,4.20320507 L2.07310543,4.25770838 L4.15248885,5.88905557 C4.61344576,6.21326311 4.966452,6.37536688 5.21150757,6.37536688 C5.45656314,6.37536688 5.70644938,6.2535724 5.96116628,6.00998343 L11.3686676,0.45648552 Z" fill="#40CD88" fill-rule="nonzero"></path>
    </g>
</svg>