<?xml version="1.0" encoding="utf-8"?>
<!-- Generator: Adobe Illustrator 25.3.1, SVG Export Plug-In . SVG Version: 6.00 Build 0)  -->
<svg version="1.1" id="图层_1" xmlns="http://www.w3.org/2000/svg" xmlns:xlink="http://www.w3.org/1999/xlink" x="0px" y="0px"
	 viewBox="0 0 29.5 29.5" style="enable-background:new 0 0 29.5 29.5;" xml:space="preserve">
<style type="text/css">
	.st0{display:none;fill-rule:evenodd;clip-rule:evenodd;fill:#16D0FF;fill-opacity:0.149;stroke:#3699FF;stroke-dasharray:4,2;}
	.st1{fill-rule:evenodd;clip-rule:evenodd;fill:#FFC9C9;}
	.st2{fill-rule:evenodd;clip-rule:evenodd;fill:#FF5E5E;}
	.st3{fill-rule:evenodd;clip-rule:evenodd;fill:#FFFFFF;}
</style>
<path class="st0" d="M1.5,1.5h26v26h-26V1.5z"/>
<path class="st1" d="M21.5,12.4c0-1.6-1.2-2.9-2.7-2.9h-6.6c-0.2,0-0.4,0.1-0.5,0.3c-0.1,0.2-0.1,0.4,0,0.6l0.9,2.1
	c0.1,0.2,0.3,0.4,0.5,0.4h8.1C21.4,12.8,21.5,12.6,21.5,12.4L21.5,12.4z"/>
<path class="st2" d="M6.5,11.1V20c0,0.7,0.3,1.3,0.7,1.8c0.5,0.5,1.1,0.7,1.7,0.7h11.7c0.1,0,0.7-0.3,1.1-0.7
	c0.5-0.5,0.7-1.1,0.7-1.8v-6.2c0-0.5-0.2-0.9-0.3-1.2c-0.4-0.3-1.2-0.1-1.7-0.1h-4c-0.6,0-1.6-0.8-1.9-1.4l-0.8-1.7
	c-0.3-0.6-0.8-1-1.5-1H8.9C7.6,8.5,6.5,9.6,6.5,11.1L6.5,11.1z"/>
<path class="st3" d="M9.5,18.5h3c1,0,1,0.4,1,1c0,1,0,1-1,1h-3c-0.6,0-1,0-1-1C8.5,18.9,8.9,18.5,9.5,18.5z"/>
</svg>
