<?xml version="1.0" encoding="UTF-8"?>
<svg width="39px" height="54px" viewBox="0 0 39 54" version="1.1" xmlns="http://www.w3.org/2000/svg" xmlns:xlink="http://www.w3.org/1999/xlink">
    <title>订阅</title>
    <defs>
        <linearGradient x1="0%" y1="87.3963262%" x2="100%" y2="1.94156094%" id="linearGradient-1">
            <stop stop-color="#FBA54A" offset="0%"></stop>
            <stop stop-color="#FEC748" offset="100%"></stop>
        </linearGradient>
        <linearGradient x1="50%" y1="1.55670124e-13%" x2="50%" y2="100%" id="linearGradient-2">
            <stop stop-color="#FFFFFF" stop-opacity="0.846864073" offset="0%"></stop>
            <stop stop-color="#FEDF97" offset="84.58552%"></stop>
            <stop stop-color="#FEC748" offset="100%"></stop>
        </linearGradient>
        <filter x="-22.2%" y="-100.0%" width="144.4%" height="300.0%" filterUnits="objectBoundingBox" id="filter-3">
            <feGaussianBlur stdDeviation="2" in="SourceGraphic"></feGaussianBlur>
        </filter>
    </defs>
    <g id="1" stroke="none" stroke-width="1" fill="none" fill-rule="evenodd">
        <g id="切图" transform="translate(-353.000000, -18.000000)">
            <g id="订阅" transform="translate(356.000000, 18.000000)">
                <rect id="矩形" fill="url(#linearGradient-1)" x="0" y="0" width="33.66" height="33" rx="10"></rect>
                <g id="喜爱" transform="translate(9.000000, 10.000000)" fill="url(#linearGradient-2)">
                    <path d="M12.2711802,0.00644977589 C13.0059814,0.066169923 13.6193033,0.242344357 14.1111461,0.534973078 C14.6029888,0.827601799 14.9940927,1.19786671 15.2844577,1.64576781 C15.5748227,2.09366892 15.7733375,2.60129017 15.8800022,3.16863157 C15.9866669,3.73597296 16.0222218,4.3182444 15.9866669,4.91544587 C15.951112,5.51264734 15.8474102,6.08297475 15.6755616,6.62642808 C15.5037129,7.16988142 15.2903835,7.67750267 15.0355734,8.14929184 C14.7807633,8.621081 14.4992871,9.05703807 14.1911446,9.45716306 C14.1083106,9.56472354 14.0254766,9.66947892 13.9426426,9.7714292 C13.861008,9.6090458 13.6927115,9.5 13.49875,9.5 L11.5,9.5 L11.5,7.50125 C11.500199,7.36846584 11.4476245,7.24104475 11.3538491,7.14703492 C11.2600737,7.05302508 11.1327842,7.0001325 11,7 C10.722,7 10.5,7.2245 10.5,7.50125 L10.5,9.5 L8.50125,9.5 C8.36846584,9.49980096 8.24104475,9.55237555 8.14703492,9.64615094 C8.05302508,9.73992633 8.0001325,9.86721576 8,10 C8,10.278 8.2245,10.5 8.50125,10.5 L10.5,10.5 L10.5,12.49875 C10.5,12.6143865 10.5389936,12.7208301 10.604522,12.8056038 C10.5047962,12.8737442 10.4052596,12.9404636 10.3067721,13.0045398 C9.83863262,13.3091125 9.41197385,13.5509791 9.0267958,13.7301396 C8.64161775,13.9093 8.34236403,13.9988802 8.12903465,13.9988802 C7.892002,14.0108243 7.58978537,13.9272161 7.22238477,13.7480556 C6.85498417,13.5688952 6.45202867,13.3270286 6.01351827,13.0224558 C5.57500787,12.7178831 5.11279421,12.3565762 4.62687728,11.9385352 C4.14096035,11.5204941 3.66096924,11.0785651 3.18690395,10.6127479 C2.8787615,10.3141472 2.5469158,9.96777032 2.19136683,9.57361735 C1.83581786,9.17946437 1.50100924,8.74649331 1.18694098,8.27470415 C0.872872725,7.80291498 0.603248088,7.29230773 0.378067073,6.74288237 C0.152886058,6.19345702 0.0284439177,5.60819958 0.00474065295,4.98711005 C-0.0189626118,4.36602052 0.0462213663,3.78374908 0.200292587,3.24029574 C0.354363808,2.6968424 0.585470639,2.2101232 0.893613081,1.78013815 C1.20175552,1.35015309 1.58100776,0.988846196 2.03136979,0.696217475 C2.48173182,0.403588754 2.99135201,0.197554247 3.56023037,0.0781139524 C3.84466954,0.0183938053 4.12910872,0.00943578325 4.4135479,0.0512398862 C4.69798707,0.0930439892 4.97650044,0.164708166 5.24908798,0.266232416 C5.52167552,0.367756666 5.78241144,0.496154982 6.03129572,0.651427365 C6.28018,0.806699747 6.51721264,0.967944145 6.74239366,1.13516056 C7.26386548,1.52931353 7.76163404,2.00110269 8.23569934,2.55052804 C8.62680321,2.06082284 9.04161034,1.61889375 9.48012074,1.22474078 C9.85937297,0.902251983 10.2889946,0.609623262 10.7689858,0.346854615 C11.2489769,0.0840859672 11.7497083,-0.0293823124 12.2711802,0.00644977589 Z M13.2667173,10.5410837 C12.792652,11.0307889 12.2978463,11.4876481 11.7823003,11.9116611 L11.5,12.138 L11.5,10.5 L13.3046188,10.5012218 C13.291985,10.5145744 13.2793511,10.5278617 13.2667173,10.5410837 Z" id="形状结合"></path>
                </g>
                <ellipse id="椭圆形" fill="#FBAB49" opacity="0.333031064" filter="url(#filter-3)" cx="16.5" cy="45" rx="13.5" ry="3"></ellipse>
            </g>
        </g>
    </g>
</svg>