<?xml version="1.0" encoding="utf-8"?>
<!-- Generator: Adobe Illustrator 25.3.1, SVG Export Plug-In . SVG Version: 6.00 Build 0)  -->
<svg version="1.1" id="图层_1" xmlns="http://www.w3.org/2000/svg" xmlns:xlink="http://www.w3.org/1999/xlink" x="0px" y="0px"
	 viewBox="0 0 29.5 29.5" style="enable-background:new 0 0 29.5 29.5;" xml:space="preserve">
<style type="text/css">
	.st0{display:none;fill-rule:evenodd;clip-rule:evenodd;fill:#16D0FF;fill-opacity:0.149;stroke:#3699FF;stroke-dasharray:4,2;}
	.st1{fill-rule:evenodd;clip-rule:evenodd;fill:#5F6269;}
	.st2{fill-rule:evenodd;clip-rule:evenodd;fill:#C3C7CF;}
</style>
<path class="st0" d="M1.5,1.5h26v26h-26V1.5z"/>
<path class="st1" d="M22.5,11.5h-7c-0.9,0.1-2,1.1-2,2v5c0,1,1.1,1.8,2,1.8h1.6l3.7,3v-3h1.8c1,0,1.9-0.8,1.9-1.8v-5
	C24.5,12.6,23.4,11.6,22.5,11.5L22.5,11.5z"/>
<path class="st2" d="M14.5,10.5h3l0-1.3c0-1-0.8-1.7-1.8-1.7H6.3c-1,0-1.8,0.8-1.8,1.7v7c0,1,0.8,1.7,1.8,1.7l0.2,0.5v2l4.1-2.5
	l1.9-0.5v-5c0-0.6,0.1-1.1,0.6-1.5C14,10.5,13.9,10.6,14.5,10.5L14.5,10.5z"/>
</svg>
