<?xml version="1.0" encoding="UTF-8"?>
<svg width="12px" height="12px" viewBox="0 0 12 12" version="1.1" xmlns="http://www.w3.org/2000/svg" xmlns:xlink="http://www.w3.org/1999/xlink">
    <title>上下</title>
    <g id="上下" stroke="none" stroke-width="1" fill="none" fill-rule="evenodd">
        <rect id="矩形" transform="translate(6.000000, 6.000000) rotate(90.000000) translate(-6.000000, -6.000000) " x="0" y="0" width="12" height="12"></rect>
        <path d="M8.49963262,7.21563191 L6.42664095,9.70322192 C6.35592813,9.7880773 6.22981519,9.79954211 6.14495981,9.72882929 C6.13566719,9.72108545 6.12709628,9.71251453 6.11935243,9.70322192 L4.04636076,7.21563191 C3.97564794,7.13077653 3.98711276,7.00466359 4.07196814,6.93395077 C4.10791114,6.90399827 4.15321772,6.88759503 4.20000502,6.88759503 L8.34598836,6.88759503 C8.45644531,6.88759503 8.54598836,6.97713808 8.54598836,7.08759503 C8.54598836,7.13438233 8.52958512,7.17968891 8.49963262,7.21563191 Z M8.49963262,5.55955814 L6.42664095,3.07196814 C6.35592813,2.98711276 6.22981519,2.97564794 6.14495981,3.04636076 C6.13566719,3.0541046 6.12709628,3.06267552 6.11935243,3.07196814 L4.04636076,5.55955814 C3.97564794,5.64441352 3.98711276,5.77052646 4.07196814,5.84123928 C4.10791114,5.87119178 4.15321772,5.88759503 4.20000502,5.88759503 L8.34598836,5.88759503 C8.45644531,5.88759503 8.54598836,5.79805197 8.54598836,5.68759502 C8.54598836,5.64080772 8.52958512,5.59550114 8.49963262,5.55955814 Z" id="形状结合" fill-opacity="0.6" fill="#5F6269"></path>
    </g>
</svg>