<?xml version="1.0" encoding="UTF-8"?>
<svg width="16px" height="16px" viewBox="0 0 16 16" version="1.1" xmlns="http://www.w3.org/2000/svg" xmlns:xlink="http://www.w3.org/1999/xlink">
    <title>上传</title>
    <g id="上传" stroke="none" stroke-width="1" fill="none" fill-rule="evenodd">
        <rect id="矩形" fill="#000000" fill-rule="nonzero" opacity="0" x="0" y="0" width="16" height="16"></rect>
        <path d="M7.57894737,1 C9.76842104,1 11.7052632,2.45714285 12.3789474,4.42857143 C14.4,4.68571429 16,6.48571429 16,8.71428571 C16,10.9428571 14.3157895,12.7428571 12.2105263,13 L12,13 L12,12 L12.1176471,12 C13.7647059,11.8333333 15,10.4166667 15,8.66666666 C15,6.83333332 13.5176471,5.33333332 11.7058823,5.33333334 L11.6235294,5.33333334 C11.2117647,3.41666668 9.56470588,2 7.58823529,2 C5.28235293,2 3.47058824,3.83333334 3.47058824,6.16666666 C2.07058824,6.33333332 1,7.58333332 1,9.08333334 C1,10.6666667 2.31764705,12 3.88235294,12 L4,12 L4,13 L3.78947368,13 C1.68421052,13 0,11.2857143 0,9.14285715 C0,7.42857144 1.09473685,5.97142857 2.52631579,5.45714286 C2.8631579,2.97142858 4.96842104,1 7.57894737,1 Z" id="形状结合" fill="#5F6269" fill-rule="nonzero"></path>
        <line x1="8" y1="15.1625" x2="8" y2="8.76688267" id="路径-2" stroke="#5F6269"></line>
        <path d="M8.21213204,7.21213204 L10.4878679,9.48786795 C10.6050252,9.60502524 10.6050252,9.79497474 10.4878679,9.91213203 C10.431607,9.96839295 10.3553009,10 10.2757359,10 L5.7242641,10 C5.55857867,10 5.42426409,9.86568542 5.42426409,9.69999999 C5.42426409,9.62043504 5.45587114,9.54412886 5.51213205,9.48786795 L7.78786796,7.21213204 C7.90502525,7.09497475 8.09497475,7.09497475 8.21213204,7.21213204 Z" id="三角形" fill="#5F6269"></path>
    </g>
</svg>