<?xml version="1.0" encoding="UTF-8"?>
<svg width="12px" height="12px" viewBox="0 0 12 12" version="1.1" xmlns="http://www.w3.org/2000/svg" xmlns:xlink="http://www.w3.org/1999/xlink">
    <title>列表视图</title>
    <g id="列表视图" stroke="none" stroke-width="1" fill="none" fill-rule="evenodd">
        <rect id="矩形" fill="#000000" fill-rule="nonzero" opacity="0" x="0" y="0" width="12" height="12"></rect>
        <rect id="矩形" stroke="#E92E5E" stroke-width="0.5" x="0.25" y="0.795454545" width="11.5" height="10.4090909" rx="1"></rect>
        <path d="M3.47291667,5 L3.26875,5 C3.12032347,5 3,5.12288355 3,5.27446809 C3,5.42605262 3.12032347,5.54893617 3.26875,5.54893617 L3.48125,5.54893617 C3.62967653,5.54893617 3.75,5.42605262 3.75,5.27446809 C3.75,5.12288355 3.62967653,5 3.48125,5 L3.47291667,5 Z M4.76041667,5.54893617 L8.73125,5.54893617 C8.87967653,5.54893617 9,5.42605262 9,5.27446809 C9,5.12288355 8.87967653,5 8.73125,5 L4.76041667,5 C4.61199014,5 4.49166667,5.12288355 4.49166667,5.27446809 C4.49166667,5.42605262 4.61199014,5.54893617 4.76041667,5.54893617 Z M3.47291667,6.72765957 L3.26875,6.72765957 C3.12032347,6.72765957 3,6.85054312 3,7.00212766 C3,7.1537122 3.12032347,7.27659574 3.26875,7.27659574 L3.48125,7.27659574 C3.62967653,7.27659574 3.75,7.1537122 3.75,7.00212766 C3.75,6.85054312 3.62967653,6.72765957 3.48125,6.72765957 L3.47291667,6.72765957 Z M8.73125,6.72765957 L4.76041667,6.72765957 C4.61199014,6.72765957 4.49166667,6.85054312 4.49166667,7.00212766 C4.49166667,7.1537122 4.61199014,7.27659574 4.76041667,7.27659574 L8.73125,7.27659574 C8.87967653,7.27659574 9,7.1537122 9,7.00212766 C9,6.85054312 8.87967653,6.72765957 8.73125,6.72765957 L8.73125,6.72765957 Z M3.47291667,8.45106383 L3.26875,8.45106383 C3.12032347,8.45106383 3,8.57394738 3,8.72553191 C3,8.87711645 3.12032347,9 3.26875,9 L3.48125,9 C3.62967653,9 3.75,8.87711645 3.75,8.72553191 C3.75,8.57394738 3.62967653,8.45106383 3.48125,8.45106383 L3.47291667,8.45106383 Z M8.73125,8.45106383 L4.76041667,8.45106383 C4.61199014,8.45106383 4.49166667,8.57394738 4.49166667,8.72553191 C4.49166667,8.87711645 4.61199014,9 4.76041667,9 L8.73125,9 C8.87967653,9 9,8.87711645 9,8.72553191 C9,8.57394738 8.87967653,8.45106383 8.73125,8.45106383 L8.73125,8.45106383 Z" id="形状" fill="#E92E5E" fill-rule="nonzero"></path>
        <line x1="0.389626124" y1="3" x2="12" y2="3" id="路径-5" stroke="#E92E5E" stroke-width="0.5"></line>
    </g>
</svg>