<?xml version="1.0" encoding="UTF-8"?>
<svg width="12px" height="12px" viewBox="0 0 12 12" version="1.1" xmlns="http://www.w3.org/2000/svg" xmlns:xlink="http://www.w3.org/1999/xlink">
    <title>github-fill</title>
    <g id="github-fill" stroke="none" stroke-width="1" fill="none" fill-rule="evenodd">
        <rect id="矩形" fill="#5F6269" fill-rule="nonzero" x="0" y="0" width="12" height="12" rx="2"></rect>
        <path d="M6.00061446,0.5 C2.96151268,0.498771547 0.5,2.95905531 0.5,5.99569926 C0.5,8.39699521 2.03982795,10.4382197 4.18428109,11.1878566 C4.47307563,11.2603624 4.42883477,11.055134 4.42883477,10.9150379 L4.42883477,9.96263033 C2.76119987,10.1580275 2.69360965,9.05446365 2.58177857,8.8701267 C2.35565859,8.48424803 1.82108144,8.38593499 1.98084013,8.20159805 C2.36057424,8.00620088 2.74768182,8.25075457 3.19623506,8.91313866 C3.52066808,9.39364363 4.15355826,9.31253537 4.47430455,9.23265603 C4.54435259,8.94386148 4.69427997,8.68578976 4.90073735,8.48547694 C3.17288571,8.17579087 2.45274271,7.12138355 2.45274271,5.86789232 C2.45274271,5.2595804 2.65305552,4.70042499 3.04630768,4.24941393 C2.79560943,3.50592159 3.06965702,2.86934467 3.10652441,2.77471837 C3.82052285,2.71081489 4.56278628,3.28594616 4.62054519,3.33141594 C5.02608647,3.22204269 5.48938666,3.16428378 6.00798793,3.16428378 C6.52904703,3.16428378 6.99357614,3.22450052 7.40280416,3.33510268 C7.54167132,3.22941617 8.22986259,2.73539315 8.89347559,2.79560989 C8.92911407,2.89023619 9.19701709,3.51206615 8.9610658,4.24572719 C9.35923361,4.69796717 9.56200425,5.26203822 9.56200425,5.87157905 C9.56200425,7.12752811 8.83694559,8.18316435 7.1041783,8.48793477 C7.39297285,8.77304258 7.57239415,9.16875255 7.57239415,9.60624557 L7.57239415,10.9887727 C7.58222545,11.0993748 7.57239415,11.2087481 7.75673109,11.2087481 C9.93313596,10.475087 11.5,8.41911564 11.5,5.99692818 C11.5,2.95905531 9.03725841,0.5 6.00061446,0.5 Z" id="路径" fill="#FFFFFF" fill-rule="nonzero"></path>
    </g>
</svg>