<?xml version="1.0" encoding="UTF-8"?>
<svg width="12px" height="12px" viewBox="0 0 12 12" version="1.1" xmlns="http://www.w3.org/2000/svg" xmlns:xlink="http://www.w3.org/1999/xlink">
    <title>graphQL</title>
    <g id="graphQL" stroke="none" stroke-width="1" fill="none" fill-rule="evenodd">
        <rect id="Rectangle" fill="#E00297" fill-rule="nonzero" x="0" y="0" width="12" height="12" rx="2"></rect>
        <g id="编组-8" transform="translate(1.729107, 1.000000)">
            <path d="M4.25066208,0.970048017 L7.93431557,3.21902745 L7.93431557,6.88666111 L4.25076143,9.26264481 L0.708134545,6.88946291 L0.708134545,3.21625184 L4.25066208,0.970048017 Z" id="路径-17" stroke="#FFFFFF" stroke-width="0.5"></path>
            <path d="M4.25220322,1.15649075 L7.73511416,6.7729004 L0.898588593,6.7729004 L4.25220322,1.15649075 Z" id="路径-18" stroke="#FFFFFF" stroke-width="0.5"></path>
            <path d="M4.20165394,1.42813983 C4.59412434,1.42813983 4.91228447,1.10843984 4.91228447,0.714069916 C4.91228447,0.319699991 4.59412434,0 4.20165394,0 C3.80918353,0 3.4910234,0.319699991 3.4910234,0.714069916 C3.4910234,1.10843984 3.80918353,1.42813983 4.20165394,1.42813983 Z" id="椭圆形" fill="#FFFFFF"></path>
            <path d="M0.710630535,7.73697031 C1.10310094,7.73697031 1.42126107,7.41727032 1.42126107,7.0229004 C1.42126107,6.62853047 1.10310094,6.30883048 0.710630535,6.30883048 C0.318160128,6.30883048 0,6.62853047 0,7.0229004 C0,7.41727032 0.318160128,7.73697031 0.710630535,7.73697031 Z" id="椭圆形" fill="#FFFFFF"></path>
            <path d="M0.710630535,3.82130651 C1.10310094,3.82130651 1.42126107,3.50160652 1.42126107,3.1072366 C1.42126107,2.71286667 1.10310094,2.39316668 0.710630535,2.39316668 C0.318160128,2.39316668 6.32827124e-15,2.71286667 6.32827124e-15,3.1072366 C6.32827124e-15,3.50160652 0.318160128,3.82130651 0.710630535,3.82130651 Z" id="椭圆形" fill="#FFFFFF"></path>
            <path d="M8.10138936,3.82130651 C8.49385977,3.82130651 8.8120199,3.50160652 8.8120199,3.1072366 C8.8120199,2.71286667 8.49385977,2.39316668 8.10138936,2.39316668 C7.70891895,2.39316668 7.39075883,2.71286667 7.39075883,3.1072366 C7.39075883,3.50160652 7.70891895,3.82130651 8.10138936,3.82130651 Z" id="椭圆形" fill="#FFFFFF"></path>
            <path d="M8.10138936,7.61976695 C8.49385977,7.61976695 8.8120199,7.30006696 8.8120199,6.90569703 C8.8120199,6.51132711 8.49385977,6.19162711 8.10138936,6.19162711 C7.70891895,6.19162711 7.39075883,6.51132711 7.39075883,6.90569703 C7.39075883,7.30006696 7.70891895,7.61976695 8.10138936,7.61976695 Z" id="椭圆形" fill="#FFFFFF"></path>
            <path d="M4.27089344,10 C4.66336384,10 4.98152397,9.68030001 4.98152397,9.28593008 C4.98152397,8.89156016 4.66336384,8.57186017 4.27089344,8.57186017 C3.87842303,8.57186017 3.5602629,8.89156016 3.5602629,9.28593008 C3.5602629,9.68030001 3.87842303,10 4.27089344,10 Z" id="椭圆形" fill="#FFFFFF"></path>
        </g>
    </g>
</svg>