<?xml version="1.0" encoding="UTF-8"?>
<svg width="11px" height="12px" viewBox="0 0 11 12" version="1.1" xmlns="http://www.w3.org/2000/svg" xmlns:xlink="http://www.w3.org/1999/xlink">
    <title>graphQL</title>
    <g id="2.0" stroke="none" stroke-width="1" fill="none" fill-rule="evenodd">
        <g id="概览—设置-全局设置" transform="translate(-180.000000, -438.000000)">
            <g id="编组-8" transform="translate(180.000000, 438.000000)">
                <path d="M5.305389,1.10203662 L9.96643986,3.83764915 L9.96643986,8.28833738 L5.30548775,11.178452 L0.821887042,8.29112103 L0.821887042,3.83489622 L5.305389,1.10203662 Z" id="路径-17" stroke="#E00297" stroke-width="0.5"></path>
                <path d="M5.30615785,1.18463573 L9.84941875,8.22748048 L0.931556693,8.22748048 L5.30615785,1.18463573 Z" id="路径-18" stroke="#E00297" stroke-width="0.4"></path>
                <path d="M5.24490342,1.7137678 C5.73482225,1.7137678 6.13197994,1.33012781 6.13197994,0.856883899 C6.13197994,0.383639989 5.73482225,0 5.24490342,0 C4.75498459,0 4.35782691,0.383639989 4.35782691,0.856883899 C4.35782691,1.33012781 4.75498459,1.7137678 5.24490342,1.7137678 Z" id="椭圆形" fill="#E00297"></path>
                <path d="M0.887076513,9.28436438 C1.37699534,9.28436438 1.77415303,8.90072439 1.77415303,8.42748048 C1.77415303,7.95423657 1.37699534,7.57059658 0.887076513,7.57059658 C0.397157683,7.57059658 0,7.95423657 0,8.42748048 C0,8.90072439 0.397157683,9.28436438 0.887076513,9.28436438 Z" id="椭圆形" fill="#E00297"></path>
                <path d="M0.887076513,4.58556781 C1.37699534,4.58556781 1.77415303,4.20192782 1.77415303,3.72868391 C1.77415303,3.25544 1.37699534,2.87180001 0.887076513,2.87180001 C0.397157683,2.87180001 0,3.25544 0,3.72868391 C0,4.20192782 0.397157683,4.58556781 0.887076513,4.58556781 Z" id="椭圆形" fill="#E00297"></path>
                <path d="M10.1129235,4.58556781 C10.6028423,4.58556781 11,4.20192782 11,3.72868391 C11,3.25544 10.6028423,2.87180001 10.1129235,2.87180001 C9.62300466,2.87180001 9.22584697,3.25544 9.22584697,3.72868391 C9.22584697,4.20192782 9.62300466,4.58556781 10.1129235,4.58556781 Z" id="椭圆形" fill="#E00297"></path>
                <path d="M10.1129235,9.14372034 C10.6028423,9.14372034 11,8.76008035 11,8.28683644 C11,7.81359253 10.6028423,7.42995254 10.1129235,7.42995254 C9.62300466,7.42995254 9.22584697,7.81359253 9.22584697,8.28683644 C9.22584697,8.76008035 9.62300466,9.14372034 10.1129235,9.14372034 Z" id="椭圆形" fill="#E00297"></path>
                <path d="M5.33133474,12 C5.82125357,12 6.21841125,11.61636 6.21841125,11.1431161 C6.21841125,10.6698722 5.82125357,10.2862322 5.33133474,10.2862322 C4.84141591,10.2862322 4.44425823,10.6698722 4.44425823,11.1431161 C4.44425823,11.61636 4.84141591,12 5.33133474,12 Z" id="椭圆形" fill="#E00297"></path>
            </g>
        </g>
    </g>
</svg>