<?xml version="1.0" encoding="UTF-8"?>
<svg width="12px" height="12px" viewBox="0 0 12 12" version="1.1" xmlns="http://www.w3.org/2000/svg" xmlns:xlink="http://www.w3.org/1999/xlink">
    <title>mongodb</title>
    <g id="mongodb" stroke="none" stroke-width="1" fill="none" fill-rule="evenodd">
        <rect id="矩形" fill="#5AA046" x="0" y="0" width="12" height="12" rx="2"></rect>
        <g id="编组-4" transform="translate(3.250000, 0.750000)">
            <path d="M2.77677104,7.73531047 C2.56350042,8.53634408 2.44595994,9.1417168 2.42414961,9.55142862 C2.55097421,9.95264733 2.59204898,10.3435587 2.60913572,10.8843768 C2.73225622,10.9267922 2.84025826,10.9653332 2.93314185,11 C2.90105365,10.2775601 2.95544762,9.79470295 3.09632374,9.55142862 C3.06297587,9.21993521 2.9564583,8.61456249 2.77677104,7.73531047 Z" id="路径-4" fill="#B2B292"></path>
            <path d="M2.6470946,0 C2.58778522,0.280643439 2.45727837,0.484446915 2.25557404,0.611410426 C2.05560047,0.699771825 1.27019553,1.47282006 0.687852794,2.63481572 C-0.24624512,4.49869701 -0.685782042,7.32305675 2.44150041,9.6249319 C2.54412268,8.98603827 2.65966015,8.35616446 2.78811281,7.73531047 C2.85271064,6.11299444 2.88500956,4.83337094 2.88500956,3.89643995 C2.88500956,2.95950896 2.80570457,1.66069565 2.6470946,0 Z" id="路径-80" fill="#FFFFFF"></path>
            <path d="M5.44495438,0 C5.26373211,0.280643439 5.07226881,0.484446915 4.87056448,0.611410426 C4.67059091,0.699771825 3.88518597,1.47282006 3.30284324,2.63481572 C2.36874532,4.49869701 1.86844279,7.24955347 4.99572524,9.55142862 C5.26731058,9.29520859 5.40310325,8.68983587 5.40310325,7.73531047 C5.46770108,6.11299444 5.5,4.83337094 5.5,3.89643995 C5.5,2.95950896 5.48165146,1.66069565 5.44495438,0 Z" id="路径-80" fill="#E2EEDF" transform="translate(4.046024, 4.775714) scale(-1, 1) translate(-4.046024, -4.775714) "></path>
        </g>
    </g>
</svg>