<?xml version="1.0" encoding="UTF-8"?>
<svg width="16px" height="16px" viewBox="0 0 16 16" version="1.1" xmlns="http://www.w3.org/2000/svg" xmlns:xlink="http://www.w3.org/1999/xlink">
    <title>mysql </title>
    <g id="mysql-" stroke="none" stroke-width="1" fill="none" fill-rule="evenodd">
        <rect id="矩形" fill="#41D649" x="0" y="0" width="16" height="16" rx="2"></rect>
        <path d="M5.58758098,2.88745838 C6.16120377,2.58883785 8.63673329,2.43339325 10.9245885,8.1629025 C11.4072983,8.41865618 13.3074223,9.43304706 13.3074223,9.96871573 C13.3074223,10.968065 11.7854625,10.2501382 11.7854625,10.3537413 C12.2314992,10.794325 13.8512966,12.7329456 13.9738145,13.2351245 C14.0963323,13.7373034 13.7746071,14 13.3074223,14 C12.8402375,14 9.4585906,13.5855771 7.51400081,11.9010676 C6.93456205,11.3177907 6.55720972,10.6362497 6.38194382,9.85644482 C6.22572448,10.5808749 5.98646193,10.915989 5.66415617,10.861787 C5.18069753,10.7804839 4.30411739,10.054513 4.39216657,8.14457393 C4.4128107,7.69676694 4.60330342,7.20464273 4.79801792,6.60709935 C4.47254005,6.23321728 4.25618114,5.7358417 4.25618114,5.57473642 C4.25618114,5.41363114 4.14708801,4.60381527 4.01531167,4.36362574 C3.88353533,4.12343621 2.724583,2.82154405 3.06098548,2.29381022 C3.39738797,1.76607639 4.75753746,1.94063875 5.58758098,2.88745838 Z M6.11647915,4.45170185 C6.06953589,4.45140364 6.03123899,4.48921679 6.03094063,4.53616005 C6.03083366,4.55299012 6.03572542,4.56947312 6.04549081,4.58319359 L6.53403939,5.30683687 C6.56042996,5.34566125 6.61333678,5.3555281 6.65205441,5.32898185 C6.66474413,5.3202813 6.67483432,5.30829956 6.67986024,5.29367758 C6.80455932,5.03281197 6.81009015,4.82739745 6.69645272,4.67743402 C6.58487209,4.53018485 6.39154756,4.4549408 6.11647915,4.45170185 Z" id="形状结合" fill="#FFFFFF"></path>
    </g>
</svg>