<?xml version="1.0" encoding="UTF-8"?>
<svg width="16px" height="16px" viewBox="0 0 16 16" version="1.1" xmlns="http://www.w3.org/2000/svg" xmlns:xlink="http://www.w3.org/1999/xlink">
    <title>pgsql</title>
    <g id="pgsql" stroke="none" stroke-width="1" fill="none" fill-rule="evenodd">
        <rect id="矩形" fill="#3E7FF9" x="0" y="0" width="16" height="16" rx="2"></rect>
        <path d="M10.3381522,2 C9.87332778,2.00346825 9.41120496,2.07127537 8.96486577,2.20150182 L8.93346213,2.21150191 C8.6519341,2.16159525 8.36692445,2.13400969 8.08107744,2.12900116 C7.4938791,2.11900108 6.98942688,2.26200236 6.58267488,2.5 C6.18190454,2.36050325 5.35045562,2.12000108 4.47414434,2.16800151 C3.86401636,2.20150182 3.19805966,2.3875035 2.70457379,2.9100082 C2.21258333,3.43251291 1.95238169,4.2410202 2.00721346,5.34103011 C2.02216758,5.64453285 2.10840299,6.13953731 2.25146404,6.78054308 C2.39452509,7.42154885 2.59540874,8.17205562 2.84613944,8.85656179 C3.09687014,9.54156796 3.37152744,10.1565735 3.80071059,10.5745773 C4.01505294,10.7840792 4.31014752,10.9600808 4.65807999,10.9455806 C4.90233057,10.9355805 5.12315304,10.8280796 5.3135688,10.6695781 C5.40628433,10.7920792 5.50547998,10.8455797 5.59570314,10.8950802 C5.70935443,10.9575807 5.8200149,11.0000811 5.93466313,11.0280814 C6.14053147,11.0795818 6.49295018,11.1485824 6.90568382,11.0780818 C7.04625252,11.0545816 7.19429828,11.0085812 7.34184557,10.9430806 C7.34732874,11.1080821 7.35380886,11.2695835 7.36028898,11.433085 C7.38072627,11.9510897 7.39368652,12.429594 7.54871086,12.8490978 C7.57363439,12.9175984 7.64192486,13.2706016 7.91109898,13.5821044 C8.18027309,13.8941072 8.70765495,14.0886089 9.308312,13.9596078 C9.73201199,13.868607 10.2708587,13.7046055 10.6287606,13.1936009 C10.9826747,12.6885963 11.1421853,11.9640898 11.1735889,10.7890792 C11.1807146,10.7327668 11.1898592,10.67673 11.2010048,10.6210777 L11.2852463,10.6285778 L11.2952157,10.6285778 C11.7473285,10.6490779 12.2378236,10.5845774 12.6475664,10.3935756 C13.010453,10.2250741 13.2851103,10.0545726 13.484997,9.75206986 C13.534844,9.67706919 13.5896758,9.58656837 13.6046299,9.43056696 C13.619584,9.27456556 13.5303578,9.03056336 13.382312,8.91806235 C13.085722,8.69206031 12.899294,8.77806108 12.6994073,8.81956146 C12.5025024,8.86322724 12.3018464,8.88767476 12.1002457,8.89256212 C12.6764777,7.91905334 13.0897098,6.88504402 13.3254864,5.97003577 C13.4650581,5.43003091 13.543318,4.93202642 13.5497981,4.4965225 C13.5562783,4.06101857 13.5208868,3.6755151 13.2606852,3.34201209 C12.4476797,2.3000027 11.3046867,2.01200011 10.4203999,2.00200002 C10.392984,2.00150001 10.3655681,2.00100002 10.3381522,2.00150001 L10.3381522,2 Z M10.3147241,2.32000289 C11.1511577,2.31200281 12.2198786,2.54750493 12.9870249,3.53101379 C13.1594957,3.75201579 13.2108381,4.07501869 13.2048565,4.47302228 C13.1983764,4.87052587 13.1251012,5.34653016 12.9910126,5.86803486 C12.730811,6.87804396 12.239319,8.05555457 11.5469434,9.1120641 C11.5713964,9.12949066 11.5978364,9.14392628 11.6257017,9.15506448 C11.7702582,9.21506502 12.0997472,9.26656549 12.7572299,9.13106427 C12.9227221,9.09606395 13.0438505,9.07256374 13.1694651,9.1685646 C13.2313469,9.22117803 13.265104,9.29981698 13.2606852,9.38106651 C13.2539774,9.44175696 13.2316458,9.49965329 13.195884,9.54906803 C13.068774,9.74056975 12.8180433,9.92207139 12.4965298,10.0715727 C12.2119031,10.2045739 11.8036557,10.2740746 11.4417661,10.2780746 C11.2603228,10.2800746 11.0928367,10.2660745 10.9507726,10.2215741 L10.9418001,10.2180741 C10.8869683,10.7480788 10.7608553,11.7945883 10.6786076,12.2720926 C10.6128095,12.657096 10.4976628,12.9630988 10.2778373,13.1921009 C10.0585102,13.4211029 9.74796304,13.5591042 9.33024471,13.649105 C8.81283225,13.760606 8.43549002,13.6406049 8.19223638,13.4351031 C7.94948121,13.2301012 7.83832228,12.9580988 7.77152721,12.7915973 C7.72566792,12.6765962 7.70174133,12.5275949 7.67881168,12.3285931 C7.65588203,12.1295913 7.63893404,11.8860891 7.62746921,11.6115866 C7.6121995,11.1912688 7.6072133,10.7706384 7.61251509,10.3500752 C7.39637736,10.5486455 7.12779731,10.6805714 6.83888876,10.7300787 C6.49544254,10.7885792 6.18888314,10.7310787 6.00594443,10.6850783 C5.91576358,10.662359 5.82870911,10.6286056 5.74673973,10.5845774 C5.66199973,10.539077 5.5812475,10.4875765 5.52741268,10.3860756 C5.49577961,10.3279438 5.48571259,10.2604467 5.49899985,10.1955739 C5.51584715,10.1298119 5.55408883,10.071569 5.60766644,10.0300724 C5.70636361,9.94957165 5.83696291,9.90457124 6.03385878,9.86357087 C6.39225912,9.7895702 6.51737524,9.73906975 6.59364124,9.6785692 C6.65844242,9.62656874 6.73171759,9.52156779 6.86131994,9.36756639 C6.86070079,9.3607424 6.86020224,9.35390793 6.85982453,9.34706621 C6.62787819,9.34051969 6.40074093,9.27919234 6.19685866,9.1680646 C6.12208807,9.2470653 5.74025961,9.65206895 5.27468809,10.214074 C5.07878916,10.4490761 4.86245293,10.5840774 4.6341534,10.5935774 C4.40585388,10.6035775 4.19948706,10.4880765 4.02402541,10.317575 C3.67360059,9.97607189 3.3939586,9.38856658 3.15020649,8.7245606 C2.90695285,8.06055462 2.70906003,7.32104796 2.56849132,6.69104228 C2.42742415,6.0610366 2.34417956,5.55303203 2.33221627,5.30802982 C2.27987686,4.26702043 2.52263204,3.56551412 2.93885497,3.12301012 C3.35557637,2.68050613 3.92682365,2.51300462 4.48361529,2.48100433 C5.4830488,2.42350381 6.43213677,2.77300696 6.62404794,2.84800765 C6.99391311,2.59600538 7.47045098,2.43900396 8.06562485,2.44900405 C8.34817796,2.45297926 8.62933672,2.48955346 8.90355389,2.55800503 L8.9135233,2.55350499 C9.03421913,2.51094789 9.15720275,2.47522463 9.28189306,2.44650402 C9.62045525,2.36728065 9.96659833,2.32519989 10.3142256,2.32100289 L10.3147241,2.32000289 Z M10.3904916,2.6550059 L10.3177149,2.6550059 C10.032131,2.65900091 9.7476307,2.69115592 9.46832105,2.75100676 C10.0894154,3.02700925 10.5584762,3.45201309 10.8889622,3.8760169 C11.118534,4.16959107 11.3082777,4.49240817 11.4532309,4.83602555 C11.5080627,4.96802674 11.5449495,5.07952775 11.5658852,5.16602853 C11.5763531,5.20952892 11.5833317,5.24602925 11.5858241,5.2840296 C11.5877995,5.30819647 11.5857783,5.33252468 11.5798424,5.35603025 C11.5798424,5.35753026 11.5773501,5.3610303 11.5768516,5.3625303 C11.5918057,5.80053425 11.4836376,6.09753692 11.4706774,6.5155407 C11.460708,6.81854343 11.5379709,7.17454664 11.5569128,7.56305013 C11.5748577,7.92805342 11.5309923,8.32905703 11.2947172,8.72256058 C11.3146561,8.7465608 11.332601,8.77056101 11.3515429,8.79456123 C11.976625,7.80705233 12.4272424,6.71454249 12.6675052,5.78303409 C12.7961106,5.28152957 12.8644011,4.82702547 12.8703827,4.46702223 C12.8753674,4.10701898 12.8085724,3.84601663 12.7233339,3.73701565 C12.0543864,2.87900792 11.1491638,2.66050596 10.3904916,2.6545059 L10.3904916,2.6550059 Z M8.00281755,2.78300706 C7.41362533,2.78450707 6.99092229,2.96300868 6.6704057,3.23051109 C6.33991971,3.50701359 6.1181003,3.88551699 5.9725469,4.27302049 C5.79957761,4.73302463 5.74025961,5.17802865 5.71683149,5.48003136 L5.72331161,5.47603133 C5.90126561,5.37603043 6.13504831,5.27602952 6.38528054,5.21802901 C6.63551277,5.16052848 6.90518534,5.14252832 7.14943593,5.23752918 C7.39368652,5.33253004 7.5955671,5.55603206 7.66884228,5.8950351 C8.01976556,7.52354977 7.55967722,8.12905524 7.39019722,8.58605935 C7.32590165,8.75170299 7.27081906,8.92079778 7.22520345,9.09256392 C7.24663769,9.08756387 7.26807192,9.08156382 7.28950616,9.0795638 C7.4091391,9.06956371 7.50285156,9.10956407 7.55868027,9.13356428 C7.72915721,9.20456493 7.8462978,9.35356626 7.90960356,9.5235678 C7.92605309,9.5680682 7.93801639,9.61606863 7.94499497,9.66556909 C7.95236192,9.68589495 7.95574701,9.70745644 7.95496438,9.72906965 C7.93606529,10.3519697 7.93822658,10.9753334 7.9614445,11.5980865 C7.97290932,11.8670889 7.98985732,12.1040911 8.01129156,12.2910927 C8.0327258,12.4775944 8.0631325,12.6195957 8.08257285,12.6675961 C8.14637708,12.8275976 8.23959108,13.0370995 8.40807413,13.1796008 C8.57655718,13.321602 8.81831542,13.4166029 9.25996036,13.321602 C9.64278576,13.2391013 9.87906081,13.1246002 10.037076,12.9600988 C10.1945927,12.7955973 10.2888036,12.5665952 10.3491186,12.2160921 C10.4393417,11.6910873 10.620785,10.1685736 10.6427177,9.88207103 C10.6327483,9.66606908 10.6646504,9.50006759 10.7334394,9.37356645 C10.8042222,9.24356528 10.9138857,9.16406456 11.0085951,9.12106418 C11.0559498,9.09956398 11.1003137,9.08506386 11.1367021,9.07456376 C11.0981778,9.01903222 11.0577783,8.96483362 11.0155737,8.91206229 C10.8790256,8.74594578 10.7672026,8.56085321 10.6835923,8.36255734 C10.6435487,8.28066569 10.6008232,8.20012117 10.5554854,8.12105516 C10.4891888,8.00105408 10.4054457,7.85105273 10.3177149,7.68255122 C10.1422533,7.34504817 9.95133904,6.93604449 9.8521434,6.53754089 C9.75344623,6.1395373 9.73899059,5.72753359 9.99221363,5.43703098 C10.2165254,5.17902865 10.6103172,5.07202769 11.2015032,5.13202823 C11.1840568,5.07952775 11.1735889,5.03602736 11.1441791,4.96602673 C11.0105248,4.65046723 10.8360582,4.35391949 10.6252713,4.08401879 C10.1243083,3.44151299 9.31329671,2.80450725 8.06014167,2.78400706 L8.00281755,2.78400706 L8.00281755,2.78300706 Z M4.69197598,2.80900729 C4.62867022,2.80900729 4.56536446,2.81100732 4.50255717,2.81450734 C3.99910189,2.84350761 3.52306248,2.99000892 3.18260708,3.35201219 C2.84165321,3.71401545 2.61734145,4.3075208 2.66619156,5.29002965 C2.67566251,5.47603133 2.75641474,5.99703603 2.89498956,6.6160416 C3.03306591,7.23504718 3.22896485,7.96355375 3.46424295,8.60705954 C3.70001953,9.25056534 3.98564317,9.81057039 4.25681117,10.0755728 C4.39339211,10.208074 4.5120281,10.2615745 4.61969776,10.2570744 C4.72786588,10.2520744 4.8579667,10.1895738 5.0169788,9.99807208 C5.30689105,9.64728516 5.60778521,9.30577822 5.91921055,8.97406285 C5.47015545,8.58296645 5.25086001,7.98921635 5.33749539,7.39904866 C5.38883786,7.02954533 5.39581644,6.68404222 5.3898348,6.41103975 C5.38385315,6.14503735 5.36491127,5.96803575 5.36491126,5.85753476 C5.36482198,5.8543687 5.36482198,5.85120074 5.36491126,5.84803468 L5.36491126,5.84553465 L5.3644128,5.84253463 L5.3644128,5.84203463 C5.36411616,5.26642637 5.46397947,4.69518311 5.65950737,4.15401941 C5.79907914,3.78201606 6.00694137,3.40401265 6.31848548,3.0980099 C6.01242455,2.99700898 5.46909162,2.8430076 4.88089633,2.81400733 C4.81780814,2.8107574 4.7546488,2.8090902 4.69147752,2.80900729 L4.69197598,2.80900729 Z M10.8720142,5.45003109 C10.5335527,5.45453113 10.3436354,5.54203193 10.2439413,5.65653295 C10.1028741,5.81903442 10.0894154,6.10403699 10.1771462,6.45504015 C10.2643786,6.80654332 10.4448249,7.19954686 10.6143049,7.5260498 C10.6990449,7.68955127 10.7812926,7.8365526 10.8475891,7.95605367 C10.9143842,8.07605475 10.9632343,8.16105552 10.9931426,8.23355617 C11.0205584,8.30055677 11.0509651,8.35955731 11.0818703,8.41455781 C11.2129681,8.13705531 11.2363962,7.86455286 11.2229375,7.5805503 C11.205491,7.22904712 11.1242403,6.86954389 11.1362036,6.5055406 C11.1496623,6.08003677 11.2334054,5.80303427 11.2408824,5.47403131 C11.1185635,5.4581374 10.9953551,5.4501209 10.8720142,5.45003109 L10.8720142,5.45003109 Z M6.76760746,5.50753161 C6.66420968,5.50849918 6.56123399,5.5209077 6.4605496,5.54453194 C6.2598827,5.59343565 6.06660413,5.6689336 5.88581302,5.76903396 C5.82465937,5.8019378 5.76645419,5.84007997 5.71184678,5.88303499 L5.70088044,5.89303509 C5.70387126,5.96603574 5.7183269,6.14303734 5.72430855,6.40353968 C5.7302902,6.68854225 5.72331161,7.05204553 5.66847984,7.44554908 C5.54934538,8.30055679 6.16794736,9.00856317 6.89471746,9.00956317 C6.93708746,8.83406159 7.00687334,8.65605999 7.07665923,8.4685583 C7.27903829,7.92155337 7.67731627,7.52254978 7.34184557,5.96553573 C7.28701381,5.71053344 7.17834722,5.60753251 7.02880605,5.54953199 C6.94499011,5.51979606 6.85648985,5.50556534 6.76760746,5.50753161 L6.76760746,5.50753161 Z M10.713999,5.60953253 L10.7389226,5.60953253 C10.7691291,5.61008302 10.7991977,5.61376937 10.8286473,5.62053262 C10.8555647,5.62653268 10.8784943,5.63553276 10.8974362,5.64803288 C10.9170899,5.66023978 10.9306726,5.68022246 10.9348215,5.70303337 L10.934323,5.70703341 L10.9348215,5.70703341 L10.934323,5.70703341 C10.9352968,5.73076983 10.9292249,5.75426209 10.9168766,5.77453402 C10.9021758,5.80197696 10.8837197,5.82722187 10.8620448,5.8495347 C10.8114777,5.90539017 10.7437565,5.94269865 10.6696351,5.95553565 C10.5975077,5.96427939 10.5247063,5.94593399 10.4652622,5.90403518 C10.4409299,5.88761668 10.4191019,5.86774269 10.400461,5.84503466 C10.3843312,5.82719435 10.3734591,5.80521019 10.3690574,5.78153408 C10.3669518,5.75821891 10.374526,5.73506487 10.3899932,5.71753351 C10.4063493,5.69889129 10.4261555,5.68360885 10.4483142,5.6725331 C10.4961674,5.64553286 10.5609686,5.62553267 10.6342437,5.61453257 C10.6616596,5.61053254 10.688577,5.60853252 10.713999,5.60803252 L10.713999,5.60953253 Z M6.81595911,5.69353329 C6.84237805,5.69353329 6.87029241,5.69603331 6.89870523,5.70003334 C6.97497123,5.71053344 7.04276323,5.73103362 7.09460417,5.7610339 C7.11988766,5.77427159 7.14239567,5.79226551 7.16090075,5.81403437 C7.18127123,5.837378 7.19102511,5.86817916 7.18781816,5.89903514 C7.18302637,5.92778338 7.17004225,5.95452615 7.15043287,5.97603583 C7.1300397,6.00114972 7.10601295,6.02305944 7.07915158,6.04103642 C7.01432389,6.08710522 6.93469195,6.10725276 6.85583676,6.09753692 C6.77525039,6.0842497 6.7014882,6.04408415 6.64647911,5.9835359 C6.6230759,5.9591546 6.6032689,5.93154152 6.58765959,5.90153516 C6.57122958,5.87513363 6.56403839,5.84399322 6.56722229,5.81303436 C6.57469935,5.75903388 6.61906323,5.73103363 6.66243018,5.71553348 C6.71182856,5.69970051 6.76366693,5.69292554 6.81546064,5.6955333 L6.81595911,5.69353329 Z M11.3321025,9.36506637 L11.3306071,9.36556638 C11.257332,9.39206662 11.197017,9.40306672 11.146173,9.42556692 C11.0947544,9.44542268 11.0523713,9.48348918 11.0270385,9.53256788 C10.9956349,9.5900684 10.9687175,9.69206932 10.976693,9.86557088 C10.9992447,9.88114662 11.0241569,9.89296565 11.0504667,9.9005712 C11.1357051,9.92657144 11.2787662,9.94357158 11.4382768,9.94107157 C11.756301,9.93757153 12.1476004,9.86307086 12.3554626,9.76606999 C12.525982,9.6866076 12.6842754,9.58305514 12.8255204,9.45856722 L12.8250219,9.45856722 C12.1306524,9.60256852 11.7383561,9.56406818 11.4975948,9.46456728 C11.4378093,9.43961602 11.3820396,9.40591642 11.3321025,9.36456637 L11.3321025,9.36506637 Z M7.32888534,9.4120668 L7.31841746,9.4120668 C7.29199852,9.41456682 7.25361628,9.4235669 7.17934417,9.50606765 C7.0058764,9.7010694 6.945063,9.8235705 6.80200193,9.93807154 C6.65894088,10.0520726 6.47301135,10.1130731 6.10165078,10.1895738 C6.02233397,10.2037658 5.94512369,10.2279578 5.87185584,10.2615745 C5.88631148,10.2735746 5.88481607,10.2765746 5.90674878,10.2880747 C5.96108208,10.318075 6.03086796,10.3445752 6.08719513,10.3590753 C6.24670571,10.3990757 6.50890124,10.4455761 6.78256158,10.3990757 C7.05622193,10.3520753 7.34084863,10.2205741 7.58360381,9.879071 C7.62547534,9.82007047 7.62996157,9.73306968 7.5955671,9.63956885 C7.56067416,9.546068 7.48440816,9.46556728 7.43057334,9.44306708 C7.39853911,9.4275611 7.36418777,9.41742668 7.32888534,9.41306681 L7.32888534,9.4120668 Z" id="形状" fill="#FFFFFF"></path>
    </g>
</svg>