<?xml version="1.0" encoding="UTF-8"?>
<svg width="12px" height="12px" viewBox="0 0 12 12" version="1.1" xmlns="http://www.w3.org/2000/svg" xmlns:xlink="http://www.w3.org/1999/xlink">
    <title>rest</title>
    <g id="rest" stroke="none" stroke-width="1" fill="none" fill-rule="evenodd">
        <rect id="矩形" fill="#52A2F3" x="0" y="0" width="12" height="12" rx="2"></rect>
        <path d="M6.06722689,11.5 C8.31349428,11.5 10.1344538,10.2667504 10.1344538,7.43277311 C10.1344538,5.54345492 8.79103641,3.23253055 6.10420168,0.5 C3.36806723,3.29448867 2,5.60541304 2,7.43277311 C2,10.1738132 3.82095951,11.5 6.06722689,11.5 Z" id="椭圆形" fill="#52A2F3"></path>
        <path d="M6.77475692,4.03650309 C7.71893388,4.03650309 8.50141599,4.57903889 8.50141599,5.26889745 C8.50141599,5.91276545 7.81978713,6.42829894 6.96125244,6.49417511 L6.77475692,6.50129182 L6.337,6.501 L6.33729073,7.90776001 L5.76173771,7.90776001 L5.76173771,4.0488974 L6.049,4.048 L6.04951422,4.03650309 L6.77475692,4.03650309 Z M6.337,6.031 L6.77475692,6.03180825 C7.41992575,6.03180825 7.92586297,5.6810155 7.92586297,5.26889745 C7.92586297,4.89112257 7.50073517,4.56487798 6.93293626,4.51312732 L6.77475692,4.50598665 L6.337,4.505 L6.337,6.031 Z M4.12015864,4 C4.59267294,4 4.94877868,4.17961036 5.165588,4.57058762 L5.24031728,4.72717394 L5.24031728,7.90776001 L4.66476425,7.90776001 L4.675,6.068 L3.575,6.068 L3.57555302,7.90776001 L3,7.90776001 L3.01731521,4.64697685 C3.20433104,4.22731936 3.58858005,4 4.12015864,4 Z M4.12015864,4.46948357 C3.88210184,4.46948357 3.7239032,4.53960075 3.6267037,4.65366853 L3.57555302,4.72717394 L3.575,5.54 L4.678,5.54 L4.68207947,4.80737103 C4.5764992,4.57045232 4.4058268,4.46948357 4.12015864,4.46948357 Z M10,4.03688083 L10,4.56488083 L9.64,4.564 L9.64,7.521 L10,7.52112676 L10,8.04912676 L8.7050057,8.04912676 L8.7050057,7.52112676 L9.064,7.521 L9.064,4.564 L8.7050057,4.56488083 L8.7050057,4.03688083 L10,4.03688083 Z" id="形状结合" fill="#FFFFFF" fill-rule="nonzero"></path>
    </g>
</svg>