<?xml version="1.0" encoding="UTF-8"?>
<svg width="12px" height="12px" viewBox="0 0 12 12" version="1.1" xmlns="http://www.w3.org/2000/svg" xmlns:xlink="http://www.w3.org/1999/xlink">
    <title>sqlite</title>
    <defs>
        <rect id="path-1" x="0" y="0" width="12" height="12" rx="2"></rect>
    </defs>
    <g id="sqlite" stroke="none" stroke-width="1" fill="none" fill-rule="evenodd">
        <mask id="mask-2" fill="white">
            <use xlink:href="#path-1"></use>
        </mask>
        <use id="蒙版" fill="#60DBD1" xlink:href="#path-1"></use>
        <path d="M6.45455046,1.58037803 C7.13861848,0.981528333 7.8360996,0.786251258 8.41286284,1.28095318 C9.82123817,2.49167105 8.41286284,5.27762398 7.15203158,7.24341321 C6.21311469,7.54283805 5.12665371,8.18074317 5.12665371,8.18074317 C5.12665371,8.18074317 5.2205454,8.14168775 5.55587286,7.99848456 C5.78389554,7.90735526 6.45455046,7.7511336 6.87035651,7.6600043 C6.17287539,8.67544509 5.58269906,9.37844256 5.58269906,9.37844256 C5.58269906,9.37844256 4.3755202,9.84710754 3.99995344,10.9536776 C4.22797612,9.76899671 4.57671668,8.54526037 5.08641442,7.23039473 C5.54245977,6.05873228 7.04472679,2.89524367 8.17142706,1.91885829 C6.93742201,2.85618825 5.60952526,4.83499595 4.64378217,7.30850556 C4.08043203,8.94883299 3.77193077,10.5110496 3.71827838,11.8128968 C3.67803908,12.6590974 3.75851767,13.4011503 3.94630105,13.9609446 L3.94630105,13.9609446 L3.86582246,14 C3.73169147,13.7135936 3.63779978,13.1798363 3.58414739,12.5549496 C3.5439081,12.0862847 3.530495,11.5655458 3.55732119,11.0708439 C3.5439081,11.0057515 3.5439081,10.9536776 3.5439081,10.9536776 C3.5439081,10.9536776 3.5170819,10.771419 3.4634295,10.5110496 L3.4634295,10.5110496 L3.20858063,9.46957186 L3.20858063,9.46957186 L3.16037731,9.33613253 C3.11385063,9.20676146 3.07109637,9.09203618 3.02079726,9.01392535 C2.96714486,8.93581452 3.02079726,8.63638967 3.14151514,8.20678011 C3.20858063,8.32394635 3.5170819,8.83166675 3.57073429,9.00090688 C3.63779978,9.18316548 3.65121288,9.23523937 3.65121288,9.23523937 C3.65121288,9.23523937 3.4902557,8.41507566 3.22199373,7.9333922 C3.28905922,7.73811513 3.35612472,7.52981958 3.43660331,7.29548709 C3.530495,7.46472722 3.74510457,7.82924443 3.82558316,7.99848456 C3.82558316,8.01150303 3.83899626,8.02452151 3.83899626,8.03753998 C3.85240936,8.06357692 3.85240936,8.08961386 3.86582246,8.11565081 L3.86582246,8.11565081 L3.918,8.267 C3.91464614,8.24114887 3.90659828,8.19272016 3.8937217,8.13023149 L3.87923556,8.06357692 C3.86582246,8.01150303 3.85240936,7.94641068 3.83899626,7.88131832 C3.77193077,7.63396736 3.66462598,7.29548709 3.530495,7.03511766 C3.75851767,5.90251062 4.30845471,4.52255263 5.00593583,3.36390865 L5.00593583,3.36390865 L5.67659075,2.41356022 C5.82413483,2.21828314 5.98509201,2.03602454 6.1460492,1.86678441 C6.25335398,1.76263663 6.34724567,1.67150733 6.45455046,1.58037803 Z" id="形状结合" fill="#FFFFFF" fill-rule="nonzero" mask="url(#mask-2)" transform="translate(6.000000, 7.500000) rotate(5.000000) translate(-6.000000, -7.500000) "></path>
    </g>
</svg>